M48
; DRILL file {KiCad (6.0.2)} date Thu Jul  7 23:03:15 2022
; FORMAT={-:-/ absolute / metric / decimal}
; #@! TF.CreationDate,2022-07-07T23:03:15-05:00
; #@! TF.GenerationSoftware,Kicad,Pcbnew,(6.0.2)
; #@! TF.FileFunction,Plated,1,2,PTH
FMAT,2
METRIC
; #@! TA.AperFunction,Plated,PTH,ViaDrill
T1C0.400
; #@! TA.AperFunction,Plated,PTH,ComponentDrill
T2C0.680
; #@! TA.AperFunction,Plated,PTH,ComponentDrill
T3C0.700
; #@! TA.AperFunction,Plated,PTH,ComponentDrill
T4C0.840
; #@! TA.AperFunction,Plated,PTH,ComponentDrill
T5C0.900
; #@! TA.AperFunction,Plated,PTH,ComponentDrill
T6C0.960
; #@! TA.AperFunction,Plated,PTH,ComponentDrill
T7C0.991
; #@! TA.AperFunction,Plated,PTH,ComponentDrill
T8C1.000
; #@! TA.AperFunction,Plated,PTH,ComponentDrill
T9C1.030
; #@! TA.AperFunction,Plated,PTH,ComponentDrill
T10C1.100
; #@! TA.AperFunction,Plated,PTH,ComponentDrill
T11C1.750
; #@! TA.AperFunction,Plated,PTH,ComponentDrill
T12C2.864
; #@! TA.AperFunction,Plated,PTH,ComponentDrill
T13C3.200
; #@! TA.AperFunction,Plated,PTH,ComponentDrill
T14C3.590
; #@! TA.AperFunction,Plated,PTH,ComponentDrill
T15C4.000
%
G90
G05
T1
X88.024Y-105.539
X92.083Y-129.228
X92.465Y-131.853
X92.5Y-90.582
X98.128Y-131.261
X98.445Y-132.791
X98.816Y-81.922
X100.876Y-83.24
X101.861Y-129.333
X104.363Y-83.435
X107.822Y-135.487
X108.23Y-131.783
X108.799Y-125.525
X109.23Y-92.521
X110.333Y-90.435
X111.574Y-112.081
X112.281Y-113.426
X112.3Y-114.426
X112.346Y-120.376
X113.378Y-121.38
X117.779Y-120.255
X117.995Y-104.712
X118.012Y-103.414
X118.955Y-121.06
X119.483Y-138.753
X119.802Y-99.502
X119.828Y-98.453
X121.291Y-115.424
X122.702Y-119.51
X123.668Y-129.415
X123.739Y-102.142
X124.999Y-107.162
X125.094Y-123.539
X125.683Y-124.598
X125.993Y-101.637
X127.85Y-113.213
X128.0Y-134.693
X129.064Y-126.101
X130.466Y-96.755
X130.567Y-129.996
X130.663Y-115.753
X131.441Y-121.683
X133.772Y-133.501
X134.018Y-120.948
X134.511Y-140.443
X135.24Y-126.527
X137.142Y-131.711
X146.786Y-96.755
X149.825Y-117.046
X152.068Y-74.866
X155.156Y-96.446
X155.474Y-111.944
X157.432Y-83.699
X157.44Y-97.479
X157.467Y-85.821
X157.77Y-73.608
X158.658Y-106.434
X158.876Y-82.264
X160.941Y-68.695
X163.465Y-68.669
X163.831Y-100.072
X166.617Y-64.091
X171.452Y-66.144
X171.609Y-67.94
X171.657Y-103.359
X179.342Y-74.889
X179.529Y-67.076
X182.731Y-96.825
X183.526Y-103.189
X185.124Y-97.367
X186.108Y-66.46
X186.681Y-87.668
X188.042Y-96.571
X188.58Y-123.387
X189.377Y-115.403
X191.637Y-119.413
X194.793Y-75.129
X196.53Y-76.297
X197.358Y-108.738
X197.38Y-103.856
X197.496Y-107.325
X200.34Y-103.637
X200.39Y-107.664
X200.627Y-106.214
X201.137Y-80.986
X201.14Y-79.774
X201.142Y-77.494
X202.085Y-104.862
X202.818Y-75.246
X204.288Y-97.131
X215.192Y-123.394
X215.432Y-133.595
T2
X121.686Y-95.044
X126.566Y-95.044
T3
X194.492Y-116.842
X194.492Y-119.382
X194.492Y-121.922
X194.492Y-124.462
X194.492Y-127.002
X194.492Y-129.542
X194.492Y-132.082
X194.492Y-134.622
X209.732Y-116.842
X209.732Y-119.382
X209.732Y-121.922
X209.732Y-124.462
X209.732Y-127.002
X209.732Y-129.542
X209.732Y-132.082
X209.732Y-134.622
T4
X130.039Y-61.739
X142.539Y-61.736
T5
X151.131Y-125.438
X151.131Y-127.978
X176.728Y-125.436
X176.728Y-127.976
T6
X113.74Y-79.0
X113.74Y-81.5
X113.74Y-84.0
T7
X133.936Y-67.493
X133.936Y-70.033
X133.936Y-72.573
X133.936Y-75.113
X133.936Y-77.653
X133.936Y-80.193
X133.936Y-82.733
X133.936Y-85.273
X133.936Y-87.813
X133.936Y-90.353
X133.936Y-92.893
X133.936Y-95.433
X133.936Y-97.973
X133.936Y-100.513
X133.936Y-103.053
X133.936Y-105.593
X133.936Y-108.133
X133.936Y-110.673
X133.936Y-113.213
X133.936Y-115.753
X149.176Y-67.493
X149.176Y-70.033
X149.176Y-72.573
X149.176Y-75.113
X149.176Y-77.653
X149.176Y-80.193
X149.176Y-82.733
X149.176Y-85.273
X149.176Y-87.813
X149.176Y-90.353
X149.176Y-92.893
X149.176Y-95.433
X149.176Y-97.973
X149.176Y-100.513
X149.176Y-103.053
X149.176Y-105.593
X149.176Y-108.133
X149.176Y-110.673
X149.176Y-113.213
X149.176Y-115.753
T8
X80.241Y-73.336
X81.033Y-82.694
X81.033Y-85.234
X81.033Y-87.774
X81.033Y-90.314
X81.033Y-92.854
X81.033Y-95.394
X81.033Y-97.934
X82.781Y-73.336
X120.237Y-71.598
X120.237Y-74.138
X120.237Y-76.678
X127.857Y-71.598
X127.857Y-74.138
X127.857Y-76.678
X163.235Y-52.35
X163.235Y-54.89
X163.235Y-57.43
X163.235Y-59.97
X173.256Y-52.352
X173.256Y-54.892
X173.256Y-57.432
X173.256Y-59.972
X183.979Y-57.443
X183.98Y-53.708
X187.239Y-59.474
X190.48Y-57.445
X190.482Y-53.69
X202.433Y-55.946
X202.433Y-58.486
X212.732Y-55.945
X212.732Y-58.485
X216.069Y-116.535
X218.475Y-88.947
X218.475Y-91.717
X218.475Y-94.487
X218.475Y-97.257
X218.475Y-100.027
X218.609Y-116.535
X221.149Y-116.535
X221.315Y-90.332
X221.315Y-93.102
X221.315Y-95.872
X221.315Y-98.642
X223.689Y-116.535
X226.229Y-116.535
T9
X88.433Y-119.693
X88.434Y-121.721
X88.438Y-125.646
T10
X109.232Y-71.944
X111.772Y-71.944
X114.312Y-71.944
T12
X148.445Y-61.811
X152.145Y-59.311
X218.532Y-74.497
X222.232Y-71.997
T13
X219.895Y-81.987
X219.895Y-106.987
T14
X146.145Y-56.511
X216.232Y-69.197
T15
X111.766Y-52.662
T11
G00X181.022Y-54.891
M15
G01X181.022Y-56.391
M16
G05
G00X193.522Y-54.923
M15
G01X193.522Y-56.423
M16
G05
T0
M30
