%TF.GenerationSoftware,KiCad,Pcbnew,(6.0.2)*%
%TF.CreationDate,2022-06-17T14:25:20-05:00*%
%TF.ProjectId,Snap_Station,536e6170-5f53-4746-9174-696f6e2e6b69,rev?*%
%TF.SameCoordinates,Original*%
%TF.FileFunction,Soldermask,Bot*%
%TF.FilePolarity,Negative*%
%FSLAX46Y46*%
G04 Gerber Fmt 4.6, Leading zero omitted, Abs format (unit mm)*
G04 Created by KiCad (PCBNEW (6.0.2)) date 2022-06-17 14:25:20*
%MOMM*%
%LPD*%
G01*
G04 APERTURE LIST*
%ADD10C,1.830000*%
%ADD11O,2.250000X3.750000*%
%ADD12C,3.200000*%
%ADD13C,4.000000*%
%ADD14R,1.600000X1.600000*%
%ADD15C,1.600000*%
%ADD16R,1.700000X1.700000*%
%ADD17O,1.700000X1.700000*%
%ADD18C,4.500000*%
%ADD19R,1.485900X1.485900*%
%ADD20C,1.485900*%
%ADD21R,1.905000X2.000000*%
%ADD22O,1.905000X2.000000*%
%ADD23C,5.385000*%
%ADD24C,4.295000*%
%ADD25C,1.365000*%
%ADD26C,1.493000*%
%ADD27C,1.500000*%
%ADD28C,1.247000*%
%ADD29C,1.700000*%
%ADD30C,1.200000*%
%ADD31R,1.800000X1.800000*%
%ADD32C,1.800000*%
G04 APERTURE END LIST*
D10*
%TO.C,J4*%
X183980000Y-53708000D03*
X183979000Y-57443000D03*
X187239000Y-59474000D03*
X190480000Y-57445000D03*
X190482000Y-53690000D03*
D11*
X181022000Y-55641000D03*
X193522000Y-55673000D03*
%TD*%
D12*
%TO.C,Hole3*%
X83884000Y-141793000D03*
%TD*%
D13*
%TO.C,P1*%
X219895000Y-106987000D03*
X219895000Y-81987000D03*
D14*
X218475000Y-100027000D03*
D15*
X218475000Y-97257000D03*
X218475000Y-94487000D03*
X218475000Y-91717000D03*
X218475000Y-88947000D03*
X221315000Y-98642000D03*
X221315000Y-95872000D03*
X221315000Y-93102000D03*
X221315000Y-90332000D03*
%TD*%
D16*
%TO.C,J14*%
X163235000Y-52350000D03*
D17*
X163235000Y-54890000D03*
X163235000Y-57430000D03*
X163235000Y-59970000D03*
%TD*%
D18*
%TO.C,7805Gnd*%
X111766000Y-52662000D03*
%TD*%
D19*
%TO.C,U4*%
X133936000Y-67493000D03*
D20*
X133936000Y-70033000D03*
X133936000Y-72573000D03*
X133936000Y-75113000D03*
X133936000Y-77653000D03*
X133936000Y-80193000D03*
X133936000Y-82733000D03*
X133936000Y-85273000D03*
X133936000Y-87813000D03*
X133936000Y-90353000D03*
X133936000Y-92893000D03*
X133936000Y-95433000D03*
X133936000Y-97973000D03*
X133936000Y-100513000D03*
X133936000Y-103053000D03*
X133936000Y-105593000D03*
X133936000Y-108133000D03*
X133936000Y-110673000D03*
X133936000Y-113213000D03*
X133936000Y-115753000D03*
X149176000Y-115753000D03*
X149176000Y-113213000D03*
X149176000Y-110673000D03*
X149176000Y-108133000D03*
X149176000Y-105593000D03*
X149176000Y-103053000D03*
X149176000Y-100513000D03*
X149176000Y-97973000D03*
X149176000Y-95433000D03*
X149176000Y-92893000D03*
X149176000Y-90353000D03*
X149176000Y-87813000D03*
X149176000Y-85273000D03*
X149176000Y-82733000D03*
X149176000Y-80193000D03*
X149176000Y-77653000D03*
X149176000Y-75113000D03*
X149176000Y-72573000D03*
X149176000Y-70033000D03*
X149176000Y-67493000D03*
%TD*%
D21*
%TO.C,U10*%
X109232000Y-71944000D03*
D22*
X111772000Y-71944000D03*
X114312000Y-71944000D03*
%TD*%
D23*
%TO.C,J6*%
X146145000Y-56511000D03*
D24*
X148445000Y-61811000D03*
X152145000Y-59311000D03*
%TD*%
D25*
%TO.C,F1*%
X130039000Y-61739000D03*
X142539000Y-61736000D03*
%TD*%
D16*
%TO.C,J2*%
X202433000Y-55946000D03*
D17*
X202433000Y-58486000D03*
%TD*%
D12*
%TO.C,Hole1*%
X83883000Y-55346000D03*
%TD*%
D16*
%TO.C,J16*%
X216069000Y-116535000D03*
D17*
X218609000Y-116535000D03*
X221149000Y-116535000D03*
X223689000Y-116535000D03*
X226229000Y-116535000D03*
%TD*%
D12*
%TO.C,Hole2*%
X221080000Y-55346000D03*
%TD*%
D26*
%TO.C,U3*%
X113740000Y-79000000D03*
X113740000Y-81500000D03*
X113740000Y-84000000D03*
%TD*%
D27*
%TO.C,S1*%
X120237000Y-71598000D03*
X120237000Y-74138000D03*
X120237000Y-76678000D03*
X127857000Y-76678000D03*
X127857000Y-74138000D03*
X127857000Y-71598000D03*
%TD*%
D12*
%TO.C,Hole4*%
X221083000Y-141794000D03*
%TD*%
D16*
%TO.C,J13*%
X212732000Y-55945000D03*
D17*
X212732000Y-58485000D03*
%TD*%
D16*
%TO.C,J11*%
X82781000Y-73336000D03*
D17*
X80241000Y-73336000D03*
%TD*%
D23*
%TO.C,J12*%
X216232000Y-69197000D03*
D24*
X218532000Y-74497000D03*
X222232000Y-71997000D03*
%TD*%
D28*
%TO.C,Y1*%
X121686000Y-95044000D03*
X126566000Y-95044000D03*
%TD*%
D29*
%TO.C,J3*%
X88433000Y-119693000D03*
X88434000Y-121721000D03*
X88438000Y-125646000D03*
%TD*%
D16*
%TO.C,J15*%
X81033000Y-82694000D03*
D17*
X81033000Y-85234000D03*
X81033000Y-87774000D03*
X81033000Y-90314000D03*
X81033000Y-92854000D03*
X81033000Y-95394000D03*
X81033000Y-97934000D03*
%TD*%
D16*
%TO.C,J8*%
X173256000Y-52352000D03*
D17*
X173256000Y-54892000D03*
X173256000Y-57432000D03*
X173256000Y-59972000D03*
%TD*%
D30*
%TO.C,D2*%
X209732000Y-116842000D03*
X209732000Y-119382000D03*
X209732000Y-121922000D03*
X209732000Y-124462000D03*
X209732000Y-127002000D03*
X209732000Y-129542000D03*
X209732000Y-132082000D03*
X209732000Y-134622000D03*
X194492000Y-134622000D03*
X194492000Y-132082000D03*
X194492000Y-129542000D03*
X194492000Y-127002000D03*
X194492000Y-124462000D03*
X194492000Y-121922000D03*
X194492000Y-119382000D03*
X194492000Y-116842000D03*
%TD*%
D31*
%TO.C,D6*%
X176728000Y-125436000D03*
D32*
X176728000Y-127976000D03*
%TD*%
D31*
%TO.C,D23*%
X151131000Y-125438000D03*
D32*
X151131000Y-127978000D03*
%TD*%
M02*
