%TF.GenerationSoftware,KiCad,Pcbnew,(6.0.2)*%
%TF.CreationDate,2022-07-07T23:03:13-05:00*%
%TF.ProjectId,Snap_Station,536e6170-5f53-4746-9174-696f6e2e6b69,rev?*%
%TF.SameCoordinates,Original*%
%TF.FileFunction,Soldermask,Top*%
%TF.FilePolarity,Negative*%
%FSLAX46Y46*%
G04 Gerber Fmt 4.6, Leading zero omitted, Abs format (unit mm)*
G04 Created by KiCad (PCBNEW (6.0.2)) date 2022-07-07 23:03:13*
%MOMM*%
%LPD*%
G01*
G04 APERTURE LIST*
G04 Aperture macros list*
%AMRoundRect*
0 Rectangle with rounded corners*
0 $1 Rounding radius*
0 $2 $3 $4 $5 $6 $7 $8 $9 X,Y pos of 4 corners*
0 Add a 4 corners polygon primitive as box body*
4,1,4,$2,$3,$4,$5,$6,$7,$8,$9,$2,$3,0*
0 Add four circle primitives for the rounded corners*
1,1,$1+$1,$2,$3*
1,1,$1+$1,$4,$5*
1,1,$1+$1,$6,$7*
1,1,$1+$1,$8,$9*
0 Add four rect primitives between the rounded corners*
20,1,$1+$1,$2,$3,$4,$5,0*
20,1,$1+$1,$4,$5,$6,$7,0*
20,1,$1+$1,$6,$7,$8,$9,0*
20,1,$1+$1,$8,$9,$2,$3,0*%
G04 Aperture macros list end*
%ADD10C,0.120000*%
%ADD11RoundRect,0.250000X-0.337500X-0.475000X0.337500X-0.475000X0.337500X0.475000X-0.337500X0.475000X0*%
%ADD12RoundRect,0.250000X-0.350000X-0.450000X0.350000X-0.450000X0.350000X0.450000X-0.350000X0.450000X0*%
%ADD13C,1.830000*%
%ADD14O,2.250000X3.750000*%
%ADD15R,2.740000X0.680000*%
%ADD16R,0.680000X2.740000*%
%ADD17C,3.200000*%
%ADD18RoundRect,0.250000X0.350000X0.450000X-0.350000X0.450000X-0.350000X-0.450000X0.350000X-0.450000X0*%
%ADD19R,1.925000X0.650000*%
%ADD20RoundRect,0.250000X0.550000X-1.500000X0.550000X1.500000X-0.550000X1.500000X-0.550000X-1.500000X0*%
%ADD21C,4.000000*%
%ADD22R,1.600000X1.600000*%
%ADD23C,1.600000*%
%ADD24R,1.700000X1.700000*%
%ADD25O,1.700000X1.700000*%
%ADD26RoundRect,0.150000X-0.150000X0.587500X-0.150000X-0.587500X0.150000X-0.587500X0.150000X0.587500X0*%
%ADD27C,4.500000*%
%ADD28R,1.485900X1.485900*%
%ADD29C,1.485900*%
%ADD30R,1.905000X2.000000*%
%ADD31O,1.905000X2.000000*%
%ADD32C,5.385000*%
%ADD33C,4.295000*%
%ADD34C,1.365000*%
%ADD35C,1.493000*%
%ADD36C,1.500000*%
%ADD37R,1.550000X0.700000*%
%ADD38R,2.000000X0.700000*%
%ADD39C,1.247000*%
%ADD40R,0.600000X1.200000*%
%ADD41C,1.700000*%
%ADD42C,1.200000*%
%ADD43R,1.800000X1.800000*%
%ADD44C,1.800000*%
G04 APERTURE END LIST*
D10*
%TO.C,*%
X124502963Y-55899683D02*
X118502963Y-61649683D01*
X118502963Y-61649683D02*
X105002963Y-61649683D01*
X105002963Y-61649683D02*
X99002963Y-55899683D01*
X99002963Y-55899683D02*
X98970963Y-49409683D01*
X98970963Y-49409683D02*
X124502963Y-49399683D01*
X124502963Y-49399683D02*
X124502963Y-55899683D01*
G36*
X124502963Y-55899683D02*
G01*
X118502963Y-61649683D01*
X105002963Y-61649683D01*
X99002963Y-55899683D01*
X98970963Y-49409683D01*
X124502963Y-49399683D01*
X124502963Y-55899683D01*
G37*
X124502963Y-55899683D02*
X118502963Y-61649683D01*
X105002963Y-61649683D01*
X99002963Y-55899683D01*
X98970963Y-49409683D01*
X124502963Y-49399683D01*
X124502963Y-55899683D01*
%TD*%
D11*
%TO.C,C8*%
X98203500Y-123700000D03*
X100278500Y-123700000D03*
%TD*%
D12*
%TO.C,R25*%
X154230000Y-78694000D03*
X156230000Y-78694000D03*
%TD*%
%TO.C,R23*%
X120236000Y-127736000D03*
X122236000Y-127736000D03*
%TD*%
%TO.C,R30*%
X112734000Y-90195000D03*
X114734000Y-90195000D03*
%TD*%
%TO.C,R29*%
X106234000Y-87395000D03*
X108234000Y-87395000D03*
%TD*%
%TO.C,R26*%
X154231000Y-76196000D03*
X156231000Y-76196000D03*
%TD*%
%TO.C,R59*%
X204827000Y-67946000D03*
X206827000Y-67946000D03*
%TD*%
%TO.C,R57*%
X120235000Y-121439000D03*
X122235000Y-121439000D03*
%TD*%
%TO.C,R67*%
X107733000Y-130444000D03*
X109733000Y-130444000D03*
%TD*%
D13*
%TO.C,J4*%
X183980000Y-53708000D03*
X183979000Y-57443000D03*
X187239000Y-59474000D03*
X190480000Y-57445000D03*
X190482000Y-53690000D03*
D14*
X181022000Y-55641000D03*
X193522000Y-55673000D03*
%TD*%
D12*
%TO.C,R55*%
X177732000Y-76194000D03*
X179732000Y-76194000D03*
%TD*%
D15*
%TO.C,U5*%
X98538000Y-97443000D03*
X98535000Y-98435000D03*
X98535000Y-99427000D03*
X98535000Y-100458000D03*
X98534000Y-101454000D03*
X98534000Y-102446000D03*
X98534000Y-103394000D03*
X98533000Y-104387000D03*
X98536000Y-105379000D03*
X98533000Y-106409000D03*
X98530000Y-107444000D03*
X98534000Y-108435000D03*
X98535000Y-109428000D03*
X98534000Y-110420000D03*
X98535000Y-111412000D03*
X98533000Y-112446000D03*
X98534000Y-113435000D03*
X98534000Y-114428000D03*
X98535000Y-115458000D03*
D16*
X101273000Y-118391000D03*
X102263000Y-118391000D03*
X103296000Y-118389000D03*
X104289000Y-118389000D03*
X105320000Y-118389000D03*
X106314000Y-118392000D03*
X107307000Y-118388000D03*
X108337000Y-118392000D03*
X109328000Y-118390000D03*
X110320000Y-118389000D03*
X111311000Y-118392000D03*
X112346000Y-118389000D03*
X113374000Y-118391000D03*
D15*
X115996000Y-115482000D03*
X115996000Y-114448000D03*
X115996000Y-113456000D03*
X115996000Y-112462000D03*
X115995000Y-111432000D03*
X115996000Y-110439000D03*
X115993000Y-109449000D03*
X115995000Y-108456000D03*
X115997000Y-107464000D03*
X115995000Y-106431000D03*
X115995000Y-105402000D03*
X115995000Y-104407000D03*
X115997000Y-103414000D03*
X115996000Y-102461000D03*
X115998000Y-101474000D03*
X116000000Y-100477000D03*
X116000000Y-99447000D03*
X116000000Y-98453000D03*
X115995000Y-97461000D03*
D16*
X113379000Y-94526000D03*
X112342000Y-94522000D03*
X111315000Y-94527000D03*
X110317000Y-94522000D03*
X109327000Y-94522000D03*
X108334000Y-94523000D03*
X107304000Y-94526000D03*
X106310000Y-94523000D03*
X105320000Y-94526000D03*
X104290000Y-94523000D03*
X103294000Y-94523000D03*
X102265000Y-94522000D03*
X101271000Y-94522000D03*
%TD*%
D11*
%TO.C,C10*%
X140698500Y-122138000D03*
X142773500Y-122138000D03*
%TD*%
D17*
%TO.C,Hole3*%
X83884000Y-141793000D03*
%TD*%
D18*
%TO.C,R74*%
X156225000Y-86198000D03*
X154225000Y-86198000D03*
%TD*%
D19*
%TO.C,U11*%
X190129000Y-74498000D03*
X190129000Y-75768000D03*
X190129000Y-77038000D03*
X190129000Y-78308000D03*
X190129000Y-79578000D03*
X190129000Y-80848000D03*
X190129000Y-82118000D03*
X190129000Y-83388000D03*
X199553000Y-83388000D03*
X199553000Y-82118000D03*
X199553000Y-80848000D03*
X199553000Y-79578000D03*
X199553000Y-78308000D03*
X199553000Y-77038000D03*
X199553000Y-75768000D03*
X199553000Y-74498000D03*
%TD*%
D20*
%TO.C,C14*%
X124984000Y-65447000D03*
X124984000Y-60047000D03*
%TD*%
D11*
%TO.C,C23*%
X96195500Y-139943000D03*
X98270500Y-139943000D03*
%TD*%
D12*
%TO.C,R70*%
X88236000Y-132439000D03*
X90236000Y-132439000D03*
%TD*%
D21*
%TO.C,P1*%
X219895000Y-106987000D03*
X219895000Y-81987000D03*
D22*
X218475000Y-100027000D03*
D23*
X218475000Y-97257000D03*
X218475000Y-94487000D03*
X218475000Y-91717000D03*
X218475000Y-88947000D03*
X221315000Y-98642000D03*
X221315000Y-95872000D03*
X221315000Y-93102000D03*
X221315000Y-90332000D03*
%TD*%
D24*
%TO.C,J14*%
X163235000Y-52350000D03*
D25*
X163235000Y-54890000D03*
X163235000Y-57430000D03*
X163235000Y-59970000D03*
%TD*%
D26*
%TO.C,D9*%
X169333000Y-65199000D03*
X167433000Y-65199000D03*
X168383000Y-67074000D03*
%TD*%
D12*
%TO.C,R45*%
X154231000Y-71195000D03*
X156231000Y-71195000D03*
%TD*%
D11*
%TO.C,C3*%
X120699500Y-106441000D03*
X122774500Y-106441000D03*
%TD*%
D27*
%TO.C,7805Gnd*%
X111766000Y-52662000D03*
%TD*%
D12*
%TO.C,R14*%
X163733000Y-74195000D03*
X165733000Y-74195000D03*
%TD*%
D28*
%TO.C,U4*%
X133936000Y-67493000D03*
D29*
X133936000Y-70033000D03*
X133936000Y-72573000D03*
X133936000Y-75113000D03*
X133936000Y-77653000D03*
X133936000Y-80193000D03*
X133936000Y-82733000D03*
X133936000Y-85273000D03*
X133936000Y-87813000D03*
X133936000Y-90353000D03*
X133936000Y-92893000D03*
X133936000Y-95433000D03*
X133936000Y-97973000D03*
X133936000Y-100513000D03*
X133936000Y-103053000D03*
X133936000Y-105593000D03*
X133936000Y-108133000D03*
X133936000Y-110673000D03*
X133936000Y-113213000D03*
X133936000Y-115753000D03*
X149176000Y-115753000D03*
X149176000Y-113213000D03*
X149176000Y-110673000D03*
X149176000Y-108133000D03*
X149176000Y-105593000D03*
X149176000Y-103053000D03*
X149176000Y-100513000D03*
X149176000Y-97973000D03*
X149176000Y-95433000D03*
X149176000Y-92893000D03*
X149176000Y-90353000D03*
X149176000Y-87813000D03*
X149176000Y-85273000D03*
X149176000Y-82733000D03*
X149176000Y-80193000D03*
X149176000Y-77653000D03*
X149176000Y-75113000D03*
X149176000Y-72573000D03*
X149176000Y-70033000D03*
X149176000Y-67493000D03*
%TD*%
D30*
%TO.C,U10*%
X109232000Y-71944000D03*
D31*
X111772000Y-71944000D03*
X114312000Y-71944000D03*
%TD*%
D32*
%TO.C,J6*%
X146145000Y-56511000D03*
D33*
X148445000Y-61811000D03*
X152145000Y-59311000D03*
%TD*%
D12*
%TO.C,R77*%
X129730000Y-67695000D03*
X131730000Y-67695000D03*
%TD*%
D34*
%TO.C,F1*%
X130039000Y-61739000D03*
X142539000Y-61736000D03*
%TD*%
D12*
%TO.C,R42*%
X154233000Y-66192000D03*
X156233000Y-66192000D03*
%TD*%
D26*
%TO.C,D20*%
X179578000Y-65201000D03*
X177678000Y-65201000D03*
X178628000Y-67076000D03*
%TD*%
D11*
%TO.C,C24*%
X163703500Y-71439000D03*
X165778500Y-71439000D03*
%TD*%
D12*
%TO.C,R41*%
X107735000Y-127444000D03*
X109735000Y-127444000D03*
%TD*%
%TO.C,R64*%
X136933000Y-140443000D03*
X138933000Y-140443000D03*
%TD*%
%TO.C,R60*%
X154232000Y-81197000D03*
X156232000Y-81197000D03*
%TD*%
%TO.C,R43*%
X154233000Y-73698000D03*
X156233000Y-73698000D03*
%TD*%
%TO.C,R12*%
X186582000Y-119593000D03*
X188582000Y-119593000D03*
%TD*%
D24*
%TO.C,J2*%
X202433000Y-55946000D03*
D25*
X202433000Y-58486000D03*
%TD*%
D26*
%TO.C,D7*%
X131167000Y-134788000D03*
X129267000Y-134788000D03*
X130217000Y-136663000D03*
%TD*%
D17*
%TO.C,Hole1*%
X83883000Y-55346000D03*
%TD*%
D12*
%TO.C,R18*%
X175730000Y-132444000D03*
X177730000Y-132444000D03*
%TD*%
D24*
%TO.C,J16*%
X216069000Y-116535000D03*
D25*
X218609000Y-116535000D03*
X221149000Y-116535000D03*
X223689000Y-116535000D03*
X226229000Y-116535000D03*
%TD*%
D26*
%TO.C,D13*%
X187129000Y-94700000D03*
X185229000Y-94700000D03*
X186179000Y-96575000D03*
%TD*%
D12*
%TO.C,R34*%
X120736000Y-114103000D03*
X122736000Y-114103000D03*
%TD*%
D11*
%TO.C,C9*%
X120679500Y-111542000D03*
X122754500Y-111542000D03*
%TD*%
%TO.C,C18*%
X204783500Y-77494000D03*
X206858500Y-77494000D03*
%TD*%
D17*
%TO.C,Hole2*%
X221080000Y-55346000D03*
%TD*%
D12*
%TO.C,R56*%
X120235000Y-124434000D03*
X122235000Y-124434000D03*
%TD*%
%TO.C,R24*%
X120233000Y-130935000D03*
X122233000Y-130935000D03*
%TD*%
D35*
%TO.C,U3*%
X113740000Y-79000000D03*
X113740000Y-81500000D03*
X113740000Y-84000000D03*
%TD*%
D26*
%TO.C,D22*%
X122384000Y-139038000D03*
X120484000Y-139038000D03*
X121434000Y-140913000D03*
%TD*%
D11*
%TO.C,C21*%
X204789500Y-80698000D03*
X206864500Y-80698000D03*
%TD*%
D26*
%TO.C,D16*%
X122334000Y-134191000D03*
X120434000Y-134191000D03*
X121384000Y-136066000D03*
%TD*%
D12*
%TO.C,R63*%
X107734000Y-139944000D03*
X109734000Y-139944000D03*
%TD*%
%TO.C,R68*%
X107733000Y-133444000D03*
X109733000Y-133444000D03*
%TD*%
%TO.C,R33*%
X154230000Y-115695000D03*
X156230000Y-115695000D03*
%TD*%
D11*
%TO.C,C1*%
X200891500Y-96500000D03*
X202966500Y-96500000D03*
%TD*%
%TO.C,C19*%
X204795500Y-74195000D03*
X206870500Y-74195000D03*
%TD*%
D36*
%TO.C,S1*%
X120237000Y-71598000D03*
X120237000Y-74138000D03*
X120237000Y-76678000D03*
X127857000Y-76678000D03*
X127857000Y-74138000D03*
X127857000Y-71598000D03*
%TD*%
D12*
%TO.C,R72*%
X120238000Y-118190000D03*
X122238000Y-118190000D03*
%TD*%
D37*
%TO.C,U1*%
X198922000Y-99941000D03*
X198922000Y-101211000D03*
X198922000Y-102481000D03*
X198922000Y-103751000D03*
X198922000Y-105021000D03*
X198922000Y-106291000D03*
X198922000Y-107561000D03*
X198922000Y-108831000D03*
X204372000Y-108831000D03*
X204372000Y-107561000D03*
X204372000Y-106291000D03*
X204372000Y-105021000D03*
X204372000Y-103751000D03*
X204372000Y-102481000D03*
X204372000Y-101211000D03*
X204372000Y-99941000D03*
%TD*%
D12*
%TO.C,R36*%
X154233000Y-95196000D03*
X156233000Y-95196000D03*
%TD*%
%TO.C,R50*%
X154231000Y-105696000D03*
X156231000Y-105696000D03*
%TD*%
%TO.C,R47*%
X182731000Y-107439000D03*
X184731000Y-107439000D03*
%TD*%
%TO.C,R71*%
X88242000Y-129136000D03*
X90242000Y-129136000D03*
%TD*%
%TO.C,R62*%
X170727000Y-104440000D03*
X172727000Y-104440000D03*
%TD*%
%TO.C,R73*%
X107734000Y-124443000D03*
X109734000Y-124443000D03*
%TD*%
%TO.C,R48*%
X154233000Y-113195000D03*
X156233000Y-113195000D03*
%TD*%
D11*
%TO.C,C25*%
X204790500Y-61700000D03*
X206865500Y-61700000D03*
%TD*%
D12*
%TO.C,R2*%
X186583000Y-117143000D03*
X188583000Y-117143000D03*
%TD*%
%TO.C,R44*%
X154231000Y-68695000D03*
X156231000Y-68695000D03*
%TD*%
D11*
%TO.C,C20*%
X204795500Y-83797000D03*
X206870500Y-83797000D03*
%TD*%
D17*
%TO.C,Hole4*%
X221083000Y-141794000D03*
%TD*%
D26*
%TO.C,D19*%
X174329000Y-65198000D03*
X172429000Y-65198000D03*
X173379000Y-67073000D03*
%TD*%
D12*
%TO.C,R19*%
X214430000Y-124644000D03*
X216430000Y-124644000D03*
%TD*%
%TO.C,R40*%
X120733000Y-101136000D03*
X122733000Y-101136000D03*
%TD*%
%TO.C,R4*%
X214432000Y-122144000D03*
X216432000Y-122144000D03*
%TD*%
D11*
%TO.C,C7*%
X99696500Y-77701000D03*
X101771500Y-77701000D03*
%TD*%
D12*
%TO.C,R37*%
X154232000Y-97696000D03*
X156232000Y-97696000D03*
%TD*%
D11*
%TO.C,C6*%
X120702500Y-96699000D03*
X122777500Y-96699000D03*
%TD*%
D24*
%TO.C,J13*%
X212732000Y-55945000D03*
D25*
X212732000Y-58485000D03*
%TD*%
D12*
%TO.C,R8*%
X214432000Y-132194000D03*
X216432000Y-132194000D03*
%TD*%
%TO.C,R69*%
X107736000Y-136936000D03*
X109736000Y-136936000D03*
%TD*%
D38*
%TO.C,U13*%
X97005000Y-80348000D03*
X97006000Y-81615000D03*
X97000000Y-82929000D03*
X97007000Y-84155000D03*
X97007000Y-85466000D03*
X97006000Y-86738000D03*
X97008000Y-88048000D03*
X102721000Y-88050000D03*
X102721000Y-86739000D03*
X102719000Y-85469000D03*
X102723000Y-84157000D03*
X102722000Y-82931000D03*
X102721000Y-81623000D03*
X102721000Y-80351000D03*
%TD*%
D12*
%TO.C,R46*%
X154228000Y-110694000D03*
X156228000Y-110694000D03*
%TD*%
D24*
%TO.C,J11*%
X82781000Y-73336000D03*
D25*
X80241000Y-73336000D03*
%TD*%
D32*
%TO.C,J12*%
X216232000Y-69197000D03*
D33*
X218532000Y-74497000D03*
X222232000Y-71997000D03*
%TD*%
D12*
%TO.C,R10*%
X186580000Y-124691000D03*
X188580000Y-124691000D03*
%TD*%
%TO.C,R76*%
X177732000Y-72194000D03*
X179732000Y-72194000D03*
%TD*%
D38*
%TO.C,U7*%
X127313000Y-122294000D03*
X127314000Y-123561000D03*
X127308000Y-124875000D03*
X127315000Y-126101000D03*
X127315000Y-127412000D03*
X127314000Y-128684000D03*
X127316000Y-129994000D03*
X133029000Y-129996000D03*
X133029000Y-128685000D03*
X133027000Y-127415000D03*
X133031000Y-126103000D03*
X133030000Y-124877000D03*
X133029000Y-123569000D03*
X133029000Y-122297000D03*
%TD*%
D11*
%TO.C,C5*%
X126698500Y-96694000D03*
X128773500Y-96694000D03*
%TD*%
D39*
%TO.C,Y1*%
X121686000Y-95044000D03*
X126566000Y-95044000D03*
%TD*%
D26*
%TO.C,D8*%
X198833000Y-64845000D03*
X196933000Y-64845000D03*
X197883000Y-66720000D03*
%TD*%
D12*
%TO.C,R6*%
X214432000Y-127043000D03*
X216432000Y-127043000D03*
%TD*%
%TO.C,R38*%
X154228000Y-100197000D03*
X156228000Y-100197000D03*
%TD*%
D26*
%TO.C,D10*%
X127700000Y-116993000D03*
X125800000Y-116993000D03*
X126750000Y-118868000D03*
%TD*%
D12*
%TO.C,R35*%
X154230000Y-108194000D03*
X156230000Y-108194000D03*
%TD*%
%TO.C,R39*%
X120733000Y-103908000D03*
X122733000Y-103908000D03*
%TD*%
D40*
%TO.C,Q1*%
X187961000Y-65212000D03*
X186061000Y-65212000D03*
X187011000Y-67412000D03*
%TD*%
D41*
%TO.C,J3*%
X88433000Y-119693000D03*
X88434000Y-121721000D03*
X88438000Y-125646000D03*
%TD*%
D12*
%TO.C,R21*%
X214432000Y-134644000D03*
X216432000Y-134644000D03*
%TD*%
D40*
%TO.C,Q2*%
X91935000Y-65073000D03*
X90035000Y-65073000D03*
X90985000Y-67273000D03*
%TD*%
D12*
%TO.C,R66*%
X106235000Y-81445000D03*
X108235000Y-81445000D03*
%TD*%
D26*
%TO.C,D21*%
X187631000Y-76696000D03*
X185731000Y-76696000D03*
X186681000Y-78571000D03*
%TD*%
%TO.C,D12*%
X191625000Y-94696000D03*
X189725000Y-94696000D03*
X190675000Y-96571000D03*
%TD*%
D12*
%TO.C,R54*%
X164981000Y-88439000D03*
X166981000Y-88439000D03*
%TD*%
D26*
%TO.C,D11*%
X164279000Y-65194000D03*
X162379000Y-65194000D03*
X163329000Y-67069000D03*
%TD*%
D12*
%TO.C,R28*%
X120736000Y-108980000D03*
X122736000Y-108980000D03*
%TD*%
%TO.C,R75*%
X204827000Y-64698000D03*
X206827000Y-64698000D03*
%TD*%
%TO.C,R58*%
X154228000Y-83699000D03*
X156228000Y-83699000D03*
%TD*%
D20*
%TO.C,C11*%
X99483000Y-73116000D03*
X99483000Y-67716000D03*
%TD*%
D38*
%TO.C,U6*%
X94335000Y-129316000D03*
X94336000Y-130583000D03*
X94330000Y-131897000D03*
X94337000Y-133123000D03*
X94337000Y-134434000D03*
X94336000Y-135706000D03*
X94338000Y-137016000D03*
X100051000Y-137018000D03*
X100051000Y-135707000D03*
X100049000Y-134437000D03*
X100053000Y-133125000D03*
X100052000Y-131899000D03*
X100051000Y-130591000D03*
X100051000Y-129319000D03*
%TD*%
D12*
%TO.C,R49*%
X182729000Y-104441000D03*
X184729000Y-104441000D03*
%TD*%
%TO.C,R32*%
X154233000Y-92698000D03*
X156233000Y-92698000D03*
%TD*%
D24*
%TO.C,J15*%
X81033000Y-82694000D03*
D25*
X81033000Y-85234000D03*
X81033000Y-87774000D03*
X81033000Y-90314000D03*
X81033000Y-92854000D03*
X81033000Y-95394000D03*
X81033000Y-97934000D03*
%TD*%
D12*
%TO.C,R31*%
X106233000Y-90195000D03*
X108233000Y-90195000D03*
%TD*%
D26*
%TO.C,D14*%
X182732000Y-94694000D03*
X180832000Y-94694000D03*
X181782000Y-96569000D03*
%TD*%
%TO.C,D1*%
X137138000Y-134789000D03*
X135238000Y-134789000D03*
X136188000Y-136664000D03*
%TD*%
D12*
%TO.C,R65*%
X149733000Y-132443000D03*
X151733000Y-132443000D03*
%TD*%
%TO.C,R1*%
X127936000Y-140436000D03*
X129936000Y-140436000D03*
%TD*%
D24*
%TO.C,J8*%
X173256000Y-52352000D03*
D25*
X173256000Y-54892000D03*
X173256000Y-57432000D03*
X173256000Y-59972000D03*
%TD*%
D11*
%TO.C,C26*%
X154190500Y-90196000D03*
X156265500Y-90196000D03*
%TD*%
%TO.C,C4*%
X85949500Y-104201000D03*
X88024500Y-104201000D03*
%TD*%
%TO.C,C22*%
X204794500Y-71194000D03*
X206869500Y-71194000D03*
%TD*%
D26*
%TO.C,D17*%
X87303000Y-65145000D03*
X85403000Y-65145000D03*
X86353000Y-67020000D03*
%TD*%
D42*
%TO.C,D2*%
X209732000Y-116842000D03*
X209732000Y-119382000D03*
X209732000Y-121922000D03*
X209732000Y-124462000D03*
X209732000Y-127002000D03*
X209732000Y-129542000D03*
X209732000Y-132082000D03*
X209732000Y-134622000D03*
X194492000Y-134622000D03*
X194492000Y-132082000D03*
X194492000Y-129542000D03*
X194492000Y-127002000D03*
X194492000Y-124462000D03*
X194492000Y-121922000D03*
X194492000Y-119382000D03*
X194492000Y-116842000D03*
%TD*%
D43*
%TO.C,D6*%
X176728000Y-125436000D03*
D44*
X176728000Y-127976000D03*
%TD*%
D43*
%TO.C,D23*%
X151131000Y-125438000D03*
D44*
X151131000Y-127978000D03*
%TD*%
M02*
