%TF.GenerationSoftware,KiCad,Pcbnew,(6.0.2)*%
%TF.CreationDate,2022-06-17T14:25:20-05:00*%
%TF.ProjectId,Snap_Station,536e6170-5f53-4746-9174-696f6e2e6b69,rev?*%
%TF.SameCoordinates,Original*%
%TF.FileFunction,Copper,L1,Top*%
%TF.FilePolarity,Positive*%
%FSLAX46Y46*%
G04 Gerber Fmt 4.6, Leading zero omitted, Abs format (unit mm)*
G04 Created by KiCad (PCBNEW (6.0.2)) date 2022-06-17 14:25:20*
%MOMM*%
%LPD*%
G01*
G04 APERTURE LIST*
G04 Aperture macros list*
%AMRoundRect*
0 Rectangle with rounded corners*
0 $1 Rounding radius*
0 $2 $3 $4 $5 $6 $7 $8 $9 X,Y pos of 4 corners*
0 Add a 4 corners polygon primitive as box body*
4,1,4,$2,$3,$4,$5,$6,$7,$8,$9,$2,$3,0*
0 Add four circle primitives for the rounded corners*
1,1,$1+$1,$2,$3*
1,1,$1+$1,$4,$5*
1,1,$1+$1,$6,$7*
1,1,$1+$1,$8,$9*
0 Add four rect primitives between the rounded corners*
20,1,$1+$1,$2,$3,$4,$5,0*
20,1,$1+$1,$4,$5,$6,$7,0*
20,1,$1+$1,$6,$7,$8,$9,0*
20,1,$1+$1,$8,$9,$2,$3,0*%
G04 Aperture macros list end*
%TA.AperFunction,EtchedComponent*%
%ADD10C,0.120000*%
%TD*%
%TA.AperFunction,SMDPad,CuDef*%
%ADD11RoundRect,0.250000X-0.337500X-0.475000X0.337500X-0.475000X0.337500X0.475000X-0.337500X0.475000X0*%
%TD*%
%TA.AperFunction,SMDPad,CuDef*%
%ADD12RoundRect,0.250000X-0.350000X-0.450000X0.350000X-0.450000X0.350000X0.450000X-0.350000X0.450000X0*%
%TD*%
%TA.AperFunction,ComponentPad*%
%ADD13C,1.830000*%
%TD*%
%TA.AperFunction,ComponentPad*%
%ADD14O,2.250000X3.750000*%
%TD*%
%TA.AperFunction,SMDPad,CuDef*%
%ADD15R,2.740000X0.680000*%
%TD*%
%TA.AperFunction,SMDPad,CuDef*%
%ADD16R,0.680000X2.740000*%
%TD*%
%TA.AperFunction,SMDPad,CuDef*%
%ADD17RoundRect,0.250000X0.350000X0.450000X-0.350000X0.450000X-0.350000X-0.450000X0.350000X-0.450000X0*%
%TD*%
%TA.AperFunction,SMDPad,CuDef*%
%ADD18R,1.925000X0.650000*%
%TD*%
%TA.AperFunction,SMDPad,CuDef*%
%ADD19RoundRect,0.250000X0.550000X-1.500000X0.550000X1.500000X-0.550000X1.500000X-0.550000X-1.500000X0*%
%TD*%
%TA.AperFunction,ComponentPad*%
%ADD20C,4.000000*%
%TD*%
%TA.AperFunction,ComponentPad*%
%ADD21R,1.600000X1.600000*%
%TD*%
%TA.AperFunction,ComponentPad*%
%ADD22C,1.600000*%
%TD*%
%TA.AperFunction,ComponentPad*%
%ADD23R,1.700000X1.700000*%
%TD*%
%TA.AperFunction,ComponentPad*%
%ADD24O,1.700000X1.700000*%
%TD*%
%TA.AperFunction,SMDPad,CuDef*%
%ADD25RoundRect,0.150000X-0.150000X0.587500X-0.150000X-0.587500X0.150000X-0.587500X0.150000X0.587500X0*%
%TD*%
%TA.AperFunction,ComponentPad*%
%ADD26C,4.500000*%
%TD*%
%TA.AperFunction,ComponentPad*%
%ADD27R,1.485900X1.485900*%
%TD*%
%TA.AperFunction,ComponentPad*%
%ADD28C,1.485900*%
%TD*%
%TA.AperFunction,ComponentPad*%
%ADD29R,1.905000X2.000000*%
%TD*%
%TA.AperFunction,ComponentPad*%
%ADD30O,1.905000X2.000000*%
%TD*%
%TA.AperFunction,ComponentPad*%
%ADD31C,5.385000*%
%TD*%
%TA.AperFunction,ComponentPad*%
%ADD32C,4.295000*%
%TD*%
%TA.AperFunction,ComponentPad*%
%ADD33C,1.365000*%
%TD*%
%TA.AperFunction,ComponentPad*%
%ADD34C,1.493000*%
%TD*%
%TA.AperFunction,ComponentPad*%
%ADD35C,1.500000*%
%TD*%
%TA.AperFunction,SMDPad,CuDef*%
%ADD36R,1.550000X0.700000*%
%TD*%
%TA.AperFunction,SMDPad,CuDef*%
%ADD37R,2.000000X0.700000*%
%TD*%
%TA.AperFunction,ComponentPad*%
%ADD38C,1.247000*%
%TD*%
%TA.AperFunction,SMDPad,CuDef*%
%ADD39R,0.600000X1.200000*%
%TD*%
%TA.AperFunction,ComponentPad*%
%ADD40C,1.700000*%
%TD*%
%TA.AperFunction,ComponentPad*%
%ADD41C,1.200000*%
%TD*%
%TA.AperFunction,ComponentPad*%
%ADD42R,1.800000X1.800000*%
%TD*%
%TA.AperFunction,ComponentPad*%
%ADD43C,1.800000*%
%TD*%
%TA.AperFunction,ViaPad*%
%ADD44C,0.800000*%
%TD*%
%TA.AperFunction,Conductor*%
%ADD45C,0.600000*%
%TD*%
%TA.AperFunction,Conductor*%
%ADD46C,0.250000*%
%TD*%
G04 APERTURE END LIST*
D10*
%TO.C,7805Gnd*%
X124504181Y-55902011D02*
X118504181Y-61652011D01*
X118504181Y-61652011D02*
X105004181Y-61652011D01*
X105004181Y-61652011D02*
X99004181Y-55902011D01*
X99004181Y-55902011D02*
X98972181Y-49412011D01*
X98972181Y-49412011D02*
X124504181Y-49402011D01*
X124504181Y-49402011D02*
X124504181Y-55902011D01*
G36*
X124504181Y-55902011D02*
G01*
X118504181Y-61652011D01*
X105004181Y-61652011D01*
X99004181Y-55902011D01*
X98972181Y-49412011D01*
X124504181Y-49402011D01*
X124504181Y-55902011D01*
G37*
X124504181Y-55902011D02*
X118504181Y-61652011D01*
X105004181Y-61652011D01*
X99004181Y-55902011D01*
X98972181Y-49412011D01*
X124504181Y-49402011D01*
X124504181Y-55902011D01*
%TD*%
D11*
%TO.P,C8,1*%
%TO.N,Wire33*%
X98203500Y-123700000D03*
%TO.P,C8,2*%
%TO.N,Wire9*%
X100278500Y-123700000D03*
%TD*%
D12*
%TO.P,R25,1*%
%TO.N,Wire25*%
X154230000Y-78694000D03*
%TO.P,R25,2*%
%TO.N,VCC*%
X156230000Y-78694000D03*
%TD*%
%TO.P,R23,1*%
%TO.N,Wire41*%
X120236000Y-127736000D03*
%TO.P,R23,2*%
%TO.N,VCC*%
X122236000Y-127736000D03*
%TD*%
%TO.P,R30,1*%
%TO.N,Wire22*%
X112734000Y-90195000D03*
%TO.P,R30,2*%
%TO.N,Wire21*%
X114734000Y-90195000D03*
%TD*%
%TO.P,R29,1*%
%TO.N,Wire19*%
X106234000Y-87395000D03*
%TO.P,R29,2*%
%TO.N,Wire18*%
X108234000Y-87395000D03*
%TD*%
%TO.P,R26,1*%
%TO.N,Wire26*%
X154231000Y-76196000D03*
%TO.P,R26,2*%
%TO.N,VCC*%
X156231000Y-76196000D03*
%TD*%
%TO.P,R59,1*%
%TO.N,Wire67*%
X204827000Y-67946000D03*
%TO.P,R59,2*%
%TO.N,VCC*%
X206827000Y-67946000D03*
%TD*%
%TO.P,R57,1*%
%TO.N,Wire13*%
X120235000Y-121439000D03*
%TO.P,R57,2*%
%TO.N,Wire40*%
X122235000Y-121439000D03*
%TD*%
%TO.P,R67,1*%
%TO.N,Wire35*%
X107733000Y-130444000D03*
%TO.P,R67,2*%
%TO.N,GND*%
X109733000Y-130444000D03*
%TD*%
D13*
%TO.P,J4,1,Pin_1*%
%TO.N,unconnected-(J4-Pad1)*%
X183980000Y-53708000D03*
%TO.P,J4,2,Pin_2*%
%TO.N,Wire46*%
X183979000Y-57443000D03*
%TO.P,J4,3,Pin_3*%
%TO.N,GND*%
X187239000Y-59474000D03*
%TO.P,J4,4,Pin_4*%
%TO.N,Wire44*%
X190480000Y-57445000D03*
%TO.P,J4,5,Pin_5*%
%TO.N,unconnected-(J4-Pad5)*%
X190482000Y-53690000D03*
D14*
%TO.P,J4,6*%
%TO.N,N/C*%
X181022000Y-55641000D03*
%TO.P,J4,7*%
X193522000Y-55673000D03*
%TD*%
D12*
%TO.P,R55,1*%
%TO.N,Wire7*%
X177732000Y-76194000D03*
%TO.P,R55,2*%
%TO.N,Wire6*%
X179732000Y-76194000D03*
%TD*%
D15*
%TO.P,U5,1,3v3_VCC*%
%TO.N,unconnected-(U5-Pad1)*%
X98538000Y-97443000D03*
%TO.P,U5,2,Right*%
%TO.N,unconnected-(U5-Pad2)*%
X98535000Y-98435000D03*
%TO.P,U5,3,Up*%
%TO.N,unconnected-(U5-Pad3)*%
X98535000Y-99427000D03*
%TO.P,U5,4,Left*%
%TO.N,unconnected-(U5-Pad4)*%
X98535000Y-100458000D03*
%TO.P,U5,5,Down*%
%TO.N,unconnected-(U5-Pad5)*%
X98534000Y-101454000D03*
%TO.P,U5,6,XA*%
%TO.N,GND*%
X98534000Y-102446000D03*
%TO.P,U5,7,XB*%
X98534000Y-103394000D03*
%TO.P,U5,8,YB*%
X98533000Y-104387000D03*
%TO.P,U5,9,YA*%
X98536000Y-105379000D03*
%TO.P,U5,10,3v3_VCC*%
%TO.N,Wire9*%
X98533000Y-106409000D03*
%TO.P,U5,11,Start*%
%TO.N,unconnected-(U5-Pad11)*%
X98530000Y-107444000D03*
%TO.P,U5,12,A*%
%TO.N,unconnected-(U5-Pad12)*%
X98534000Y-108435000D03*
%TO.P,U5,13,C_Down*%
%TO.N,unconnected-(U5-Pad13)*%
X98535000Y-109428000D03*
%TO.P,U5,14,C_Right*%
%TO.N,unconnected-(U5-Pad14)*%
X98534000Y-110420000D03*
%TO.P,U5,15,B*%
%TO.N,unconnected-(U5-Pad15)*%
X98535000Y-111412000D03*
%TO.P,U5,16,C_Left*%
%TO.N,unconnected-(U5-Pad16)*%
X98533000Y-112446000D03*
%TO.P,U5,17,C_Up*%
%TO.N,unconnected-(U5-Pad17)*%
X98534000Y-113435000D03*
%TO.P,U5,18,GND*%
%TO.N,GND*%
X98534000Y-114428000D03*
%TO.P,U5,19,GND*%
%TO.N,unconnected-(U5-Pad19)*%
X98535000Y-115458000D03*
D16*
%TO.P,U5,20,Z*%
%TO.N,unconnected-(U5-Pad20)*%
X101273000Y-118391000D03*
%TO.P,U5,21,R*%
%TO.N,unconnected-(U5-Pad21)*%
X102263000Y-118391000D03*
%TO.P,U5,22,Data*%
%TO.N,Wire150*%
X103296000Y-118389000D03*
%TO.P,U5,23,Data*%
X104289000Y-118389000D03*
%TO.P,U5,24,E24*%
%TO.N,unconnected-(U5-Pad24)*%
X105320000Y-118389000D03*
%TO.P,U5,25,E23*%
%TO.N,unconnected-(U5-Pad25)*%
X106314000Y-118392000D03*
%TO.P,U5,26,E22*%
%TO.N,unconnected-(U5-Pad26)*%
X107307000Y-118388000D03*
%TO.P,U5,27,E21*%
%TO.N,unconnected-(U5-Pad27)*%
X108337000Y-118392000D03*
%TO.P,U5,28,E20*%
%TO.N,Wire39*%
X109328000Y-118390000D03*
%TO.P,U5,29,E19*%
%TO.N,unconnected-(U5-Pad29)*%
X110320000Y-118389000D03*
%TO.P,U5,30,E18*%
%TO.N,unconnected-(U5-Pad30)*%
X111311000Y-118392000D03*
%TO.P,U5,31,E2*%
%TO.N,Wire34*%
X112346000Y-118389000D03*
%TO.P,U5,32,GND*%
%TO.N,GND*%
X113374000Y-118391000D03*
D15*
%TO.P,U5,33,3v3_VCC*%
%TO.N,Wire23*%
X115996000Y-115482000D03*
%TO.P,U5,34,E3*%
%TO.N,unconnected-(U5-Pad34)*%
X115996000Y-114448000D03*
%TO.P,U5,35,E4*%
%TO.N,unconnected-(U5-Pad35)*%
X115996000Y-113456000D03*
%TO.P,U5,36,E5*%
%TO.N,unconnected-(U5-Pad36)*%
X115996000Y-112462000D03*
%TO.P,U5,37,E6*%
%TO.N,unconnected-(U5-Pad37)*%
X115995000Y-111432000D03*
%TO.P,U5,38,E7*%
%TO.N,Wire16*%
X115996000Y-110439000D03*
%TO.P,U5,39,E8*%
%TO.N,Wire17*%
X115993000Y-109449000D03*
%TO.P,U5,40,3v3_VCC*%
%TO.N,Wire23*%
X115995000Y-108456000D03*
%TO.P,U5,41,E9*%
%TO.N,Wire37*%
X115997000Y-107464000D03*
%TO.P,U5,42,E10*%
%TO.N,Wire36*%
X115995000Y-106431000D03*
%TO.P,U5,43,E11*%
%TO.N,Wire35*%
X115995000Y-105402000D03*
%TO.P,U5,44,E12*%
%TO.N,Wire32*%
X115995000Y-104407000D03*
%TO.P,U5,45,E13*%
%TO.N,Wire30*%
X115997000Y-103414000D03*
%TO.P,U5,46,E14*%
%TO.N,Wire23*%
X115996000Y-102461000D03*
%TO.P,U5,47,E16*%
%TO.N,Wire61*%
X115998000Y-101474000D03*
%TO.P,U5,48,E32*%
%TO.N,Wire31*%
X116000000Y-100477000D03*
%TO.P,U5,49,E30*%
%TO.N,Wire54*%
X116000000Y-99447000D03*
%TO.P,U5,50,E29*%
%TO.N,Wire53*%
X116000000Y-98453000D03*
%TO.P,U5,51,E29*%
%TO.N,unconnected-(U5-Pad51)*%
X115995000Y-97461000D03*
D16*
%TO.P,U5,52,GND*%
%TO.N,GND*%
X113379000Y-94526000D03*
%TO.P,U5,53,E28*%
%TO.N,Wire52*%
X112342000Y-94522000D03*
%TO.P,U5,54,E27*%
%TO.N,Wire51*%
X111315000Y-94527000D03*
%TO.P,U5,55,E26*%
%TO.N,unconnected-(U5-Pad55)*%
X110317000Y-94522000D03*
%TO.P,U5,56,E25*%
%TO.N,Wire10*%
X109327000Y-94522000D03*
%TO.P,U5,57,GND*%
%TO.N,GND*%
X108334000Y-94523000D03*
%TO.P,U5,58,L*%
%TO.N,unconnected-(U5-Pad58)*%
X107304000Y-94526000D03*
%TO.P,U5,59,GND*%
%TO.N,unconnected-(U5-Pad59)*%
X106310000Y-94523000D03*
%TO.P,U5,60,N/C*%
%TO.N,Wire22*%
X105320000Y-94526000D03*
%TO.P,U5,61,GND*%
%TO.N,GND*%
X104290000Y-94523000D03*
%TO.P,U5,62,OSC1*%
%TO.N,Wire18*%
X103294000Y-94523000D03*
%TO.P,U5,63,OSC2*%
%TO.N,Wire20*%
X102265000Y-94522000D03*
%TO.P,U5,64,3v3_VCC*%
%TO.N,Wire9*%
X101271000Y-94522000D03*
%TD*%
D11*
%TO.P,C10,1*%
%TO.N,GND*%
X140698500Y-122138000D03*
%TO.P,C10,2*%
%TO.N,VCC*%
X142773500Y-122138000D03*
%TD*%
D17*
%TO.P,R74,1*%
%TO.N,Wire49*%
X156225000Y-86198000D03*
%TO.P,R74,2*%
%TO.N,Wire50*%
X154225000Y-86198000D03*
%TD*%
D18*
%TO.P,U11,1,C1+*%
%TO.N,Wire70*%
X190129000Y-74498000D03*
%TO.P,U11,2,VS+*%
%TO.N,Wire68*%
X190129000Y-75768000D03*
%TO.P,U11,3,C1-*%
%TO.N,Wire69*%
X190129000Y-77038000D03*
%TO.P,U11,4,C2+*%
%TO.N,Wire72*%
X190129000Y-78308000D03*
%TO.P,U11,5,C2-*%
%TO.N,Wire71*%
X190129000Y-79578000D03*
%TO.P,U11,6,VS-*%
%TO.N,Wire73*%
X190129000Y-80848000D03*
%TO.P,U11,7,T2OUT*%
%TO.N,unconnected-(U11-Pad7)*%
X190129000Y-82118000D03*
%TO.P,U11,8,R2IN*%
%TO.N,GND*%
X190129000Y-83388000D03*
%TO.P,U11,9,R2OUT*%
%TO.N,unconnected-(U11-Pad9)*%
X199553000Y-83388000D03*
%TO.P,U11,10,T2IN*%
%TO.N,GND*%
X199553000Y-82118000D03*
%TO.P,U11,11,T1IN*%
%TO.N,Wire55*%
X199553000Y-80848000D03*
%TO.P,U11,12,R1OUT*%
%TO.N,Wire82*%
X199553000Y-79578000D03*
%TO.P,U11,13,R1IN*%
%TO.N,Wire84*%
X199553000Y-78308000D03*
%TO.P,U11,14,T1OUT*%
%TO.N,Wire85*%
X199553000Y-77038000D03*
%TO.P,U11,15,GND*%
%TO.N,GND*%
X199553000Y-75768000D03*
%TO.P,U11,16,VCC*%
%TO.N,VCC*%
X199553000Y-74498000D03*
%TD*%
D19*
%TO.P,C14,1*%
%TO.N,Wire5*%
X124984000Y-65447000D03*
%TO.P,C14,2*%
%TO.N,GND*%
X124984000Y-60047000D03*
%TD*%
D11*
%TO.P,C23,1*%
%TO.N,VCC*%
X96195500Y-139943000D03*
%TO.P,C23,2*%
%TO.N,GND*%
X98270500Y-139943000D03*
%TD*%
D12*
%TO.P,R70,1*%
%TO.N,GND*%
X88236000Y-132439000D03*
%TO.P,R70,2*%
%TO.N,Wire17*%
X90236000Y-132439000D03*
%TD*%
D20*
%TO.P,P1,0*%
%TO.N,N/C*%
X219895000Y-106987000D03*
X219895000Y-81987000D03*
D21*
%TO.P,P1,1,1*%
%TO.N,unconnected-(P1-Pad1)*%
X218475000Y-100027000D03*
D22*
%TO.P,P1,2,2*%
%TO.N,Wire84*%
X218475000Y-97257000D03*
%TO.P,P1,3,3*%
%TO.N,Wire85*%
X218475000Y-94487000D03*
%TO.P,P1,4,4*%
%TO.N,unconnected-(P1-Pad4)*%
X218475000Y-91717000D03*
%TO.P,P1,5,5*%
%TO.N,GND*%
X218475000Y-88947000D03*
%TO.P,P1,6,6*%
%TO.N,unconnected-(P1-Pad6)*%
X221315000Y-98642000D03*
%TO.P,P1,7,7*%
%TO.N,unconnected-(P1-Pad7)*%
X221315000Y-95872000D03*
%TO.P,P1,8,8*%
%TO.N,unconnected-(P1-Pad8)*%
X221315000Y-93102000D03*
%TO.P,P1,9,9*%
%TO.N,unconnected-(P1-Pad9)*%
X221315000Y-90332000D03*
%TD*%
D23*
%TO.P,J14,1,Pin_1*%
%TO.N,VCC*%
X163235000Y-52350000D03*
D24*
%TO.P,J14,2,Pin_2*%
%TO.N,Wire49*%
X163235000Y-54890000D03*
%TO.P,J14,3,Pin_3*%
%TO.N,Wire48*%
X163235000Y-57430000D03*
%TO.P,J14,4,Pin_4*%
%TO.N,GND*%
X163235000Y-59970000D03*
%TD*%
D25*
%TO.P,D9,1,A1*%
%TO.N,GND*%
X169333000Y-65199000D03*
%TO.P,D9,2,A2*%
%TO.N,VCC*%
X167433000Y-65199000D03*
%TO.P,D9,3,common*%
%TO.N,Wire43*%
X168383000Y-67074000D03*
%TD*%
D12*
%TO.P,R45,1*%
%TO.N,Wire45*%
X154231000Y-71195000D03*
%TO.P,R45,2*%
%TO.N,Wire46*%
X156231000Y-71195000D03*
%TD*%
D11*
%TO.P,C3,1*%
%TO.N,GND*%
X120699500Y-106441000D03*
%TO.P,C3,2*%
%TO.N,Wire22*%
X122774500Y-106441000D03*
%TD*%
D26*
%TO.P,7805Gnd,1*%
%TO.N,GND*%
X111766000Y-52662000D03*
%TD*%
D12*
%TO.P,R14,1*%
%TO.N,Wire3*%
X163733000Y-74195000D03*
%TO.P,R14,2*%
%TO.N,Wire2*%
X165733000Y-74195000D03*
%TD*%
D27*
%TO.P,U4,1,~{MCLR/VPP}*%
%TO.N,Wire1*%
X133936000Y-67493000D03*
D28*
%TO.P,U4,2,RA0*%
%TO.N,Wire2*%
X133936000Y-70033000D03*
%TO.P,U4,3,RA1*%
%TO.N,Wire6*%
X133936000Y-72573000D03*
%TO.P,U4,4,RA2*%
%TO.N,Wire65*%
X133936000Y-75113000D03*
%TO.P,U4,5,RA3*%
%TO.N,Wire79*%
X133936000Y-77653000D03*
%TO.P,U4,6,RA4/T0CKI*%
%TO.N,Wire21*%
X133936000Y-80193000D03*
%TO.P,U4,7,RA5/~{SS}*%
%TO.N,Wire42*%
X133936000Y-82733000D03*
%TO.P,U4,8,RE0/~{RD}*%
%TO.N,Wire76*%
X133936000Y-85273000D03*
%TO.P,U4,9,RE1/~{WR}*%
%TO.N,Wire15*%
X133936000Y-87813000D03*
%TO.P,U4,10,RE2/~{CS}*%
%TO.N,Wire78*%
X133936000Y-90353000D03*
%TO.P,U4,11,VDD_2*%
%TO.N,VCC*%
X133936000Y-92893000D03*
%TO.P,U4,12,VSS_2*%
%TO.N,Wire28*%
X133936000Y-95433000D03*
%TO.P,U4,13,OSC1/CLKIN*%
%TO.N,Wire29*%
X133936000Y-97973000D03*
%TO.P,U4,14,OSC2/CLKOUT*%
%TO.N,Wire27*%
X133936000Y-100513000D03*
%TO.P,U4,15,RC0/T1OSO/T1CKI*%
%TO.N,Wire80*%
X133936000Y-103053000D03*
%TO.P,U4,16,RC1/T1OSI/CCP2*%
%TO.N,Wire81*%
X133936000Y-105593000D03*
%TO.P,U4,17,RC2/CCP1*%
%TO.N,Wire38*%
X133936000Y-108133000D03*
%TO.P,U4,18,RC3/SCK/SCL*%
%TO.N,Wire63*%
X133936000Y-110673000D03*
%TO.P,U4,19,RD0/PSP0*%
%TO.N,Wire32*%
X133936000Y-113213000D03*
%TO.P,U4,20,RD1/PSP1*%
%TO.N,Wire30*%
X133936000Y-115753000D03*
%TO.P,U4,21,RD2/PSP2*%
%TO.N,Wire61*%
X149176000Y-115753000D03*
%TO.P,U4,22,RD3/PSP3*%
%TO.N,Wire31*%
X149176000Y-113213000D03*
%TO.P,U4,23,RC4/SDI/SDA*%
%TO.N,Wire59*%
X149176000Y-110673000D03*
%TO.P,U4,24,RC5/SDO*%
%TO.N,Wire57*%
X149176000Y-108133000D03*
%TO.P,U4,25,RC6/TX/CK*%
%TO.N,Wire55*%
X149176000Y-105593000D03*
%TO.P,U4,26,RC7/RX/DT*%
%TO.N,Wire82*%
X149176000Y-103053000D03*
%TO.P,U4,27,RD4/PSP4*%
%TO.N,Wire54*%
X149176000Y-100513000D03*
%TO.P,U4,28,RD5/PSP5*%
%TO.N,Wire53*%
X149176000Y-97973000D03*
%TO.P,U4,29,RD6/PSP6*%
%TO.N,Wire52*%
X149176000Y-95433000D03*
%TO.P,U4,30,RD7/PSP7*%
%TO.N,Wire51*%
X149176000Y-92893000D03*
%TO.P,U4,31,VSS*%
%TO.N,GND*%
X149176000Y-90353000D03*
%TO.P,U4,32,VDD*%
%TO.N,VCC*%
X149176000Y-87813000D03*
%TO.P,U4,33,RB0/INT*%
%TO.N,Wire50*%
X149176000Y-85273000D03*
%TO.P,U4,34,RB1*%
%TO.N,Wire47*%
X149176000Y-82733000D03*
%TO.P,U4,35,RB2*%
%TO.N,Wire24*%
X149176000Y-80193000D03*
%TO.P,U4,36,RB3*%
%TO.N,Wire25*%
X149176000Y-77653000D03*
%TO.P,U4,37,RB4*%
%TO.N,Wire26*%
X149176000Y-75113000D03*
%TO.P,U4,38,RB5*%
%TO.N,Wire83*%
X149176000Y-72573000D03*
%TO.P,U4,39,RB6*%
%TO.N,Wire45*%
X149176000Y-70033000D03*
%TO.P,U4,40,RB7*%
%TO.N,Wire43*%
X149176000Y-67493000D03*
%TD*%
D29*
%TO.P,U10,1,VI*%
%TO.N,Wire5*%
X109232000Y-71944000D03*
D30*
%TO.P,U10,2,GND*%
%TO.N,GND*%
X111772000Y-71944000D03*
%TO.P,U10,3,VO*%
%TO.N,VCC*%
X114312000Y-71944000D03*
%TD*%
D31*
%TO.P,J6,1*%
%TO.N,Wire8*%
X146145000Y-56511000D03*
D32*
%TO.P,J6,2*%
%TO.N,GND*%
X148445000Y-61811000D03*
%TO.P,J6,3*%
%TO.N,unconnected-(J6-Pad3)*%
X152145000Y-59311000D03*
%TD*%
D12*
%TO.P,R77,1*%
%TO.N,VCC*%
X129730000Y-67695000D03*
%TO.P,R77,2*%
%TO.N,Wire1*%
X131730000Y-67695000D03*
%TD*%
D33*
%TO.P,F1,1*%
%TO.N,Wire8*%
X130039000Y-61739000D03*
%TO.P,F1,2*%
%TO.N,Wire5*%
X142539000Y-61736000D03*
%TD*%
D12*
%TO.P,R42,1*%
%TO.N,Wire43*%
X154233000Y-66192000D03*
%TO.P,R42,2*%
%TO.N,VCC*%
X156233000Y-66192000D03*
%TD*%
D25*
%TO.P,D20,1,A1*%
%TO.N,GND*%
X179578000Y-65201000D03*
%TO.P,D20,2,A2*%
%TO.N,VCC*%
X177678000Y-65201000D03*
%TO.P,D20,3,common*%
%TO.N,Wire6*%
X178628000Y-67076000D03*
%TD*%
D11*
%TO.P,C24,1*%
%TO.N,Wire50*%
X163703500Y-71439000D03*
%TO.P,C24,2*%
%TO.N,GND*%
X165778500Y-71439000D03*
%TD*%
D12*
%TO.P,R41,1*%
%TO.N,Wire9*%
X107735000Y-127444000D03*
%TO.P,R41,2*%
%TO.N,Wire150*%
X109735000Y-127444000D03*
%TD*%
%TO.P,R64,1*%
%TO.N,Wire38*%
X136933000Y-140443000D03*
%TO.P,R64,2*%
%TO.N,Wire14*%
X138933000Y-140443000D03*
%TD*%
%TO.P,R60,1*%
%TO.N,Wire24*%
X154232000Y-81197000D03*
%TO.P,R60,2*%
%TO.N,VCC*%
X156232000Y-81197000D03*
%TD*%
%TO.P,R43,1*%
%TO.N,Wire45*%
X154233000Y-73698000D03*
%TO.P,R43,2*%
%TO.N,VCC*%
X156233000Y-73698000D03*
%TD*%
%TO.P,R12,1*%
%TO.N,Wire101*%
X186582000Y-119593000D03*
%TO.P,R12,2*%
%TO.N,Wire90*%
X188582000Y-119593000D03*
%TD*%
D23*
%TO.P,J2,1,Pin_1*%
%TO.N,Wire5*%
X202433000Y-55946000D03*
D24*
%TO.P,J2,2,Pin_2*%
%TO.N,Wire66*%
X202433000Y-58486000D03*
%TD*%
D25*
%TO.P,D7,1,A1*%
%TO.N,GND*%
X131167000Y-134788000D03*
%TO.P,D7,2,A2*%
%TO.N,VCC*%
X129267000Y-134788000D03*
%TO.P,D7,3,common*%
%TO.N,Wire41*%
X130217000Y-136663000D03*
%TD*%
D12*
%TO.P,R18,1*%
%TO.N,VCC*%
X175730000Y-132444000D03*
%TO.P,R18,2*%
%TO.N,Net-(D6-Pad2)*%
X177730000Y-132444000D03*
%TD*%
D23*
%TO.P,J16,1,Pin_1*%
%TO.N,Wire60*%
X216069000Y-116535000D03*
D24*
%TO.P,J16,2,Pin_2*%
%TO.N,Wire64*%
X218609000Y-116535000D03*
%TO.P,J16,3,Pin_3*%
%TO.N,Wire56*%
X221149000Y-116535000D03*
%TO.P,J16,4,Pin_4*%
%TO.N,VCC*%
X223689000Y-116535000D03*
%TO.P,J16,5,Pin_5*%
%TO.N,GND*%
X226229000Y-116535000D03*
%TD*%
D25*
%TO.P,D13,1,A1*%
%TO.N,GND*%
X187129000Y-94700000D03*
%TO.P,D13,2,A2*%
%TO.N,VCC*%
X185229000Y-94700000D03*
%TO.P,D13,3,common*%
%TO.N,Wire63*%
X186179000Y-96575000D03*
%TD*%
D12*
%TO.P,R34,1*%
%TO.N,Wire32*%
X120736000Y-114103000D03*
%TO.P,R34,2*%
%TO.N,Wire23*%
X122736000Y-114103000D03*
%TD*%
D11*
%TO.P,C9,1*%
%TO.N,GND*%
X120679500Y-111542000D03*
%TO.P,C9,2*%
%TO.N,Wire23*%
X122754500Y-111542000D03*
%TD*%
%TO.P,C18,1*%
%TO.N,Wire70*%
X204783500Y-77494000D03*
%TO.P,C18,2*%
%TO.N,Wire69*%
X206858500Y-77494000D03*
%TD*%
D12*
%TO.P,R56,1*%
%TO.N,VCC*%
X120235000Y-124434000D03*
%TO.P,R56,2*%
%TO.N,Wire40*%
X122235000Y-124434000D03*
%TD*%
%TO.P,R24,1*%
%TO.N,Wire41*%
X120233000Y-130935000D03*
%TO.P,R24,2*%
%TO.N,Wire12*%
X122233000Y-130935000D03*
%TD*%
D34*
%TO.P,U3,1,1*%
%TO.N,Wire19*%
X113740000Y-79000000D03*
%TO.P,U3,2,2*%
%TO.N,GND*%
X113740000Y-81500000D03*
%TO.P,U3,3,3*%
%TO.N,Wire18*%
X113740000Y-84000000D03*
%TD*%
D25*
%TO.P,D22,1,A1*%
%TO.N,GND*%
X122384000Y-139038000D03*
%TO.P,D22,2,A2*%
%TO.N,VCC*%
X120484000Y-139038000D03*
%TO.P,D22,3,common*%
%TO.N,Wire38*%
X121434000Y-140913000D03*
%TD*%
D11*
%TO.P,C21,1*%
%TO.N,Wire71*%
X204789500Y-80698000D03*
%TO.P,C21,2*%
%TO.N,Wire72*%
X206864500Y-80698000D03*
%TD*%
D25*
%TO.P,D16,1,A1*%
%TO.N,GND*%
X122334000Y-134191000D03*
%TO.P,D16,2,A2*%
%TO.N,VCC*%
X120434000Y-134191000D03*
%TO.P,D16,3,common*%
%TO.N,Wire40*%
X121384000Y-136066000D03*
%TD*%
D12*
%TO.P,R63,1*%
%TO.N,VCC*%
X107734000Y-139944000D03*
%TO.P,R63,2*%
%TO.N,Wire38*%
X109734000Y-139944000D03*
%TD*%
%TO.P,R68,1*%
%TO.N,Wire36*%
X107733000Y-133444000D03*
%TO.P,R68,2*%
%TO.N,GND*%
X109733000Y-133444000D03*
%TD*%
%TO.P,R33,1*%
%TO.N,Wire61*%
X154230000Y-115695000D03*
%TO.P,R33,2*%
%TO.N,Wire23*%
X156230000Y-115695000D03*
%TD*%
D11*
%TO.P,C1,1*%
%TO.N,GND*%
X200891500Y-96500000D03*
%TO.P,C1,2*%
%TO.N,VCC*%
X202966500Y-96500000D03*
%TD*%
%TO.P,C19,1*%
%TO.N,GND*%
X204795500Y-74195000D03*
%TO.P,C19,2*%
%TO.N,Wire68*%
X206870500Y-74195000D03*
%TD*%
D35*
%TO.P,S1,1,COM_1*%
%TO.N,GND*%
X120237000Y-71598000D03*
%TO.P,S1,2,COM_2*%
X120237000Y-74138000D03*
%TO.P,S1,3,COM_3*%
X120237000Y-76678000D03*
%TO.P,S1,4,NO_1*%
%TO.N,Wire26*%
X127857000Y-76678000D03*
%TO.P,S1,5,NO_2*%
%TO.N,Wire25*%
X127857000Y-74138000D03*
%TO.P,S1,6,NO_3*%
%TO.N,Wire24*%
X127857000Y-71598000D03*
%TD*%
D12*
%TO.P,R72,1*%
%TO.N,Wire23*%
X120238000Y-118190000D03*
%TO.P,R72,2*%
%TO.N,Wire39*%
X122238000Y-118190000D03*
%TD*%
D36*
%TO.P,U1,1,QB*%
%TO.N,Wire86*%
X198922000Y-99941000D03*
%TO.P,U1,2,QC*%
%TO.N,Wire87*%
X198922000Y-101211000D03*
%TO.P,U1,3,QD*%
%TO.N,Wire88*%
X198922000Y-102481000D03*
%TO.P,U1,4,QE*%
%TO.N,Wire89*%
X198922000Y-103751000D03*
%TO.P,U1,5,QF*%
%TO.N,Wire90*%
X198922000Y-105021000D03*
%TO.P,U1,6,QG*%
%TO.N,Wire91*%
X198922000Y-106291000D03*
%TO.P,U1,7,QH*%
%TO.N,Wire92*%
X198922000Y-107561000D03*
%TO.P,U1,8,GND*%
%TO.N,GND*%
X198922000Y-108831000D03*
%TO.P,U1,9,QH'*%
%TO.N,unconnected-(U1-Pad9)*%
X204372000Y-108831000D03*
%TO.P,U1,10,~{SRCLR}*%
%TO.N,VCC*%
X204372000Y-107561000D03*
%TO.P,U1,11,SRCLK*%
%TO.N,Wire81*%
X204372000Y-106291000D03*
%TO.P,U1,12,RCLK*%
%TO.N,Wire83*%
X204372000Y-105021000D03*
%TO.P,U1,13,~{OE}*%
%TO.N,GND*%
X204372000Y-103751000D03*
%TO.P,U1,14,SER*%
%TO.N,Wire80*%
X204372000Y-102481000D03*
%TO.P,U1,15,QA*%
%TO.N,Wire93*%
X204372000Y-101211000D03*
%TO.P,U1,16,VCC*%
%TO.N,VCC*%
X204372000Y-99941000D03*
%TD*%
D12*
%TO.P,R36,1*%
%TO.N,GND*%
X154233000Y-95196000D03*
%TO.P,R36,2*%
%TO.N,Wire52*%
X156233000Y-95196000D03*
%TD*%
%TO.P,R50,1*%
%TO.N,Wire56*%
X154231000Y-105696000D03*
%TO.P,R50,2*%
%TO.N,Wire55*%
X156231000Y-105696000D03*
%TD*%
%TO.P,R47,1*%
%TO.N,Wire63*%
X182731000Y-107439000D03*
%TO.P,R47,2*%
%TO.N,VCC*%
X184731000Y-107439000D03*
%TD*%
%TO.P,R71,1*%
%TO.N,GND*%
X88242000Y-129136000D03*
%TO.P,R71,2*%
%TO.N,Wire16*%
X90242000Y-129136000D03*
%TD*%
%TO.P,R62,1*%
%TO.N,Wire62*%
X170727000Y-104440000D03*
%TO.P,R62,2*%
%TO.N,Wire63*%
X172727000Y-104440000D03*
%TD*%
%TO.P,R73,1*%
%TO.N,Wire34*%
X107734000Y-124443000D03*
%TO.P,R73,2*%
%TO.N,Wire33*%
X109734000Y-124443000D03*
%TD*%
%TO.P,R48,1*%
%TO.N,Wire59*%
X154233000Y-113195000D03*
%TO.P,R48,2*%
%TO.N,Wire60*%
X156233000Y-113195000D03*
%TD*%
D11*
%TO.P,C25,1*%
%TO.N,GND*%
X204790500Y-61700000D03*
%TO.P,C25,2*%
%TO.N,Wire62*%
X206865500Y-61700000D03*
%TD*%
D12*
%TO.P,R2,1*%
%TO.N,Wire99*%
X186583000Y-117143000D03*
%TO.P,R2,2*%
%TO.N,Wire93*%
X188583000Y-117143000D03*
%TD*%
%TO.P,R44,1*%
%TO.N,Wire43*%
X154231000Y-68695000D03*
%TO.P,R44,2*%
%TO.N,Wire44*%
X156231000Y-68695000D03*
%TD*%
D11*
%TO.P,C20,1*%
%TO.N,GND*%
X204795500Y-83797000D03*
%TO.P,C20,2*%
%TO.N,Wire73*%
X206870500Y-83797000D03*
%TD*%
D25*
%TO.P,D19,1,A1*%
%TO.N,GND*%
X174329000Y-65198000D03*
%TO.P,D19,2,A2*%
%TO.N,VCC*%
X172429000Y-65198000D03*
%TO.P,D19,3,common*%
%TO.N,Wire50*%
X173379000Y-67073000D03*
%TD*%
D12*
%TO.P,R19,1*%
%TO.N,Wire98*%
X214430000Y-124644000D03*
%TO.P,R19,2*%
%TO.N,Wire91*%
X216430000Y-124644000D03*
%TD*%
%TO.P,R40,1*%
%TO.N,GND*%
X120733000Y-101136000D03*
%TO.P,R40,2*%
%TO.N,Wire30*%
X122733000Y-101136000D03*
%TD*%
%TO.P,R4,1*%
%TO.N,Wire94*%
X214432000Y-122144000D03*
%TO.P,R4,2*%
%TO.N,Wire86*%
X216432000Y-122144000D03*
%TD*%
D11*
%TO.P,C7,1*%
%TO.N,VCC*%
X99696500Y-77701000D03*
%TO.P,C7,2*%
%TO.N,GND*%
X101771500Y-77701000D03*
%TD*%
D12*
%TO.P,R37,1*%
%TO.N,GND*%
X154232000Y-97696000D03*
%TO.P,R37,2*%
%TO.N,Wire53*%
X156232000Y-97696000D03*
%TD*%
D11*
%TO.P,C6,1*%
%TO.N,GND*%
X120702500Y-96699000D03*
%TO.P,C6,2*%
%TO.N,Wire27*%
X122777500Y-96699000D03*
%TD*%
D23*
%TO.P,J13,1,Pin_1*%
%TO.N,Wire67*%
X212732000Y-55945000D03*
D24*
%TO.P,J13,2,Pin_2*%
%TO.N,GND*%
X212732000Y-58485000D03*
%TD*%
D12*
%TO.P,R8,1*%
%TO.N,Wire96*%
X214432000Y-132194000D03*
%TO.P,R8,2*%
%TO.N,Wire88*%
X216432000Y-132194000D03*
%TD*%
%TO.P,R69,1*%
%TO.N,Wire37*%
X107736000Y-136936000D03*
%TO.P,R69,2*%
%TO.N,GND*%
X109736000Y-136936000D03*
%TD*%
D37*
%TO.P,U13,1,1Y*%
%TO.N,Wire74*%
X97005000Y-80348000D03*
%TO.P,U13,2,1A*%
%TO.N,Wire10*%
X97006000Y-81615000D03*
%TO.P,U13,3,1B*%
%TO.N,Wire75*%
X97000000Y-82929000D03*
%TO.P,U13,4,2Y*%
%TO.N,Wire76*%
X97007000Y-84155000D03*
%TO.P,U13,5,2A*%
%TO.N,Wire74*%
X97007000Y-85466000D03*
%TO.P,U13,6,2B*%
%TO.N,GND*%
X97006000Y-86738000D03*
%TO.P,U13,7,GND*%
X97008000Y-88048000D03*
%TO.P,U13,8,3A*%
X102721000Y-88050000D03*
%TO.P,U13,9,3B*%
X102721000Y-86739000D03*
%TO.P,U13,10,3Y*%
%TO.N,unconnected-(U13-Pad10)*%
X102719000Y-85469000D03*
%TO.P,U13,11,4A*%
%TO.N,GND*%
X102723000Y-84157000D03*
%TO.P,U13,12,4B*%
X102722000Y-82931000D03*
%TO.P,U13,13,4Y*%
%TO.N,unconnected-(U13-Pad13)*%
X102721000Y-81623000D03*
%TO.P,U13,14,VCC*%
%TO.N,VCC*%
X102721000Y-80351000D03*
%TD*%
D12*
%TO.P,R46,1*%
%TO.N,Wire59*%
X154228000Y-110694000D03*
%TO.P,R46,2*%
%TO.N,VCC*%
X156228000Y-110694000D03*
%TD*%
D23*
%TO.P,J11,1,Pin_1*%
%TO.N,Wire5*%
X82781000Y-73336000D03*
D24*
%TO.P,J11,2,Pin_2*%
%TO.N,Wire4*%
X80241000Y-73336000D03*
%TD*%
D31*
%TO.P,J12,1*%
%TO.N,VCC*%
X216232000Y-69197000D03*
D32*
%TO.P,J12,2*%
%TO.N,GND*%
X218532000Y-74497000D03*
%TO.P,J12,3*%
%TO.N,unconnected-(J12-Pad3)*%
X222232000Y-71997000D03*
%TD*%
D12*
%TO.P,R10,1*%
%TO.N,Wire100*%
X186580000Y-124691000D03*
%TO.P,R10,2*%
%TO.N,Wire89*%
X188580000Y-124691000D03*
%TD*%
%TO.P,R76,1*%
%TO.N,VCC*%
X177732000Y-72194000D03*
%TO.P,R76,2*%
%TO.N,Wire7*%
X179732000Y-72194000D03*
%TD*%
D37*
%TO.P,U7,1,1Y*%
%TO.N,Wire77*%
X127313000Y-122294000D03*
%TO.P,U7,2,1A*%
%TO.N,Wire75*%
X127314000Y-123561000D03*
%TO.P,U7,3,1B*%
%TO.N,Wire39*%
X127308000Y-124875000D03*
%TO.P,U7,4,2Y*%
%TO.N,Wire15*%
X127315000Y-126101000D03*
%TO.P,U7,5,2A*%
%TO.N,Wire77*%
X127315000Y-127412000D03*
%TO.P,U7,6,2B*%
%TO.N,GND*%
X127314000Y-128684000D03*
%TO.P,U7,7,GND*%
X127316000Y-129994000D03*
%TO.P,U7,8,3A*%
%TO.N,Wire34*%
X133029000Y-129996000D03*
%TO.P,U7,9,3B*%
%TO.N,GND*%
X133029000Y-128685000D03*
%TO.P,U7,10,3Y*%
%TO.N,Wire78*%
X133027000Y-127415000D03*
%TO.P,U7,11,4A*%
%TO.N,Wire41*%
X133031000Y-126103000D03*
%TO.P,U7,12,4B*%
%TO.N,Wire40*%
X133030000Y-124877000D03*
%TO.P,U7,13,4Y*%
%TO.N,Wire79*%
X133029000Y-123569000D03*
%TO.P,U7,14,VCC*%
%TO.N,VCC*%
X133029000Y-122297000D03*
%TD*%
D11*
%TO.P,C5,1*%
%TO.N,Wire29*%
X126698500Y-96694000D03*
%TO.P,C5,2*%
%TO.N,Wire28*%
X128773500Y-96694000D03*
%TD*%
D38*
%TO.P,Y1,1,1*%
%TO.N,Wire27*%
X121686000Y-95044000D03*
%TO.P,Y1,2,2*%
%TO.N,Wire29*%
X126566000Y-95044000D03*
%TD*%
D25*
%TO.P,D8,1,A1*%
%TO.N,unconnected-(D8-Pad1)*%
X198833000Y-64845000D03*
%TO.P,D8,2,A2*%
%TO.N,Wire5*%
X196933000Y-64845000D03*
%TO.P,D8,3,common*%
%TO.N,Wire66*%
X197883000Y-66720000D03*
%TD*%
D12*
%TO.P,R6,1*%
%TO.N,Wire95*%
X214432000Y-127043000D03*
%TO.P,R6,2*%
%TO.N,Wire87*%
X216432000Y-127043000D03*
%TD*%
%TO.P,R38,1*%
%TO.N,GND*%
X154228000Y-100197000D03*
%TO.P,R38,2*%
%TO.N,Wire54*%
X156228000Y-100197000D03*
%TD*%
D25*
%TO.P,D10,1,A1*%
%TO.N,GND*%
X127700000Y-116993000D03*
%TO.P,D10,2,A2*%
%TO.N,Wire23*%
X125800000Y-116993000D03*
%TO.P,D10,3,common*%
%TO.N,Wire150*%
X126750000Y-118868000D03*
%TD*%
D12*
%TO.P,R35,1*%
%TO.N,Wire57*%
X154230000Y-108194000D03*
%TO.P,R35,2*%
%TO.N,Wire58*%
X156230000Y-108194000D03*
%TD*%
%TO.P,R39,1*%
%TO.N,GND*%
X120733000Y-103908000D03*
%TO.P,R39,2*%
%TO.N,Wire31*%
X122733000Y-103908000D03*
%TD*%
D39*
%TO.P,Q1,1*%
%TO.N,Wire58*%
X187961000Y-65212000D03*
%TO.P,Q1,2*%
%TO.N,GND*%
X186061000Y-65212000D03*
%TO.P,Q1,3*%
%TO.N,Wire66*%
X187011000Y-67412000D03*
%TD*%
D40*
%TO.P,J3,1,Pin_1*%
%TO.N,Wire150*%
X88433000Y-119693000D03*
%TO.P,J3,2,Pin_2*%
%TO.N,GND*%
X88434000Y-121721000D03*
%TO.P,J3,3,Pin_3*%
%TO.N,Wire9*%
X88438000Y-125646000D03*
%TD*%
D12*
%TO.P,R21,1*%
%TO.N,Wire97*%
X214432000Y-134644000D03*
%TO.P,R21,2*%
%TO.N,Wire92*%
X216432000Y-134644000D03*
%TD*%
D39*
%TO.P,Q2,1*%
%TO.N,Wire3*%
X91935000Y-65073000D03*
%TO.P,Q2,2*%
%TO.N,GND*%
X90035000Y-65073000D03*
%TO.P,Q2,3*%
%TO.N,Wire4*%
X90985000Y-67273000D03*
%TD*%
D12*
%TO.P,R66,1*%
%TO.N,Wire10*%
X106235000Y-81445000D03*
%TO.P,R66,2*%
%TO.N,Wire9*%
X108235000Y-81445000D03*
%TD*%
D25*
%TO.P,D21,1,A1*%
%TO.N,GND*%
X187631000Y-76696000D03*
%TO.P,D21,2,A2*%
%TO.N,VCC*%
X185731000Y-76696000D03*
%TO.P,D21,3,common*%
%TO.N,Wire62*%
X186681000Y-78571000D03*
%TD*%
%TO.P,D12,1,A1*%
%TO.N,GND*%
X191625000Y-94696000D03*
%TO.P,D12,2,A2*%
%TO.N,VCC*%
X189725000Y-94696000D03*
%TO.P,D12,3,common*%
%TO.N,Wire59*%
X190675000Y-96571000D03*
%TD*%
D12*
%TO.P,R54,1*%
%TO.N,Wire49*%
X164981000Y-88439000D03*
%TO.P,R54,2*%
%TO.N,VCC*%
X166981000Y-88439000D03*
%TD*%
D25*
%TO.P,D11,1,A1*%
%TO.N,GND*%
X164279000Y-65194000D03*
%TO.P,D11,2,A2*%
%TO.N,VCC*%
X162379000Y-65194000D03*
%TO.P,D11,3,common*%
%TO.N,Wire45*%
X163329000Y-67069000D03*
%TD*%
D12*
%TO.P,R28,1*%
%TO.N,Wire23*%
X120736000Y-108980000D03*
%TO.P,R28,2*%
%TO.N,Wire22*%
X122736000Y-108980000D03*
%TD*%
%TO.P,R75,1*%
%TO.N,Wire67*%
X204827000Y-64698000D03*
%TO.P,R75,2*%
%TO.N,Wire62*%
X206827000Y-64698000D03*
%TD*%
%TO.P,R58,1*%
%TO.N,Wire47*%
X154228000Y-83699000D03*
%TO.P,R58,2*%
%TO.N,Wire48*%
X156228000Y-83699000D03*
%TD*%
D19*
%TO.P,C11,1*%
%TO.N,VCC*%
X99483000Y-73116000D03*
%TO.P,C11,2*%
%TO.N,GND*%
X99483000Y-67716000D03*
%TD*%
D37*
%TO.P,U6,1,A*%
%TO.N,Wire9*%
X94335000Y-129316000D03*
%TO.P,U6,2,B*%
X94336000Y-130583000D03*
%TO.P,U6,3,C*%
X94330000Y-131897000D03*
%TO.P,U6,4,D*%
%TO.N,Wire35*%
X94337000Y-133123000D03*
%TO.P,U6,5,E*%
%TO.N,Wire36*%
X94337000Y-134434000D03*
%TO.P,U6,6,F*%
%TO.N,Wire37*%
X94336000Y-135706000D03*
%TO.P,U6,7,GND*%
%TO.N,GND*%
X94338000Y-137016000D03*
%TO.P,U6,8,Y*%
%TO.N,Wire75*%
X100051000Y-137018000D03*
%TO.P,U6,9,n.c._1*%
%TO.N,unconnected-(U6-Pad9)*%
X100051000Y-135707000D03*
%TO.P,U6,10,n.c._2*%
%TO.N,unconnected-(U6-Pad10)*%
X100049000Y-134437000D03*
%TO.P,U6,11,G*%
%TO.N,Wire17*%
X100053000Y-133125000D03*
%TO.P,U6,12,H*%
%TO.N,Wire16*%
X100052000Y-131899000D03*
%TO.P,U6,13,n.c._3*%
%TO.N,unconnected-(U6-Pad13)*%
X100051000Y-130591000D03*
%TO.P,U6,14,VCC*%
%TO.N,VCC*%
X100051000Y-129319000D03*
%TD*%
D12*
%TO.P,R49,1*%
%TO.N,Wire63*%
X182729000Y-104441000D03*
%TO.P,R49,2*%
%TO.N,Wire64*%
X184729000Y-104441000D03*
%TD*%
%TO.P,R32,1*%
%TO.N,Wire51*%
X154233000Y-92698000D03*
%TO.P,R32,2*%
%TO.N,Wire23*%
X156233000Y-92698000D03*
%TD*%
D23*
%TO.P,J15,1,Pin_1*%
%TO.N,Wire5*%
X81033000Y-82694000D03*
D24*
%TO.P,J15,2,Pin_2*%
%TO.N,VCC*%
X81033000Y-85234000D03*
%TO.P,J15,3,Pin_3*%
%TO.N,Wire11*%
X81033000Y-87774000D03*
%TO.P,J15,4,Pin_4*%
%TO.N,Wire12*%
X81033000Y-90314000D03*
%TO.P,J15,5,Pin_5*%
%TO.N,Wire13*%
X81033000Y-92854000D03*
%TO.P,J15,6,Pin_6*%
%TO.N,Wire14*%
X81033000Y-95394000D03*
%TO.P,J15,7,Pin_7*%
%TO.N,GND*%
X81033000Y-97934000D03*
%TD*%
D12*
%TO.P,R31,1*%
%TO.N,Wire19*%
X106233000Y-90195000D03*
%TO.P,R31,2*%
%TO.N,Wire20*%
X108233000Y-90195000D03*
%TD*%
D25*
%TO.P,D14,1,A1*%
%TO.N,GND*%
X182732000Y-94694000D03*
%TO.P,D14,2,A2*%
%TO.N,VCC*%
X180832000Y-94694000D03*
%TO.P,D14,3,common*%
%TO.N,Wire55*%
X181782000Y-96569000D03*
%TD*%
%TO.P,D1,1,A1*%
%TO.N,GND*%
X137138000Y-134789000D03*
%TO.P,D1,2,A2*%
%TO.N,VCC*%
X135238000Y-134789000D03*
%TO.P,D1,3,common*%
%TO.N,Wire42*%
X136188000Y-136664000D03*
%TD*%
D12*
%TO.P,R65,1*%
%TO.N,Net-(D23-Pad2)*%
X149733000Y-132443000D03*
%TO.P,R65,2*%
%TO.N,Wire4*%
X151733000Y-132443000D03*
%TD*%
%TO.P,R1,1*%
%TO.N,Wire42*%
X127936000Y-140436000D03*
%TO.P,R1,2*%
%TO.N,Wire11*%
X129936000Y-140436000D03*
%TD*%
D23*
%TO.P,J8,1,Pin_1*%
%TO.N,Wire7*%
X173256000Y-52352000D03*
D24*
%TO.P,J8,2,Pin_2*%
%TO.N,GND*%
X173256000Y-54892000D03*
%TO.P,J8,3,Pin_3*%
%TO.N,Wire5*%
X173256000Y-57432000D03*
%TO.P,J8,4,Pin_4*%
%TO.N,unconnected-(J8-Pad4)*%
X173256000Y-59972000D03*
%TD*%
D11*
%TO.P,C26,1*%
%TO.N,GND*%
X154190500Y-90196000D03*
%TO.P,C26,2*%
%TO.N,VCC*%
X156265500Y-90196000D03*
%TD*%
%TO.P,C4,1*%
%TO.N,GND*%
X85949500Y-104201000D03*
%TO.P,C4,2*%
%TO.N,Wire9*%
X88024500Y-104201000D03*
%TD*%
%TO.P,C22,1*%
%TO.N,GND*%
X204794500Y-71194000D03*
%TO.P,C22,2*%
%TO.N,VCC*%
X206869500Y-71194000D03*
%TD*%
D25*
%TO.P,D17,1,A1*%
%TO.N,unconnected-(D17-Pad1)*%
X87303000Y-65145000D03*
%TO.P,D17,2,A2*%
%TO.N,Wire5*%
X85403000Y-65145000D03*
%TO.P,D17,3,common*%
%TO.N,Wire4*%
X86353000Y-67020000D03*
%TD*%
D41*
%TO.P,D2,2,ANODE_A*%
%TO.N,Wire99*%
X209732000Y-116842000D03*
%TO.P,D2,3,ANODE_F*%
%TO.N,Wire101*%
X209732000Y-119382000D03*
%TO.P,D2,4,COMMON_CATHODE_1*%
%TO.N,GND*%
X209732000Y-121922000D03*
%TO.P,D2,5,ANODE_E*%
%TO.N,Wire100*%
X209732000Y-124462000D03*
%TO.P,D2,6,COMMON_CATHODE_2*%
%TO.N,GND*%
X209732000Y-127002000D03*
%TO.P,D2,7,ANODE_L.D.P.*%
%TO.N,unconnected-(D2-Pad7)*%
X209732000Y-129542000D03*
%TO.P,D2,8,NO_PIN_1*%
%TO.N,unconnected-(D2-Pad8)*%
X209732000Y-132082000D03*
%TO.P,D2,9,NO_PIN_2*%
%TO.N,unconnected-(D2-Pad9)*%
X209732000Y-134622000D03*
%TO.P,D2,10,ANODE_R.D.P.*%
%TO.N,Wire97*%
X194492000Y-134622000D03*
%TO.P,D2,11,ANODE_D*%
%TO.N,Wire96*%
X194492000Y-132082000D03*
%TO.P,D2,12,COMMON_CATHODE_3*%
%TO.N,GND*%
X194492000Y-129542000D03*
%TO.P,D2,13,ANODE_C*%
%TO.N,Wire95*%
X194492000Y-127002000D03*
%TO.P,D2,14,ANODE_G*%
%TO.N,Wire98*%
X194492000Y-124462000D03*
%TO.P,D2,15,ANODE_B*%
%TO.N,Wire94*%
X194492000Y-121922000D03*
%TO.P,D2,16,NO_PIN_3*%
%TO.N,unconnected-(D2-Pad16)*%
X194492000Y-119382000D03*
%TO.P,D2,17,COMMON_CATHODE_4*%
%TO.N,GND*%
X194492000Y-116842000D03*
%TD*%
D42*
%TO.P,D6,1,K*%
%TO.N,Wire65*%
X176728000Y-125436000D03*
D43*
%TO.P,D6,2,A*%
%TO.N,Net-(D6-Pad2)*%
X176728000Y-127976000D03*
%TD*%
D42*
%TO.P,D23,1,K*%
%TO.N,Wire5*%
X151131000Y-125438000D03*
D43*
%TO.P,D23,2,A*%
%TO.N,Net-(D23-Pad2)*%
X151131000Y-127978000D03*
%TD*%
D44*
%TO.N,GND*%
X197357900Y-108738100D03*
X202084700Y-104861700D03*
%TO.N,VCC*%
X119483200Y-138753000D03*
X166616900Y-64091300D03*
X127999800Y-134692600D03*
X134017900Y-120947800D03*
X171452200Y-66144200D03*
X157770300Y-73607700D03*
X133771900Y-133501200D03*
X204287600Y-97130800D03*
X101860900Y-129332600D03*
%TO.N,Wire55*%
X201137000Y-80985800D03*
X182731000Y-96825500D03*
%TO.N,Wire42*%
X137142300Y-131710700D03*
%TO.N,Wire23*%
X149824900Y-117045800D03*
X155155800Y-96446000D03*
%TO.N,Wire150*%
X117779300Y-120254600D03*
%TO.N,Wire59*%
X188041700Y-96571000D03*
%TO.N,Wire63*%
X185123700Y-97366900D03*
X183525900Y-103189100D03*
%TO.N,Wire6*%
X179529300Y-67076000D03*
X158876400Y-82264000D03*
X179342000Y-74889300D03*
%TO.N,Wire62*%
X171657400Y-103359500D03*
X186681000Y-87667800D03*
%TO.N,Wire38*%
X134510800Y-140443000D03*
%TO.N,Wire58*%
X158658200Y-106433600D03*
X186107600Y-66460400D03*
%TO.N,Wire70*%
X194793300Y-75129400D03*
X201142400Y-77494000D03*
%TO.N,Wire68*%
X202818100Y-75246400D03*
X196530200Y-76296800D03*
%TO.N,Wire82*%
X201139700Y-79774100D03*
%TO.N,Wire9*%
X88024500Y-105539200D03*
%TO.N,Wire39*%
X122702300Y-119510300D03*
X113378000Y-121380200D03*
X125683300Y-124597600D03*
%TO.N,Wire34*%
X108799300Y-125525200D03*
X130567000Y-129996000D03*
X112346000Y-120376200D03*
%TO.N,Wire16*%
X112281000Y-113425600D03*
X92083100Y-129227600D03*
X98127800Y-131260800D03*
%TO.N,Wire17*%
X112300000Y-114425900D03*
X92465200Y-131853000D03*
X98445000Y-132791300D03*
%TO.N,Wire37*%
X111573600Y-112081200D03*
X107822000Y-135487400D03*
%TO.N,Wire32*%
X121291300Y-115424000D03*
X117995000Y-104711700D03*
X127850200Y-113213000D03*
%TO.N,Wire30*%
X123738900Y-102141900D03*
X130662600Y-115753000D03*
X118011700Y-103414000D03*
%TO.N,Wire54*%
X125992900Y-101636800D03*
X119802500Y-99501700D03*
%TO.N,Wire53*%
X130465700Y-96754800D03*
X119827800Y-98453000D03*
X157440500Y-97479100D03*
X146786300Y-96754800D03*
%TO.N,Wire10*%
X109229600Y-92520600D03*
X104362900Y-83435300D03*
X98815700Y-81922000D03*
%TO.N,Wire22*%
X110333400Y-90434600D03*
X124999300Y-107161800D03*
%TO.N,Wire89*%
X197380300Y-103856200D03*
X188580000Y-123386900D03*
%TO.N,Wire90*%
X191637300Y-119413300D03*
X197496300Y-107325000D03*
%TO.N,Wire91*%
X200627100Y-106214100D03*
X215192000Y-123394000D03*
%TO.N,Wire92*%
X215432000Y-133595200D03*
X200390100Y-107664000D03*
%TO.N,Wire83*%
X163830700Y-100072000D03*
X152067900Y-74865700D03*
%TO.N,Wire93*%
X189376600Y-115402800D03*
X200340200Y-103636800D03*
%TO.N,Wire12*%
X123667900Y-129415500D03*
%TO.N,Wire13*%
X118955000Y-121059700D03*
%TO.N,Wire60*%
X155473900Y-111944500D03*
%TO.N,Wire49*%
X157466900Y-85821000D03*
%TO.N,Wire48*%
X157431900Y-83699000D03*
%TO.N,Wire7*%
X171609100Y-67940300D03*
%TO.N,Wire44*%
X160941000Y-68695000D03*
%TO.N,Wire46*%
X163465400Y-68669200D03*
%TO.N,Wire75*%
X125094200Y-123539200D03*
X108230200Y-131782800D03*
X92500100Y-90582500D03*
%TO.N,Wire76*%
X100875900Y-83239900D03*
%TO.N,Wire15*%
X129063600Y-126101000D03*
%TO.N,Wire78*%
X135239800Y-126527500D03*
%TO.N,Wire79*%
X131441500Y-121682700D03*
%TD*%
D45*
%TO.N,Wire5*%
X86605300Y-70862000D02*
X84131300Y-73336000D01*
X109232000Y-71944000D02*
X115729000Y-65447000D01*
X195633500Y-60936600D02*
X200624100Y-55946000D01*
X107779200Y-71944000D02*
X106697200Y-70862000D01*
X196933000Y-64845000D02*
X195633500Y-63545500D01*
X109232000Y-71944000D02*
X107779200Y-71944000D01*
X115729000Y-65447000D02*
X124984000Y-65447000D01*
X85403000Y-69659700D02*
X86605300Y-70862000D01*
X106697200Y-70862000D02*
X86605300Y-70862000D01*
X200624100Y-55946000D02*
X202433000Y-55946000D01*
X82781000Y-73336000D02*
X84131300Y-73336000D01*
X85403000Y-65145000D02*
X85403000Y-69659700D01*
X138828000Y-65447000D02*
X124984000Y-65447000D01*
X173256000Y-57432000D02*
X174606300Y-57432000D01*
X174606300Y-57432000D02*
X178110900Y-60936600D01*
X142539000Y-61736000D02*
X138828000Y-65447000D01*
X178110900Y-60936600D02*
X195633500Y-60936600D01*
X195633500Y-63545500D02*
X195633500Y-60936600D01*
%TO.N,GND*%
X154233000Y-95196000D02*
X154232000Y-95197000D01*
X100405400Y-114426900D02*
X102208300Y-116229800D01*
X208005500Y-58485000D02*
X204790500Y-61700000D01*
X95507700Y-88848200D02*
X95507700Y-88048000D01*
X101419800Y-86739000D02*
X101218600Y-86537800D01*
X99483000Y-63965200D02*
X91417900Y-63965200D01*
X191625000Y-94696000D02*
X192946200Y-96017100D01*
X134529300Y-132180300D02*
X134529300Y-128685000D01*
X120542000Y-112368100D02*
X120679500Y-112368100D01*
X101419800Y-87498900D02*
X101419800Y-86739000D01*
X109904300Y-130444000D02*
X116126900Y-124221400D01*
X224542700Y-118221300D02*
X226229000Y-116535000D01*
X102723000Y-84157000D02*
X101222700Y-84157000D01*
X97008000Y-88048000D02*
X95507700Y-88048000D01*
X192946200Y-96017100D02*
X193429000Y-96500000D01*
X157552800Y-98944500D02*
X155480500Y-98944500D01*
X102723000Y-83365400D02*
X102723000Y-84157000D01*
X87064200Y-119133900D02*
X91770100Y-114428000D01*
X156869600Y-91462600D02*
X158685400Y-93278400D01*
X149176000Y-90353000D02*
X149333000Y-90196000D01*
X104290000Y-98560300D02*
X104290000Y-96403700D01*
X169223500Y-59970000D02*
X169223500Y-61665600D01*
X158685400Y-97811900D02*
X157552800Y-98944500D01*
X101970900Y-88050000D02*
X101419800Y-87498900D01*
X98534000Y-114428000D02*
X100404300Y-114428000D01*
X187459600Y-97283200D02*
X187129000Y-97283200D01*
X104240000Y-80221400D02*
X104240000Y-79757800D01*
X101375500Y-139943000D02*
X102575900Y-138742600D01*
X133029000Y-128685000D02*
X131528700Y-128685000D01*
X204794500Y-71194000D02*
X204794500Y-71686000D01*
X102575900Y-138742600D02*
X107815400Y-138742600D01*
X120407200Y-96403700D02*
X120702500Y-96699000D01*
X98767800Y-104387000D02*
X99003600Y-104387000D01*
X191146300Y-97817000D02*
X187993400Y-97817000D01*
X88434000Y-121721000D02*
X87064200Y-120351200D01*
X169223500Y-59970000D02*
X164585300Y-59970000D01*
X87064200Y-120351200D02*
X87064200Y-119133900D01*
X192946200Y-96017100D02*
X191146300Y-97817000D01*
X113374000Y-118391000D02*
X113374000Y-116877400D01*
X171010000Y-63452100D02*
X173821500Y-63452100D01*
X196820200Y-83388000D02*
X190129000Y-83388000D01*
X186061000Y-65212000D02*
X185260700Y-65212000D01*
X204795500Y-83797000D02*
X203116500Y-82118000D01*
X198090200Y-82118000D02*
X196820200Y-83388000D01*
X85746700Y-98609200D02*
X85746700Y-103998200D01*
X98533000Y-104387000D02*
X98767800Y-104387000D01*
X101218600Y-86537800D02*
X101218600Y-84161100D01*
X120733000Y-96729500D02*
X120702500Y-96699000D01*
X188914600Y-73672600D02*
X195994800Y-73672600D01*
X81033000Y-97934000D02*
X82383300Y-97934000D01*
X213432700Y-118221300D02*
X224542700Y-118221300D01*
X97758200Y-86740000D02*
X97758200Y-88048000D01*
X109733000Y-136936000D02*
X109733000Y-133444000D01*
X88434000Y-121721000D02*
X87055900Y-123099100D01*
X109733000Y-136936000D02*
X109736000Y-136936000D01*
X104240000Y-80221400D02*
X112461400Y-80221400D01*
X116126900Y-124221400D02*
X116126900Y-118710600D01*
X187993400Y-97817000D02*
X187459600Y-97283200D01*
X97756200Y-86738000D02*
X97758200Y-86740000D01*
X113379000Y-94526000D02*
X113379000Y-96396300D01*
X102721000Y-88050000D02*
X101970900Y-88050000D01*
X155457100Y-91462600D02*
X156869600Y-91462600D01*
X187239000Y-59474000D02*
X179188300Y-59474000D01*
X94338000Y-137016000D02*
X95838300Y-137016000D01*
X122334000Y-137305600D02*
X122334000Y-134191000D01*
X197450800Y-108831000D02*
X197357900Y-108738100D01*
X102721000Y-86739000D02*
X101419800Y-86739000D01*
X113379000Y-96403700D02*
X108334000Y-96403700D01*
X99988500Y-105379000D02*
X99003600Y-105379000D01*
X97006000Y-86738000D02*
X97756200Y-86738000D01*
X173256000Y-54892000D02*
X174606300Y-54892000D01*
X109736000Y-136936000D02*
X110105600Y-137305600D01*
X103157400Y-82931000D02*
X103592800Y-82931000D01*
X163235000Y-59970000D02*
X161884700Y-59970000D01*
X146681000Y-60047000D02*
X124984000Y-60047000D01*
X82383300Y-97934000D02*
X83058500Y-98609200D01*
X198922000Y-108831000D02*
X197450800Y-108831000D01*
X122948500Y-138473500D02*
X122384000Y-139038000D01*
X116126900Y-118710600D02*
X119047300Y-115790200D01*
X99469200Y-102446000D02*
X100404300Y-102446000D01*
X154232000Y-95197000D02*
X154232000Y-97696000D01*
X183088200Y-97811900D02*
X183635300Y-97264800D01*
X199553000Y-75768000D02*
X198483800Y-75768000D01*
X183635300Y-97264800D02*
X184643900Y-98273400D01*
X183635300Y-97264800D02*
X183635300Y-95597300D01*
X217374900Y-75654100D02*
X214661800Y-72941000D01*
X128817300Y-128685000D02*
X128816300Y-128686000D01*
X154190500Y-90196000D02*
X155457100Y-91462600D01*
X100404300Y-102446000D02*
X104290000Y-98560300D01*
X102183200Y-77701000D02*
X101771500Y-77701000D01*
X169223500Y-58924500D02*
X169223500Y-59970000D01*
X110105600Y-137305600D02*
X122334000Y-137305600D01*
X108334000Y-94523000D02*
X108334000Y-96393300D01*
X134529300Y-128685000D02*
X140698500Y-122515800D01*
X100405400Y-105795900D02*
X99988500Y-105379000D01*
X217374900Y-87846900D02*
X217374900Y-75654100D01*
X107815400Y-138742600D02*
X109622000Y-136936000D01*
X102208300Y-116229800D02*
X112726400Y-116229800D01*
X187129000Y-97283200D02*
X187129000Y-94700000D01*
X174329000Y-63959600D02*
X178336600Y-63959600D01*
X92819000Y-137016000D02*
X94338000Y-137016000D01*
X134529300Y-132180300D02*
X133774700Y-132180300D01*
X199553000Y-75768000D02*
X201015800Y-75768000D01*
X202084700Y-104861700D02*
X203096700Y-103849700D01*
X131167000Y-137394200D02*
X130639300Y-137921900D01*
X88242000Y-132439000D02*
X92819000Y-137016000D01*
X197357900Y-108738100D02*
X196468400Y-107848600D01*
X158685400Y-97811900D02*
X183088200Y-97811900D01*
X104240000Y-79757800D02*
X102183200Y-77701000D01*
X90835300Y-64547800D02*
X90835300Y-65073000D01*
X212732000Y-58485000D02*
X208005500Y-58485000D01*
X97758200Y-88048000D02*
X101218700Y-88048000D01*
X179188300Y-59474000D02*
X174606300Y-54892000D01*
X169223500Y-61665600D02*
X171010000Y-63452100D01*
X186138800Y-98273400D02*
X187129000Y-97283200D01*
X101218700Y-88048000D02*
X101220700Y-88050000D01*
X97008000Y-88048000D02*
X97758200Y-88048000D01*
X128816300Y-129994000D02*
X128816300Y-128686000D01*
X167450000Y-68365000D02*
X167450000Y-69767500D01*
X98270500Y-139943000D02*
X101375500Y-139943000D01*
X85746700Y-103998200D02*
X85949500Y-104201000D01*
X171010000Y-63522000D02*
X169333000Y-65199000D01*
X203096700Y-103849700D02*
X203096700Y-103751000D01*
X120699500Y-103941500D02*
X120733000Y-103908000D01*
X159886800Y-61967900D02*
X148601900Y-61967900D01*
X91417900Y-63965200D02*
X90835300Y-64547800D01*
X88242000Y-132439000D02*
X88236000Y-132439000D01*
X209732000Y-121922000D02*
X213432700Y-118221300D01*
X83058500Y-98609200D02*
X85746700Y-98609200D01*
X178336600Y-63959600D02*
X179578000Y-65201000D01*
X127314000Y-128684000D02*
X128814300Y-128684000D01*
X163235000Y-59970000D02*
X164585300Y-59970000D01*
X113379000Y-96396300D02*
X113379000Y-96403700D01*
X85746700Y-98609200D02*
X95507700Y-88848200D01*
X117599000Y-52662000D02*
X111766000Y-52662000D01*
X108334000Y-96403700D02*
X108334000Y-96393300D01*
X99469200Y-102926400D02*
X99469200Y-102446000D01*
X85949500Y-108607400D02*
X91770100Y-114428000D01*
X202588800Y-74195000D02*
X201015800Y-75768000D01*
X174329000Y-63959600D02*
X174329000Y-65198000D01*
X112461400Y-80221400D02*
X113740000Y-81500000D01*
X113379000Y-96403700D02*
X120407200Y-96403700D01*
X99003600Y-105379000D02*
X99003600Y-104387000D01*
X130639300Y-137921900D02*
X122948500Y-137921900D01*
X204795500Y-74195000D02*
X202588800Y-74195000D01*
X98767800Y-103394000D02*
X98767800Y-104387000D01*
X109733000Y-130444000D02*
X109904300Y-130444000D01*
X123543400Y-112836400D02*
X127700000Y-116993000D01*
X122334000Y-137307400D02*
X122334000Y-137305600D01*
X199553000Y-82118000D02*
X198090200Y-82118000D01*
X91770100Y-114428000D02*
X98534000Y-114428000D01*
X121147800Y-112836400D02*
X123543400Y-112836400D01*
X204372000Y-103751000D02*
X203096700Y-103751000D01*
X98534000Y-103394000D02*
X98767800Y-103394000D01*
X127316000Y-129994000D02*
X128816300Y-129994000D01*
X98536000Y-105379000D02*
X99003600Y-105379000D01*
X108334000Y-96403700D02*
X104290000Y-96403700D01*
X124984000Y-60047000D02*
X117599000Y-52662000D01*
X161884700Y-59970000D02*
X159886800Y-61967900D01*
X120699500Y-106441000D02*
X120699500Y-103941500D01*
X148601900Y-61967900D02*
X148445000Y-61811000D01*
X137138000Y-134789000D02*
X134529300Y-132180300D01*
X193429000Y-96500000D02*
X196468400Y-96500000D01*
X99001600Y-103394000D02*
X99469200Y-102926400D01*
X155480500Y-98944500D02*
X154232000Y-97696000D01*
X98767800Y-103394000D02*
X99001600Y-103394000D01*
X90035000Y-65073000D02*
X90835300Y-65073000D01*
X198090200Y-82118000D02*
X198090200Y-75768000D01*
X104240000Y-82283800D02*
X104240000Y-80221400D01*
X179578000Y-65201000D02*
X185249700Y-65201000D01*
X195994800Y-73672600D02*
X198090200Y-75768000D01*
X187631000Y-74956200D02*
X188914600Y-73672600D01*
X203116500Y-82118000D02*
X199553000Y-82118000D01*
X217374900Y-75654100D02*
X218532000Y-74497000D01*
X131167000Y-134788000D02*
X131167000Y-137394200D01*
X128816300Y-128686000D02*
X128814300Y-128684000D01*
X173821500Y-63452100D02*
X174329000Y-63959600D01*
X100462800Y-63965200D02*
X99483000Y-63965200D01*
X148445000Y-61811000D02*
X146681000Y-60047000D01*
X200891500Y-96500000D02*
X196468400Y-96500000D01*
X119047300Y-113862800D02*
X120542000Y-112368100D01*
X140698500Y-122515800D02*
X140698500Y-122138000D01*
X101218600Y-84161100D02*
X101222700Y-84157000D01*
X95838300Y-137510800D02*
X98270500Y-139943000D01*
X218475000Y-88947000D02*
X217374900Y-87846900D01*
X103157400Y-82931000D02*
X102723000Y-83365400D01*
X109622000Y-136936000D02*
X109733000Y-136936000D01*
X185249700Y-65201000D02*
X185260700Y-65212000D01*
X187631000Y-76696000D02*
X187631000Y-74956200D01*
X155480500Y-98944500D02*
X154228000Y-100197000D01*
X196468400Y-107848600D02*
X196468400Y-96500000D01*
X169333000Y-65199000D02*
X169333000Y-67796800D01*
X119047300Y-115790200D02*
X119047300Y-113862800D01*
X104290000Y-96403700D02*
X104290000Y-96393300D01*
X133029000Y-128685000D02*
X134529300Y-128685000D01*
X131528700Y-128685000D02*
X128817300Y-128685000D01*
X85949500Y-104201000D02*
X85949500Y-108607400D01*
X171010000Y-63452100D02*
X171010000Y-63522000D01*
X88242000Y-132439000D02*
X88242000Y-129136000D01*
X111766000Y-52662000D02*
X100462800Y-63965200D01*
X87055900Y-127949900D02*
X88242000Y-129136000D01*
X102722000Y-82931000D02*
X103157400Y-82931000D01*
X167450000Y-69767500D02*
X165778500Y-71439000D01*
X164279000Y-65194000D02*
X167450000Y-68365000D01*
X122948500Y-137921900D02*
X122948500Y-138473500D01*
X103592800Y-82931000D02*
X104240000Y-82283800D01*
X98534000Y-102446000D02*
X99469200Y-102446000D01*
X122948500Y-137921900D02*
X122334000Y-137307400D01*
X133774700Y-132180300D02*
X131167000Y-134788000D01*
X214661800Y-72941000D02*
X206049500Y-72941000D01*
X183635300Y-95597300D02*
X182732000Y-94694000D01*
X120679500Y-112368100D02*
X120679500Y-111542000D01*
X101970900Y-88050000D02*
X101220700Y-88050000D01*
X99483000Y-63965200D02*
X99483000Y-67716000D01*
X173256000Y-54892000D02*
X169223500Y-58924500D01*
X204794500Y-71686000D02*
X206049500Y-72941000D01*
X120733000Y-101136000D02*
X120733000Y-96729500D01*
X184643900Y-98273400D02*
X186138800Y-98273400D01*
X149333000Y-90196000D02*
X154190500Y-90196000D01*
X206049500Y-72941000D02*
X204795500Y-74195000D01*
X100405400Y-114426900D02*
X100405400Y-105795900D01*
X95838300Y-137016000D02*
X95838300Y-137510800D01*
X169333000Y-67796800D02*
X168764800Y-68365000D01*
X100404300Y-114428000D02*
X100405400Y-114426900D01*
X168764800Y-68365000D02*
X167450000Y-68365000D01*
X120733000Y-103908000D02*
X120733000Y-101136000D01*
X87055900Y-123099100D02*
X87055900Y-127949900D01*
X158685400Y-93278400D02*
X158685400Y-97811900D01*
X120679500Y-112368100D02*
X121147800Y-112836400D01*
X112726400Y-116229800D02*
X113374000Y-116877400D01*
X104290000Y-94523000D02*
X104290000Y-96393300D01*
X109733000Y-133444000D02*
X109733000Y-130444000D01*
X198483800Y-75768000D02*
X198090200Y-75768000D01*
%TO.N,VCC*%
X88790500Y-78826800D02*
X99696500Y-78826800D01*
X177678000Y-68263900D02*
X177678000Y-65201000D01*
X156230000Y-78694000D02*
X156230000Y-76197000D01*
X207565900Y-68684900D02*
X207565900Y-69197000D01*
X186471500Y-93457500D02*
X188486500Y-93457500D01*
X199922000Y-93455500D02*
X190965500Y-93455500D01*
X149176000Y-87813000D02*
X139016000Y-87813000D01*
X120288800Y-125788800D02*
X122236000Y-127736000D01*
X177622800Y-68319100D02*
X177678000Y-68263900D01*
X185731000Y-78523300D02*
X185731000Y-76696000D01*
X206827000Y-67946000D02*
X207565900Y-68684900D01*
X119431400Y-138701200D02*
X119483200Y-138753000D01*
X126557800Y-70332300D02*
X126557800Y-74658400D01*
X204372000Y-99941000D02*
X205647300Y-99941000D01*
X156230000Y-76197000D02*
X156231000Y-76196000D01*
X99696500Y-73452900D02*
X112803100Y-73452900D01*
X121723100Y-132901900D02*
X126209100Y-132901900D01*
X167433000Y-65199000D02*
X166616900Y-64382900D01*
X177732000Y-72194000D02*
X178942800Y-73404800D01*
X172917500Y-68319100D02*
X177622800Y-68319100D01*
X101564900Y-129332600D02*
X101551300Y-129319000D01*
X182033500Y-72998500D02*
X180858500Y-72998500D01*
X180832000Y-93455700D02*
X175815300Y-88439000D01*
X119093500Y-131667100D02*
X119093500Y-126984100D01*
X171452200Y-66144200D02*
X172509500Y-67201500D01*
X171452200Y-66144200D02*
X172398400Y-65198000D01*
X107745900Y-139944000D02*
X108988700Y-138701200D01*
X156232000Y-81197000D02*
X156232000Y-78696000D01*
X112803100Y-73452900D02*
X114312000Y-71944000D01*
X135134500Y-120854000D02*
X134529300Y-121459200D01*
X190965500Y-93455500D02*
X189725000Y-94696000D01*
X206869500Y-69959100D02*
X204091900Y-69959100D01*
X120484000Y-139038000D02*
X120199000Y-138753000D01*
X204287600Y-97130800D02*
X203597300Y-97130800D01*
X129730000Y-67695000D02*
X127092700Y-70332300D01*
X172398400Y-65198000D02*
X172429000Y-65198000D01*
X108988700Y-138701200D02*
X119431400Y-138701200D01*
X169943500Y-126657500D02*
X175730000Y-132444000D01*
X101860900Y-129332600D02*
X101564900Y-129332600D01*
X172509500Y-67911100D02*
X172917500Y-68319100D01*
X180859100Y-93428600D02*
X183957600Y-93428600D01*
X163129400Y-122226500D02*
X157349000Y-116446100D01*
X206869500Y-71194000D02*
X206869500Y-69959100D01*
X135238000Y-134789000D02*
X133950200Y-133501200D01*
X157680000Y-73698000D02*
X157770300Y-73607700D01*
X214155800Y-107001800D02*
X223689000Y-116535000D01*
X120199000Y-138753000D02*
X119483200Y-138753000D01*
X127999800Y-134692600D02*
X129171600Y-134692600D01*
X121025700Y-133599300D02*
X121723100Y-132901900D01*
X180452200Y-73404800D02*
X180858500Y-72998500D01*
X206206500Y-107001800D02*
X214155800Y-107001800D01*
X201015800Y-73035200D02*
X201015800Y-74498000D01*
X139016000Y-87813000D02*
X133936000Y-92893000D01*
X127307400Y-75408000D02*
X128395200Y-75408000D01*
X97448900Y-141196400D02*
X96195500Y-139943000D01*
X107734000Y-139944000D02*
X106481600Y-141196400D01*
X126557800Y-74658400D02*
X127307400Y-75408000D01*
X139016000Y-83488800D02*
X139016000Y-87813000D01*
X114312000Y-71944000D02*
X115764800Y-71944000D01*
X180858500Y-72998500D02*
X180858500Y-71444400D01*
X142773500Y-120854000D02*
X152941100Y-120854000D01*
X99696500Y-77701000D02*
X99696500Y-78826800D01*
X166616900Y-64382900D02*
X166616900Y-64091300D01*
X133950200Y-133501200D02*
X133771900Y-133501200D01*
X166616900Y-64091300D02*
X166479000Y-63953400D01*
X163619600Y-63953400D02*
X162379000Y-65194000D01*
X172509500Y-67201500D02*
X172509500Y-67911100D01*
X184731000Y-107439000D02*
X169943500Y-122226500D01*
X126209100Y-132901900D02*
X127999800Y-134692600D01*
X120434000Y-134191000D02*
X121025700Y-133599300D01*
X82383300Y-85234000D02*
X88790500Y-78826800D01*
X165224000Y-90196000D02*
X166981000Y-88439000D01*
X156233000Y-66192000D02*
X157231000Y-65194000D01*
X156232000Y-78696000D02*
X156230000Y-78694000D01*
X119093500Y-126984100D02*
X120288800Y-125788800D01*
X183957600Y-93428600D02*
X185229000Y-94700000D01*
X156265500Y-90196000D02*
X165224000Y-90196000D01*
X156233000Y-76194000D02*
X156233000Y-73698000D01*
X128395200Y-75408000D02*
X131910200Y-78923000D01*
X129171600Y-134692600D02*
X129267000Y-134788000D01*
X134450200Y-78923000D02*
X139016000Y-83488800D01*
X185731000Y-76696000D02*
X182033500Y-72998500D01*
X99696500Y-78826800D02*
X101220700Y-80351000D01*
X120235000Y-124434000D02*
X120235000Y-125735000D01*
X134529300Y-122297000D02*
X134529300Y-121459200D01*
X166479000Y-63953400D02*
X163619600Y-63953400D01*
X99696500Y-73329500D02*
X99696500Y-73452900D01*
X199553000Y-74498000D02*
X201015800Y-74498000D01*
X134529300Y-121459200D02*
X134017900Y-120947800D01*
X152941100Y-120854000D02*
X157349000Y-116446100D01*
X203597300Y-97130800D02*
X202966500Y-96500000D01*
X169943500Y-122226500D02*
X163129400Y-122226500D01*
X102721000Y-80351000D02*
X101220700Y-80351000D01*
X99483000Y-73116000D02*
X99696500Y-73329500D01*
X205647300Y-99941000D02*
X206206500Y-100500200D01*
X142773500Y-122138000D02*
X142773500Y-120854000D01*
X133029000Y-122297000D02*
X134529300Y-122297000D01*
X175815300Y-88439000D02*
X185731000Y-78523300D01*
X202966500Y-96500000D02*
X199922000Y-93455500D01*
X204091900Y-69959100D02*
X201015800Y-73035200D01*
X178942800Y-73404800D02*
X180452200Y-73404800D01*
X157349000Y-116446100D02*
X157349000Y-111815000D01*
X204372000Y-107561000D02*
X205647300Y-107561000D01*
X153882500Y-87813000D02*
X149176000Y-87813000D01*
X180858500Y-71444400D02*
X177678000Y-68263900D01*
X121025700Y-133599300D02*
X119093500Y-131667100D01*
X206869500Y-69959100D02*
X206869500Y-69893400D01*
X126557800Y-70332300D02*
X117376500Y-70332300D01*
X205647300Y-107561000D02*
X206206500Y-107001800D01*
X188486500Y-93457500D02*
X189725000Y-94696000D01*
X206869500Y-69893400D02*
X207565900Y-69197000D01*
X81033000Y-85234000D02*
X82383300Y-85234000D01*
X207565900Y-69197000D02*
X216232000Y-69197000D01*
X99696500Y-73452900D02*
X99696500Y-77701000D01*
X117376500Y-70332300D02*
X115764800Y-71944000D01*
X156265500Y-90196000D02*
X153882500Y-87813000D01*
X120235000Y-125735000D02*
X120288800Y-125788800D01*
X180832000Y-94694000D02*
X180832000Y-93455700D01*
X127092700Y-70332300D02*
X126557800Y-70332300D01*
X206206500Y-100500200D02*
X206206500Y-107001800D01*
X157349000Y-111815000D02*
X156228000Y-110694000D01*
X100051000Y-129319000D02*
X101551300Y-129319000D01*
X156231000Y-76196000D02*
X156233000Y-76194000D01*
X169943500Y-122226500D02*
X169943500Y-126657500D01*
X175815300Y-88439000D02*
X166981000Y-88439000D01*
X107734000Y-139944000D02*
X107745900Y-139944000D01*
X157231000Y-65194000D02*
X162379000Y-65194000D01*
X142773500Y-120854000D02*
X135134500Y-120854000D01*
X156233000Y-73698000D02*
X157680000Y-73698000D01*
X131910200Y-78923000D02*
X134450200Y-78923000D01*
X180832000Y-93455700D02*
X180859100Y-93428600D01*
X106481600Y-141196400D02*
X97448900Y-141196400D01*
X185229000Y-94700000D02*
X186471500Y-93457500D01*
D46*
%TO.N,Wire55*%
X199553000Y-80848000D02*
X200840800Y-80848000D01*
X156231000Y-105696000D02*
X155203100Y-104668100D01*
X182474500Y-96569000D02*
X182731000Y-96825500D01*
X201137000Y-80985800D02*
X200978600Y-80985800D01*
X181782000Y-96569000D02*
X182474500Y-96569000D01*
X155203100Y-104668100D02*
X150100900Y-104668100D01*
X150100900Y-104668100D02*
X149176000Y-105593000D01*
X200978600Y-80985800D02*
X200840800Y-80848000D01*
%TO.N,Wire42*%
X137764000Y-132332400D02*
X137142300Y-131710700D01*
X136188000Y-136664000D02*
X136727200Y-136664000D01*
X136727200Y-136664000D02*
X137764000Y-135627200D01*
X137764000Y-135627200D02*
X137764000Y-132332400D01*
X133885700Y-138966300D02*
X136188000Y-136664000D01*
X127936000Y-140436000D02*
X129405700Y-138966300D01*
X129405700Y-138966300D02*
X133885700Y-138966300D01*
%TO.N,Wire41*%
X129848500Y-122859800D02*
X129848500Y-123496600D01*
X130217000Y-136663000D02*
X130217000Y-134312900D01*
X121268000Y-128768000D02*
X120236000Y-127736000D01*
X128596500Y-121607800D02*
X129848500Y-122859800D01*
X124177700Y-128676000D02*
X123377000Y-128676000D01*
X124177700Y-128676000D02*
X124177700Y-123400400D01*
X123285000Y-128768000D02*
X121268000Y-128768000D01*
X126171000Y-130669300D02*
X124177700Y-128676000D01*
X129848500Y-123496600D02*
X130913300Y-124561400D01*
X130217000Y-134312900D02*
X126573400Y-130669300D01*
X130913300Y-124561400D02*
X130913300Y-125310600D01*
X130913300Y-125310600D02*
X131705700Y-126103000D01*
X120233000Y-129803000D02*
X121268000Y-128768000D01*
X123377000Y-128676000D02*
X123285000Y-128768000D01*
X124177700Y-123400400D02*
X125970300Y-121607800D01*
X126573400Y-130669300D02*
X126171000Y-130669300D01*
X120233000Y-130935000D02*
X120233000Y-129803000D01*
X133031000Y-126103000D02*
X131705700Y-126103000D01*
X125970300Y-121607800D02*
X128596500Y-121607800D01*
%TO.N,Wire66*%
X197883000Y-64211300D02*
X202433000Y-59661300D01*
X197191000Y-67412000D02*
X197883000Y-66720000D01*
X187011000Y-67412000D02*
X197191000Y-67412000D01*
X202433000Y-58486000D02*
X202433000Y-59661300D01*
X197883000Y-66720000D02*
X197883000Y-64211300D01*
%TO.N,Wire43*%
X166994500Y-63328000D02*
X168383000Y-64716500D01*
X154231000Y-66194000D02*
X154233000Y-66192000D01*
X168383000Y-64716500D02*
X168383000Y-67074000D01*
X154231000Y-68695000D02*
X154231000Y-67493000D01*
X154233000Y-66192000D02*
X157097000Y-63328000D01*
X154231000Y-67493000D02*
X154231000Y-66194000D01*
X154231000Y-67493000D02*
X149176000Y-67493000D01*
X157097000Y-63328000D02*
X166994500Y-63328000D01*
%TO.N,Wire23*%
X118740300Y-103116000D02*
X118740300Y-108456000D01*
X157159400Y-93624400D02*
X157159400Y-95909400D01*
X120736000Y-109523500D02*
X120736000Y-108980000D01*
X122939100Y-115488900D02*
X122939100Y-114306100D01*
X118400700Y-112180700D02*
X118400700Y-114252300D01*
X126287500Y-116993000D02*
X125800000Y-116993000D01*
X127365000Y-118070500D02*
X126287500Y-116993000D01*
X125800000Y-116993000D02*
X124443200Y-116993000D01*
X120238000Y-118190000D02*
X122939100Y-115488900D01*
X124443200Y-116993000D02*
X122939100Y-115488900D01*
X156233000Y-92698000D02*
X157159400Y-93624400D01*
X118085300Y-102461000D02*
X118740300Y-103116000D01*
X128361300Y-116242900D02*
X128361300Y-116872100D01*
X156230000Y-115695000D02*
X155052900Y-116872100D01*
X155052900Y-116872100D02*
X149824900Y-116872100D01*
X149824900Y-117045800D02*
X149824900Y-116872100D01*
X120897000Y-109684400D02*
X118400700Y-112180700D01*
X122939100Y-114306100D02*
X122736000Y-114103000D01*
X117691300Y-114961700D02*
X117691300Y-115482000D01*
X128361300Y-116872100D02*
X128361300Y-117821500D01*
X115996000Y-115482000D02*
X117691300Y-115482000D01*
X149824900Y-116872100D02*
X128361300Y-116872100D01*
X120736000Y-108980000D02*
X120212000Y-108456000D01*
X156622800Y-96446000D02*
X155155800Y-96446000D01*
X122754500Y-111542000D02*
X123660400Y-111542000D01*
X118400700Y-114252300D02*
X117691300Y-114961700D01*
X128112300Y-118070500D02*
X127365000Y-118070500D01*
X123660400Y-111542000D02*
X128361300Y-116242900D01*
X120212000Y-108456000D02*
X118740300Y-108456000D01*
X120897000Y-109684400D02*
X122754500Y-111542000D01*
X157159400Y-95909400D02*
X156622800Y-96446000D01*
X118740300Y-108456000D02*
X115995000Y-108456000D01*
X115996000Y-102461000D02*
X118085300Y-102461000D01*
X120897000Y-109684400D02*
X120736000Y-109523500D01*
X128361300Y-117821500D02*
X128112300Y-118070500D01*
%TO.N,Wire150*%
X88433000Y-119693000D02*
X88826400Y-120086400D01*
X104289000Y-118389000D02*
X103296000Y-118389000D01*
X104348400Y-121136700D02*
X103296000Y-120084300D01*
X108115000Y-121136700D02*
X104348400Y-121136700D01*
X103296000Y-118389000D02*
X103296000Y-120084300D01*
X103293900Y-120086400D02*
X103296000Y-120084300D01*
X110668100Y-126510900D02*
X110668100Y-123689800D01*
X110668100Y-123689800D02*
X108115000Y-121136700D01*
X125363400Y-120254600D02*
X117779300Y-120254600D01*
X126750000Y-118868000D02*
X125363400Y-120254600D01*
X88826400Y-120086400D02*
X103293900Y-120086400D01*
X109735000Y-127444000D02*
X110668100Y-126510900D01*
%TO.N,Wire45*%
X153069000Y-70033000D02*
X154231000Y-71195000D01*
X163329000Y-67343900D02*
X160887200Y-69785700D01*
X154233000Y-71195000D02*
X154233000Y-73698000D01*
X149176000Y-70033000D02*
X153069000Y-70033000D01*
X163329000Y-67069000D02*
X163329000Y-67343900D01*
X155642300Y-69785700D02*
X154233000Y-71195000D01*
X160887200Y-69785700D02*
X155642300Y-69785700D01*
X154233000Y-71195000D02*
X154231000Y-71195000D01*
%TO.N,Wire59*%
X154233000Y-110699000D02*
X154233000Y-113195000D01*
X149197000Y-110694000D02*
X149176000Y-110673000D01*
X154228000Y-110694000D02*
X154233000Y-110699000D01*
X190675000Y-96571000D02*
X188041700Y-96571000D01*
X154228000Y-110694000D02*
X149197000Y-110694000D01*
%TO.N,Wire63*%
X182731000Y-104443000D02*
X182731000Y-107439000D01*
X172727000Y-104440000D02*
X167764000Y-109403000D01*
X182728000Y-103987000D02*
X183525900Y-103189100D01*
X135206000Y-109403000D02*
X133936000Y-110673000D01*
X172727000Y-104440000D02*
X182728000Y-104440000D01*
X167764000Y-109403000D02*
X135206000Y-109403000D01*
X182728000Y-104440000D02*
X182729000Y-104441000D01*
X185387100Y-97366900D02*
X185123700Y-97366900D01*
X182729000Y-104441000D02*
X182731000Y-104443000D01*
X186179000Y-96575000D02*
X185387100Y-97366900D01*
X182728000Y-104440000D02*
X182728000Y-103987000D01*
%TO.N,Wire40*%
X122235000Y-123406200D02*
X122235000Y-124434000D01*
X118427800Y-124615400D02*
X119637000Y-123406200D01*
X131704700Y-124877000D02*
X131704700Y-124238500D01*
X118427800Y-133595500D02*
X118427800Y-124615400D01*
X131704700Y-124238500D02*
X130458100Y-122991900D01*
X130458100Y-122762500D02*
X128767600Y-121072000D01*
X119637000Y-123406200D02*
X122235000Y-123406200D01*
X122235000Y-121439000D02*
X122235000Y-123406200D01*
X128767600Y-121072000D02*
X122602000Y-121072000D01*
X133030000Y-124877000D02*
X131704700Y-124877000D01*
X130458100Y-122991900D02*
X130458100Y-122762500D01*
X122602000Y-121072000D02*
X122235000Y-121439000D01*
X120898300Y-136066000D02*
X118427800Y-133595500D01*
X121384000Y-136066000D02*
X120898300Y-136066000D01*
%TO.N,Wire4*%
X141248800Y-142927200D02*
X151733000Y-132443000D01*
X90106700Y-67020000D02*
X90359700Y-67273000D01*
X85772900Y-64081000D02*
X84990400Y-64081000D01*
X84990400Y-64081000D02*
X80241000Y-68830400D01*
X78905300Y-75847000D02*
X78905300Y-126067400D01*
X78905300Y-126067400D02*
X95765100Y-142927200D01*
X80241000Y-68830400D02*
X80241000Y-73336000D01*
X86353000Y-64661100D02*
X85772900Y-64081000D01*
X80241000Y-74511300D02*
X78905300Y-75847000D01*
X95765100Y-142927200D02*
X141248800Y-142927200D01*
X90985000Y-67273000D02*
X90359700Y-67273000D01*
X86353000Y-67020000D02*
X86353000Y-64661100D01*
X80241000Y-73336000D02*
X80241000Y-74511300D01*
X86353000Y-67020000D02*
X90106700Y-67020000D01*
%TO.N,Wire50*%
X172074400Y-64106000D02*
X170697200Y-65483200D01*
X173379000Y-64710400D02*
X172774600Y-64106000D01*
X157221700Y-84948500D02*
X155474500Y-84948500D01*
X164774700Y-72510200D02*
X163703500Y-71439000D01*
X166662200Y-72510200D02*
X166662200Y-75508000D01*
X170697200Y-65483200D02*
X170697200Y-68475200D01*
X172774600Y-64106000D02*
X172074400Y-64106000D01*
X153300000Y-85273000D02*
X154225000Y-86198000D01*
X170697200Y-68475200D02*
X166662200Y-72510200D01*
X155474500Y-84948500D02*
X154225000Y-86198000D01*
X173379000Y-67073000D02*
X173379000Y-64710400D01*
X166662200Y-72510200D02*
X164774700Y-72510200D01*
X149176000Y-85273000D02*
X153300000Y-85273000D01*
X166662200Y-75508000D02*
X157221700Y-84948500D01*
%TO.N,Wire6*%
X133936000Y-72573000D02*
X142585100Y-72573000D01*
X142585100Y-72573000D02*
X149136700Y-79124600D01*
X149136700Y-79124600D02*
X152481700Y-79124600D01*
X155303600Y-81955400D02*
X155612200Y-82264000D01*
X155612200Y-82264000D02*
X158876400Y-82264000D01*
X178628000Y-67076000D02*
X179529300Y-67076000D01*
X154607000Y-79946500D02*
X155303600Y-80643100D01*
X179732000Y-76194000D02*
X179732000Y-75279300D01*
X153303600Y-79946500D02*
X154607000Y-79946500D01*
X179732000Y-75279300D02*
X179342000Y-74889300D01*
X152481700Y-79124600D02*
X153303600Y-79946500D01*
X155303600Y-80643100D02*
X155303600Y-81955400D01*
%TO.N,Wire62*%
X206865500Y-61700000D02*
X206865500Y-64659500D01*
X206865500Y-64659500D02*
X206827000Y-64698000D01*
X186681000Y-75004000D02*
X186681000Y-78571000D01*
X205421700Y-68972400D02*
X192712600Y-68972400D01*
X206827000Y-64698000D02*
X205827000Y-65698000D01*
X186681000Y-78571000D02*
X186681000Y-87667800D01*
X170727000Y-104289900D02*
X170727000Y-104440000D01*
X171657400Y-103359500D02*
X170727000Y-104289900D01*
X192712600Y-68972400D02*
X186681000Y-75004000D01*
X205827000Y-68567100D02*
X205421700Y-68972400D01*
X205827000Y-65698000D02*
X205827000Y-68567100D01*
%TO.N,Wire38*%
X134510800Y-140443000D02*
X136933000Y-140443000D01*
X133450500Y-141503300D02*
X134510800Y-140443000D01*
X122024300Y-141503300D02*
X133450500Y-141503300D01*
X109734000Y-139944000D02*
X110703000Y-140913000D01*
X121434000Y-140913000D02*
X122024300Y-141503300D01*
X110703000Y-140913000D02*
X121434000Y-140913000D01*
%TO.N,Wire99*%
X187614600Y-118174600D02*
X186583000Y-117143000D01*
X208399400Y-118174600D02*
X187614600Y-118174600D01*
X209732000Y-116842000D02*
X208399400Y-118174600D01*
%TO.N,Wire101*%
X187641000Y-120652000D02*
X186582000Y-119593000D01*
X209732000Y-119382000D02*
X208462000Y-120652000D01*
X208462000Y-120652000D02*
X187641000Y-120652000D01*
%TO.N,Wire100*%
X195125100Y-123192000D02*
X190687900Y-123192000D01*
X186580000Y-124268800D02*
X186580000Y-124691000D01*
X209732000Y-124462000D02*
X196395100Y-124462000D01*
X190151600Y-122655700D02*
X188193100Y-122655700D01*
X196395100Y-124462000D02*
X195125100Y-123192000D01*
X190687900Y-123192000D02*
X190151600Y-122655700D01*
X188193100Y-122655700D02*
X186580000Y-124268800D01*
%TO.N,Wire97*%
X194492000Y-134622000D02*
X195437300Y-133676700D01*
X195437300Y-133676700D02*
X213464700Y-133676700D01*
X213464700Y-133676700D02*
X214432000Y-134644000D01*
%TO.N,Wire96*%
X194492000Y-132082000D02*
X195418200Y-133008200D01*
X213617800Y-133008200D02*
X214432000Y-132194000D01*
X195418200Y-133008200D02*
X213617800Y-133008200D01*
%TO.N,Wire95*%
X195434200Y-126059800D02*
X213448800Y-126059800D01*
X213448800Y-126059800D02*
X214432000Y-127043000D01*
X194492000Y-127002000D02*
X195434200Y-126059800D01*
%TO.N,Wire98*%
X213683800Y-125390200D02*
X214430000Y-124644000D01*
X195420200Y-125390200D02*
X213683800Y-125390200D01*
X194492000Y-124462000D02*
X195420200Y-125390200D01*
%TO.N,Wire94*%
X213714100Y-122861900D02*
X214432000Y-122144000D01*
X195431900Y-122861900D02*
X213714100Y-122861900D01*
X194492000Y-121922000D02*
X195431900Y-122861900D01*
%TO.N,Wire58*%
X157990400Y-106433600D02*
X158658200Y-106433600D01*
X187335700Y-65307900D02*
X186183200Y-66460400D01*
X187335700Y-65212000D02*
X187335700Y-65307900D01*
X187961000Y-65212000D02*
X187335700Y-65212000D01*
X156230000Y-108194000D02*
X157990400Y-106433600D01*
X186183200Y-66460400D02*
X186107600Y-66460400D01*
%TO.N,Wire3*%
X162996700Y-65988800D02*
X163661300Y-65988800D01*
X148922600Y-68763000D02*
X152435900Y-68763000D01*
X162747300Y-73209300D02*
X163733000Y-74195000D01*
X155700800Y-67599700D02*
X161385800Y-67599700D01*
X164204900Y-66532400D02*
X164204900Y-69218000D01*
X142037400Y-60672400D02*
X142994100Y-60672400D01*
X161385800Y-67599700D02*
X162996700Y-65988800D01*
X163661300Y-65988800D02*
X164204900Y-66532400D01*
X155159400Y-69446700D02*
X155159400Y-68141100D01*
X97332600Y-69845300D02*
X108248500Y-69845300D01*
X152435900Y-68763000D02*
X153406800Y-69733900D01*
X142994100Y-60672400D02*
X147831800Y-65510100D01*
X154872200Y-69733900D02*
X155159400Y-69446700D01*
X115346900Y-62746900D02*
X139962900Y-62746900D01*
X155159400Y-68141100D02*
X155700800Y-67599700D01*
X139962900Y-62746900D02*
X142037400Y-60672400D01*
X92560300Y-65073000D02*
X97332600Y-69845300D01*
X147831800Y-67672200D02*
X148922600Y-68763000D01*
X108248500Y-69845300D02*
X115346900Y-62746900D01*
X91935000Y-65073000D02*
X92560300Y-65073000D01*
X164204900Y-69218000D02*
X162747300Y-70675600D01*
X153406800Y-69733900D02*
X154872200Y-69733900D01*
X147831800Y-65510100D02*
X147831800Y-67672200D01*
X162747300Y-70675600D02*
X162747300Y-73209300D01*
%TO.N,Wire70*%
X191416800Y-74498000D02*
X192048200Y-75129400D01*
X204783500Y-77494000D02*
X201142400Y-77494000D01*
X190129000Y-74498000D02*
X191416800Y-74498000D01*
X192048200Y-75129400D02*
X194793300Y-75129400D01*
%TO.N,Wire68*%
X205819100Y-75246400D02*
X202818100Y-75246400D01*
X190129000Y-75768000D02*
X191416800Y-75768000D01*
X191945600Y-76296800D02*
X191416800Y-75768000D01*
X206870500Y-74195000D02*
X205819100Y-75246400D01*
X196530200Y-76296800D02*
X191945600Y-76296800D01*
%TO.N,Wire69*%
X207255100Y-86314500D02*
X189343500Y-86314500D01*
X189343500Y-86314500D02*
X187450300Y-84421300D01*
X208770400Y-84799200D02*
X207255100Y-86314500D01*
X206858500Y-77494000D02*
X208770400Y-79405900D01*
X208770400Y-79405900D02*
X208770400Y-84799200D01*
X187450300Y-78428900D02*
X188841200Y-77038000D01*
X190129000Y-77038000D02*
X188841200Y-77038000D01*
X187450300Y-84421300D02*
X187450300Y-78428900D01*
%TO.N,Wire72*%
X190129000Y-78308000D02*
X188841200Y-78308000D01*
X207080800Y-85851900D02*
X189530900Y-85851900D01*
X206864500Y-80698000D02*
X208287500Y-82121000D01*
X189530900Y-85851900D02*
X187921100Y-84242100D01*
X208287500Y-82121000D02*
X208287500Y-84645200D01*
X187921100Y-79228100D02*
X188841200Y-78308000D01*
X208287500Y-84645200D02*
X207080800Y-85851900D01*
X187921100Y-84242100D02*
X187921100Y-79228100D01*
%TO.N,Wire71*%
X204789500Y-80698000D02*
X206034700Y-81943200D01*
X190129000Y-79578000D02*
X188841200Y-79578000D01*
X206034700Y-81943200D02*
X206666400Y-81943200D01*
X206951600Y-85344200D02*
X189660100Y-85344200D01*
X188381200Y-84065300D02*
X188381200Y-80038000D01*
X189660100Y-85344200D02*
X188381200Y-84065300D01*
X206666400Y-81943200D02*
X207810800Y-83087600D01*
X207810800Y-83087600D02*
X207810800Y-84485000D01*
X188381200Y-80038000D02*
X188841200Y-79578000D01*
X207810800Y-84485000D02*
X206951600Y-85344200D01*
%TO.N,Wire73*%
X190129000Y-80848000D02*
X188841200Y-80848000D01*
X189837700Y-84861300D02*
X188841200Y-83864800D01*
X188841200Y-83864800D02*
X188841200Y-80848000D01*
X206870500Y-83797000D02*
X205806200Y-84861300D01*
X205806200Y-84861300D02*
X189837700Y-84861300D01*
%TO.N,Wire82*%
X199553000Y-79578000D02*
X200840800Y-79578000D01*
X201139700Y-79774100D02*
X201036900Y-79774100D01*
X201036900Y-79774100D02*
X200840800Y-79578000D01*
%TO.N,Wire84*%
X206282300Y-76393300D02*
X205821000Y-76854600D01*
X205355000Y-78612400D02*
X201145200Y-78612400D01*
X210036500Y-79029000D02*
X207400800Y-76393300D01*
X207400800Y-76393300D02*
X206282300Y-76393300D01*
X210036500Y-88818500D02*
X210036500Y-79029000D01*
X205821000Y-76854600D02*
X205821000Y-78146400D01*
X199553000Y-78308000D02*
X200840800Y-78308000D01*
X205821000Y-78146400D02*
X205355000Y-78612400D01*
X218475000Y-97257000D02*
X210036500Y-88818500D01*
X201145200Y-78612400D02*
X200840800Y-78308000D01*
%TO.N,Wire85*%
X200115600Y-77038000D02*
X199553000Y-77038000D01*
X200760300Y-76393300D02*
X200115600Y-77038000D01*
X211658000Y-80013400D02*
X207587600Y-75943000D01*
X211658000Y-87670000D02*
X211658000Y-80013400D01*
X207587600Y-75943000D02*
X205983100Y-75943000D01*
X205983100Y-75943000D02*
X205532800Y-76393300D01*
X218475000Y-94487000D02*
X211658000Y-87670000D01*
X205532800Y-76393300D02*
X200760300Y-76393300D01*
%TO.N,Wire9*%
X96837700Y-106409000D02*
X94629700Y-104201000D01*
X104917900Y-84762100D02*
X108235000Y-81445000D01*
X94629700Y-104201000D02*
X88024500Y-104201000D01*
X94330000Y-131897000D02*
X94336000Y-131891000D01*
X94629700Y-104201000D02*
X94629700Y-99178100D01*
X100278500Y-124926700D02*
X100049600Y-124926700D01*
X93010700Y-130583000D02*
X93010700Y-129316000D01*
X94336000Y-131891000D02*
X94336000Y-130583000D01*
X100278500Y-124926700D02*
X100278500Y-123700000D01*
X94335000Y-129316000D02*
X95660300Y-129316000D01*
X94629700Y-99178100D02*
X97590500Y-96217300D01*
X97590500Y-96217300D02*
X101271000Y-96217300D01*
X102795800Y-127444000D02*
X100278500Y-124926700D01*
X101271000Y-92826700D02*
X104917900Y-89179800D01*
X93010700Y-129316000D02*
X93010700Y-129129400D01*
X93010700Y-129129400D02*
X89527300Y-125646000D01*
X93010700Y-129316000D02*
X94335000Y-129316000D01*
X94336000Y-130583000D02*
X93010700Y-130583000D01*
X98533000Y-106409000D02*
X96837700Y-106409000D01*
X100049600Y-124926700D02*
X95660300Y-129316000D01*
X88024500Y-104201000D02*
X88024500Y-105539200D01*
X101271000Y-94522000D02*
X101271000Y-96217300D01*
X101271000Y-94522000D02*
X101271000Y-92826700D01*
X107735000Y-127444000D02*
X102795800Y-127444000D01*
X89527300Y-125646000D02*
X88438000Y-125646000D01*
X104917900Y-89179800D02*
X104917900Y-84762100D01*
%TO.N,Wire39*%
X125960700Y-124875000D02*
X125683300Y-124597600D01*
X122702300Y-119510300D02*
X122238000Y-119046000D01*
X109328000Y-118390000D02*
X109328000Y-120085300D01*
X122238000Y-119046000D02*
X122238000Y-118190000D01*
X110622900Y-121380200D02*
X109328000Y-120085300D01*
X127308000Y-124875000D02*
X125960700Y-124875000D01*
X113378000Y-121380200D02*
X110622900Y-121380200D01*
%TO.N,Wire34*%
X112346000Y-118389000D02*
X112346000Y-120084300D01*
X112346000Y-120376200D02*
X112346000Y-120084300D01*
X107734000Y-124459900D02*
X107734000Y-124443000D01*
X133029000Y-129996000D02*
X130567000Y-129996000D01*
X108799300Y-125525200D02*
X107734000Y-124459900D01*
%TO.N,Wire16*%
X113225700Y-111514000D02*
X113225700Y-112480900D01*
X113225700Y-112480900D02*
X112281000Y-113425600D01*
X114300700Y-110439000D02*
X113225700Y-111514000D01*
X98726700Y-131859700D02*
X98127800Y-131260800D01*
X98726700Y-131899000D02*
X98726700Y-131859700D01*
X115996000Y-110439000D02*
X114300700Y-110439000D01*
X92083100Y-129227600D02*
X90333600Y-129227600D01*
X100052000Y-131899000D02*
X98726700Y-131899000D01*
X90333600Y-129227600D02*
X90242000Y-129136000D01*
%TO.N,Wire17*%
X111546800Y-113133800D02*
X111546800Y-113717100D01*
X98727700Y-133125000D02*
X98727700Y-133074000D01*
X112578000Y-112102600D02*
X111546800Y-113133800D01*
X90822000Y-131853000D02*
X90236000Y-132439000D01*
X111546800Y-113717100D02*
X112255600Y-114425900D01*
X98727700Y-133074000D02*
X98445000Y-132791300D01*
X115993000Y-109449000D02*
X114297700Y-109449000D01*
X112578000Y-111168700D02*
X112578000Y-112102600D01*
X92465200Y-131853000D02*
X90822000Y-131853000D01*
X114297700Y-109449000D02*
X112578000Y-111168700D01*
X112255600Y-114425900D02*
X112300000Y-114425900D01*
X100053000Y-133125000D02*
X98727700Y-133125000D01*
%TO.N,Wire37*%
X111573600Y-110192100D02*
X111573600Y-112081200D01*
X102288000Y-138146000D02*
X103498000Y-136936000D01*
X103498000Y-136936000D02*
X107736000Y-136936000D01*
X95661300Y-135706000D02*
X98101300Y-138146000D01*
X107736000Y-136936000D02*
X107736000Y-135573400D01*
X94336000Y-135706000D02*
X95661300Y-135706000D01*
X114301700Y-107464000D02*
X111573600Y-110192100D01*
X98101300Y-138146000D02*
X102288000Y-138146000D01*
X107736000Y-135573400D02*
X107822000Y-135487400D01*
X115997000Y-107464000D02*
X114301700Y-107464000D01*
%TO.N,Wire36*%
X111999600Y-115151300D02*
X113180400Y-115151300D01*
X108955500Y-131482300D02*
X108955500Y-132221500D01*
X114584400Y-116555300D02*
X114584400Y-124879500D01*
X110046300Y-129417600D02*
X109106000Y-129417600D01*
X115995000Y-106431000D02*
X114299700Y-106431000D01*
X107733000Y-133444000D02*
X106128200Y-133444000D01*
X106128200Y-133444000D02*
X101876500Y-137695700D01*
X98826200Y-137695700D02*
X95662300Y-134531800D01*
X95662300Y-134531800D02*
X95662300Y-134434000D01*
X110848300Y-114000000D02*
X111999600Y-115151300D01*
X101876500Y-137695700D02*
X98826200Y-137695700D01*
X108800400Y-129723200D02*
X108800400Y-131327200D01*
X108800400Y-131327200D02*
X108955500Y-131482300D01*
X113180400Y-115151300D02*
X114584400Y-116555300D01*
X114584400Y-124879500D02*
X110046300Y-129417600D01*
X94337000Y-134434000D02*
X95662300Y-134434000D01*
X109106000Y-129417600D02*
X108800400Y-129723200D01*
X108955500Y-132221500D02*
X107733000Y-133444000D01*
X114299700Y-106431000D02*
X110848300Y-109882400D01*
X110848300Y-109882400D02*
X110848300Y-114000000D01*
%TO.N,Wire35*%
X107733000Y-128832500D02*
X107733000Y-130444000D01*
X114299700Y-105402000D02*
X110398000Y-109303700D01*
X110398000Y-109303700D02*
X110398000Y-114186600D01*
X98936100Y-128574600D02*
X95662300Y-131848400D01*
X94337000Y-133123000D02*
X95662300Y-133123000D01*
X114112400Y-116720200D02*
X114112400Y-124714600D01*
X114112400Y-124714600D02*
X109994500Y-128832500D01*
X107733000Y-128832500D02*
X107475100Y-128574600D01*
X109994500Y-128832500D02*
X107733000Y-128832500D01*
X107475100Y-128574600D02*
X98936100Y-128574600D01*
X95662300Y-131848400D02*
X95662300Y-133123000D01*
X110398000Y-114186600D02*
X111815800Y-115604400D01*
X112996600Y-115604400D02*
X114112400Y-116720200D01*
X115995000Y-105402000D02*
X114299700Y-105402000D01*
X111815800Y-115604400D02*
X112996600Y-115604400D01*
%TO.N,Wire32*%
X127850200Y-113213000D02*
X133936000Y-113213000D01*
X120736000Y-114103000D02*
X121291300Y-114658300D01*
X121291300Y-114658300D02*
X121291300Y-115424000D01*
X115995000Y-104407000D02*
X117690300Y-104407000D01*
X117995000Y-104711700D02*
X117690300Y-104407000D01*
%TO.N,Wire30*%
X133936000Y-115753000D02*
X130662600Y-115753000D01*
X115997000Y-103414000D02*
X117692300Y-103414000D01*
X122733000Y-101136000D02*
X123738900Y-102141900D01*
X117692300Y-103414000D02*
X118011700Y-103414000D01*
%TO.N,Wire61*%
X154230000Y-115695000D02*
X149234000Y-115695000D01*
X123651200Y-110039700D02*
X122156700Y-110039700D01*
X147758800Y-114335800D02*
X127947300Y-114335800D01*
X121359600Y-107953600D02*
X119911500Y-107953600D01*
X119190600Y-102839400D02*
X117825200Y-101474000D01*
X121733300Y-108327300D02*
X121359600Y-107953600D01*
X117825200Y-101474000D02*
X117693300Y-101474000D01*
X149176000Y-115753000D02*
X147758800Y-114335800D01*
X119190600Y-107232700D02*
X119190600Y-102839400D01*
X115998000Y-101474000D02*
X117693300Y-101474000D01*
X121733300Y-109616300D02*
X121733300Y-108327300D01*
X149234000Y-115695000D02*
X149176000Y-115753000D01*
X119911500Y-107953600D02*
X119190600Y-107232700D01*
X127947300Y-114335800D02*
X123651200Y-110039700D01*
X122156700Y-110039700D02*
X121733300Y-109616300D01*
%TO.N,Wire31*%
X121325900Y-107497800D02*
X120092600Y-107497800D01*
X120092600Y-107497800D02*
X119650600Y-107055800D01*
X122868900Y-104690900D02*
X121737000Y-105822800D01*
X149176000Y-113213000D02*
X147906000Y-111943000D01*
X124614400Y-106436500D02*
X122868900Y-104690900D01*
X130806300Y-111943000D02*
X125299800Y-106436500D01*
X116000000Y-100477000D02*
X117695300Y-100477000D01*
X147906000Y-111943000D02*
X130806300Y-111943000D01*
X119650600Y-102432300D02*
X117695300Y-100477000D01*
X121737000Y-105822800D02*
X121737000Y-107086700D01*
X119650600Y-107055800D02*
X119650600Y-102432300D01*
X121737000Y-107086700D02*
X121325900Y-107497800D01*
X125299800Y-106436500D02*
X124614400Y-106436500D01*
X122733000Y-104555100D02*
X122733000Y-103908000D01*
X122868900Y-104690900D02*
X122733000Y-104555100D01*
%TO.N,Wire54*%
X149539100Y-101239200D02*
X149176000Y-100876100D01*
X156228000Y-100197000D02*
X155185800Y-101239200D01*
X117750000Y-99501700D02*
X117695300Y-99447000D01*
X149176000Y-100876100D02*
X149176000Y-100513000D01*
X119802500Y-99501700D02*
X117750000Y-99501700D01*
X149176000Y-100876100D02*
X135476000Y-100876100D01*
X155185800Y-101239200D02*
X149539100Y-101239200D01*
X135476000Y-100876100D02*
X134715300Y-101636800D01*
X134715300Y-101636800D02*
X125992900Y-101636800D01*
X116000000Y-99447000D02*
X117695300Y-99447000D01*
%TO.N,Wire53*%
X116000000Y-98453000D02*
X119827800Y-98453000D01*
X130465700Y-96754800D02*
X146786300Y-96754800D01*
X157440500Y-97479100D02*
X156448900Y-97479100D01*
X156448900Y-97479100D02*
X156232000Y-97696000D01*
%TO.N,Wire52*%
X155199700Y-94162700D02*
X150446300Y-94162700D01*
X149176000Y-95433000D02*
X145545700Y-99063300D01*
X127374100Y-99063300D02*
X121137500Y-92826700D01*
X150446300Y-94162700D02*
X149176000Y-95433000D01*
X156233000Y-95196000D02*
X155199700Y-94162700D01*
X112342000Y-94522000D02*
X112342000Y-92826700D01*
X121137500Y-92826700D02*
X112342000Y-92826700D01*
X145545700Y-99063300D02*
X127374100Y-99063300D01*
%TO.N,Wire51*%
X124945700Y-93964100D02*
X123355400Y-92373800D01*
X123355400Y-92373800D02*
X111772900Y-92373800D01*
X111315000Y-94527000D02*
X111315000Y-92831700D01*
X111772900Y-92373800D02*
X111315000Y-92831700D01*
X148104900Y-93964100D02*
X124945700Y-93964100D01*
X149176000Y-92893000D02*
X148104900Y-93964100D01*
X154233000Y-92698000D02*
X149371000Y-92698000D01*
X149371000Y-92698000D02*
X149176000Y-92893000D01*
%TO.N,Wire10*%
X106235000Y-81445000D02*
X104362900Y-83317100D01*
X98638300Y-81922000D02*
X98331300Y-81615000D01*
X104362900Y-83317100D02*
X104362900Y-83435300D01*
X97006000Y-81615000D02*
X98331300Y-81615000D01*
X109327000Y-94522000D02*
X109327000Y-92826700D01*
X109327000Y-92826700D02*
X109229600Y-92729300D01*
X109229600Y-92729300D02*
X109229600Y-92520600D01*
X98815700Y-81922000D02*
X98638300Y-81922000D01*
%TO.N,Wire22*%
X122774500Y-108941500D02*
X122736000Y-108980000D01*
X105320000Y-94526000D02*
X105320000Y-92830700D01*
X122774500Y-107161800D02*
X122774500Y-108941500D01*
X122774500Y-106441000D02*
X122774500Y-107161800D01*
X110289700Y-90434600D02*
X107896600Y-92827700D01*
X110333400Y-90434600D02*
X110573000Y-90195000D01*
X107896600Y-92827700D02*
X105323000Y-92827700D01*
X110333400Y-90434600D02*
X110289700Y-90434600D01*
X105323000Y-92827700D02*
X105320000Y-92830700D01*
X122774500Y-107161800D02*
X124999300Y-107161800D01*
X110573000Y-90195000D02*
X112734000Y-90195000D01*
%TO.N,Wire18*%
X103796000Y-92325700D02*
X103294000Y-92827700D01*
X103294000Y-94523000D02*
X103294000Y-92827700D01*
X110345000Y-87395000D02*
X113740000Y-84000000D01*
X108234000Y-87395000D02*
X109170100Y-87395000D01*
X107761700Y-92325700D02*
X103796000Y-92325700D01*
X109170100Y-87395000D02*
X109170100Y-90917300D01*
X109170100Y-90917300D02*
X107761700Y-92325700D01*
X109170100Y-87395000D02*
X110345000Y-87395000D01*
%TO.N,Wire20*%
X107176900Y-91251100D02*
X103840600Y-91251100D01*
X108233000Y-90195000D02*
X107176900Y-91251100D01*
X103840600Y-91251100D02*
X102265000Y-92826700D01*
X102265000Y-94522000D02*
X102265000Y-92826700D01*
%TO.N,Wire86*%
X222327400Y-122144000D02*
X227435300Y-117036100D01*
X223645000Y-115359700D02*
X207551000Y-99265700D01*
X227435300Y-116078100D02*
X226716900Y-115359700D01*
X226716900Y-115359700D02*
X223645000Y-115359700D01*
X227435300Y-117036100D02*
X227435300Y-116078100D01*
X207551000Y-99265700D02*
X200697600Y-99265700D01*
X216432000Y-122144000D02*
X222327400Y-122144000D01*
X200697600Y-99265700D02*
X200022300Y-99941000D01*
X198922000Y-99941000D02*
X200022300Y-99941000D01*
%TO.N,Wire87*%
X197821700Y-99403300D02*
X197821700Y-101211000D01*
X207730500Y-98808300D02*
X198416700Y-98808300D01*
X198922000Y-101211000D02*
X197821700Y-101211000D01*
X223831500Y-114909300D02*
X207730500Y-98808300D01*
X226904300Y-114909300D02*
X223831500Y-114909300D01*
X216432000Y-127043000D02*
X218065300Y-127043000D01*
X218065300Y-127043000D02*
X227885700Y-117222600D01*
X227885700Y-115890700D02*
X226904300Y-114909300D01*
X198416700Y-98808300D02*
X197821700Y-99403300D01*
X227885700Y-117222600D02*
X227885700Y-115890700D01*
%TO.N,Wire88*%
X216432000Y-132194000D02*
X228336000Y-120290000D01*
X198922000Y-102481000D02*
X197821700Y-102481000D01*
X207886400Y-98327200D02*
X198241900Y-98327200D01*
X197330300Y-99238800D02*
X197330300Y-101989600D01*
X226640600Y-114008700D02*
X223567900Y-114008700D01*
X198241900Y-98327200D02*
X197330300Y-99238800D01*
X197330300Y-101989600D02*
X197821700Y-102481000D01*
X228336000Y-120290000D02*
X228336000Y-115704100D01*
X223567900Y-114008700D02*
X207886400Y-98327200D01*
X228336000Y-115704100D02*
X226640600Y-114008700D01*
%TO.N,Wire89*%
X197821700Y-103751000D02*
X197716500Y-103856200D01*
X188580000Y-124691000D02*
X188580000Y-123386900D01*
X198922000Y-103751000D02*
X197821700Y-103751000D01*
X197716500Y-103856200D02*
X197380300Y-103856200D01*
%TO.N,Wire90*%
X197821700Y-106999600D02*
X197496300Y-107325000D01*
X197821700Y-105021000D02*
X197821700Y-106999600D01*
X198922000Y-105021000D02*
X197821700Y-105021000D01*
X191637300Y-119413300D02*
X188761700Y-119413300D01*
X188761700Y-119413300D02*
X188582000Y-119593000D01*
%TO.N,Wire91*%
X198922000Y-106291000D02*
X200022300Y-106291000D01*
X200627100Y-106214100D02*
X200099200Y-106214100D01*
X215192000Y-123406000D02*
X215192000Y-123394000D01*
X200099200Y-106214100D02*
X200022300Y-106291000D01*
X216430000Y-124644000D02*
X215192000Y-123406000D01*
%TO.N,Wire92*%
X215432000Y-133644000D02*
X215432000Y-133595200D01*
X200390100Y-107664000D02*
X200125300Y-107664000D01*
X216432000Y-134644000D02*
X215432000Y-133644000D01*
X200125300Y-107664000D02*
X200022300Y-107561000D01*
X198922000Y-107561000D02*
X200022300Y-107561000D01*
%TO.N,Wire81*%
X159566200Y-102005800D02*
X157450600Y-104121400D01*
X203271700Y-107404000D02*
X200240700Y-110435000D01*
X195096400Y-110435000D02*
X186667200Y-102005800D01*
X186667200Y-102005800D02*
X159566200Y-102005800D01*
X135407600Y-104121400D02*
X133936000Y-105593000D01*
X157450600Y-104121400D02*
X135407600Y-104121400D01*
X203271700Y-106291000D02*
X203271700Y-107404000D01*
X204372000Y-106291000D02*
X203271700Y-106291000D01*
X200240700Y-110435000D02*
X195096400Y-110435000D01*
%TO.N,Wire83*%
X202378300Y-105914400D02*
X202378300Y-107620700D01*
X195265900Y-109967600D02*
X185370300Y-100072000D01*
X149775200Y-72573000D02*
X149176000Y-72573000D01*
X152067900Y-74865700D02*
X149775200Y-72573000D01*
X204372000Y-105021000D02*
X203271700Y-105021000D01*
X202378300Y-107620700D02*
X200031400Y-109967600D01*
X185370300Y-100072000D02*
X163830700Y-100072000D01*
X200031400Y-109967600D02*
X195265900Y-109967600D01*
X203271700Y-105021000D02*
X202378300Y-105914400D01*
%TO.N,Wire80*%
X157255100Y-101861900D02*
X159770400Y-99346600D01*
X133936000Y-103053000D02*
X135127100Y-101861900D01*
X186840600Y-99346600D02*
X197011300Y-109517300D01*
X199844800Y-109517300D02*
X201357700Y-108004400D01*
X204372000Y-102481000D02*
X203271700Y-102481000D01*
X201357700Y-108004400D02*
X201357700Y-104395000D01*
X197011300Y-109517300D02*
X199844800Y-109517300D01*
X201357700Y-104395000D02*
X203271700Y-102481000D01*
X135127100Y-101861900D02*
X157255100Y-101861900D01*
X159770400Y-99346600D02*
X186840600Y-99346600D01*
%TO.N,Wire93*%
X203271700Y-101211000D02*
X200845900Y-103636800D01*
X204372000Y-101211000D02*
X203271700Y-101211000D01*
X200845900Y-103636800D02*
X200340200Y-103636800D01*
X188583000Y-116196400D02*
X189376600Y-115402800D01*
X188583000Y-117143000D02*
X188583000Y-116196400D01*
%TO.N,Wire26*%
X150259000Y-76196000D02*
X154231000Y-76196000D01*
X149176000Y-75113000D02*
X150259000Y-76196000D01*
%TO.N,Wire25*%
X153189000Y-77653000D02*
X149176000Y-77653000D01*
X154230000Y-78694000D02*
X153189000Y-77653000D01*
%TO.N,Wire24*%
X127857000Y-71598000D02*
X132452200Y-76193200D01*
X150180000Y-81197000D02*
X149176000Y-80193000D01*
X154232000Y-81197000D02*
X150180000Y-81197000D01*
X145176200Y-76193200D02*
X149176000Y-80193000D01*
X132452200Y-76193200D02*
X145176200Y-76193200D01*
%TO.N,Net-(D23-Pad2)*%
X149733000Y-129376000D02*
X149733000Y-132443000D01*
X151131000Y-127978000D02*
X149733000Y-129376000D01*
%TO.N,Net-(D6-Pad2)*%
X177730000Y-128978000D02*
X177730000Y-132444000D01*
X176728000Y-127976000D02*
X177730000Y-128978000D01*
%TO.N,Wire11*%
X139919900Y-141071400D02*
X138514400Y-142476900D01*
X79355600Y-90259300D02*
X80665600Y-88949300D01*
X139919900Y-139744900D02*
X139919900Y-141071400D01*
X138514400Y-142476900D02*
X95951700Y-142476900D01*
X80665600Y-88949300D02*
X81033000Y-88949300D01*
X81033000Y-87774000D02*
X81033000Y-88949300D01*
X79355600Y-125880800D02*
X79355600Y-90259300D01*
X130955300Y-139416700D02*
X139591700Y-139416700D01*
X95951700Y-142476900D02*
X79355600Y-125880800D01*
X129936000Y-140436000D02*
X130955300Y-139416700D01*
X139591700Y-139416700D02*
X139919900Y-139744900D01*
%TO.N,Wire12*%
X122233000Y-130850400D02*
X122233000Y-130935000D01*
X123667900Y-129415500D02*
X122233000Y-130850400D01*
%TO.N,Wire13*%
X120235000Y-121439000D02*
X119855700Y-121059700D01*
X119855700Y-121059700D02*
X118955000Y-121059700D01*
%TO.N,Wire14*%
X137381400Y-141994600D02*
X138933000Y-140443000D01*
X81033000Y-95394000D02*
X81033000Y-96569300D01*
X79857700Y-97377200D02*
X79857700Y-125702800D01*
X81033000Y-96569300D02*
X80665600Y-96569300D01*
X79857700Y-125702800D02*
X96149500Y-141994600D01*
X80665600Y-96569300D02*
X79857700Y-97377200D01*
X96149500Y-141994600D02*
X137381400Y-141994600D01*
%TO.N,Wire60*%
X155473900Y-112435900D02*
X155473900Y-111944500D01*
X156233000Y-113195000D02*
X155473900Y-112435900D01*
%TO.N,Wire64*%
X217433700Y-115726900D02*
X217066500Y-115359700D01*
X217433700Y-116535000D02*
X217433700Y-115726900D01*
X195647700Y-115359700D02*
X184729000Y-104441000D01*
X217066500Y-115359700D02*
X195647700Y-115359700D01*
X218609000Y-116535000D02*
X217433700Y-116535000D01*
%TO.N,Wire56*%
X155267400Y-106732400D02*
X156844000Y-106732400D01*
X196708600Y-114556100D02*
X218362100Y-114556100D01*
X161120200Y-102456200D02*
X184608700Y-102456200D01*
X154231000Y-105696000D02*
X155267400Y-106732400D01*
X219973700Y-116167700D02*
X219973700Y-116535000D01*
X184608700Y-102456200D02*
X196708600Y-114556100D01*
X221149000Y-116535000D02*
X219973700Y-116535000D01*
X156844000Y-106732400D02*
X161120200Y-102456200D01*
X218362100Y-114556100D02*
X219973700Y-116167700D01*
%TO.N,Wire49*%
X164981000Y-88439000D02*
X160084900Y-88439000D01*
X156225000Y-86198000D02*
X156602000Y-85821000D01*
X160084900Y-88439000D02*
X157466900Y-85821000D01*
X156602000Y-85821000D02*
X157466900Y-85821000D01*
%TO.N,Wire48*%
X156228000Y-83699000D02*
X157431900Y-83699000D01*
%TO.N,Wire7*%
X176801000Y-71158500D02*
X176801000Y-75263000D01*
X176801000Y-71158500D02*
X174827300Y-71158500D01*
X176801000Y-71158500D02*
X178696500Y-71158500D01*
X174827300Y-71158500D02*
X171609100Y-67940300D01*
X178696500Y-71158500D02*
X179732000Y-72194000D01*
X176801000Y-75263000D02*
X177732000Y-76194000D01*
%TO.N,Wire67*%
X204827000Y-64698000D02*
X204827000Y-67946000D01*
X203872500Y-63743500D02*
X204827000Y-64698000D01*
X208918100Y-55945000D02*
X203872500Y-60990600D01*
X203872500Y-60990600D02*
X203872500Y-63743500D01*
X212732000Y-55945000D02*
X208918100Y-55945000D01*
%TO.N,Wire33*%
X99264000Y-122639500D02*
X98203500Y-123700000D01*
X107930500Y-122639500D02*
X99264000Y-122639500D01*
X109734000Y-124443000D02*
X107930500Y-122639500D01*
%TO.N,Wire19*%
X114824400Y-80084400D02*
X114824400Y-81939700D01*
X110879000Y-82750000D02*
X106234000Y-87395000D01*
X114824400Y-81939700D02*
X114014100Y-82750000D01*
X106233000Y-90195000D02*
X106233000Y-87396000D01*
X114014100Y-82750000D02*
X110879000Y-82750000D01*
X106233000Y-87396000D02*
X106234000Y-87395000D01*
X113740000Y-79000000D02*
X114824400Y-80084400D01*
%TO.N,Wire21*%
X123934000Y-90195000D02*
X114734000Y-90195000D01*
X133936000Y-80193000D02*
X123934000Y-90195000D01*
%TO.N,Wire57*%
X149237000Y-108194000D02*
X149176000Y-108133000D01*
X154230000Y-108194000D02*
X149237000Y-108194000D01*
%TO.N,Wire44*%
X156231000Y-68695000D02*
X160941000Y-68695000D01*
%TO.N,Wire46*%
X160939600Y-71195000D02*
X163465400Y-68669200D01*
X156231000Y-71195000D02*
X160939600Y-71195000D01*
%TO.N,Wire47*%
X154228000Y-83699000D02*
X150142000Y-83699000D01*
X150142000Y-83699000D02*
X149176000Y-82733000D01*
%TO.N,Wire2*%
X135206000Y-71303000D02*
X133936000Y-70033000D01*
X161529700Y-75229400D02*
X158966100Y-72665800D01*
X155600300Y-72665800D02*
X155228000Y-73038100D01*
X165733000Y-74195000D02*
X164698600Y-75229400D01*
X164698600Y-75229400D02*
X161529700Y-75229400D01*
X158966100Y-72665800D02*
X155600300Y-72665800D01*
X155228000Y-73038100D02*
X155228000Y-74350500D01*
X155228000Y-74350500D02*
X154836500Y-74742000D01*
X154836500Y-74742000D02*
X153619500Y-74742000D01*
X153619500Y-74742000D02*
X150180500Y-71303000D01*
X150180500Y-71303000D02*
X135206000Y-71303000D01*
%TO.N,Wire1*%
X131730000Y-67695000D02*
X132665800Y-67695000D01*
X133936000Y-67493000D02*
X132867800Y-67493000D01*
X132665800Y-67695000D02*
X132867800Y-67493000D01*
%TO.N,Wire74*%
X95674600Y-85458900D02*
X95674600Y-80353100D01*
X95674600Y-80353100D02*
X95679700Y-80348000D01*
X97007000Y-85466000D02*
X95681700Y-85466000D01*
X95681700Y-85466000D02*
X95674600Y-85458900D01*
X97005000Y-80348000D02*
X95679700Y-80348000D01*
%TO.N,Wire75*%
X106611500Y-131782800D02*
X108230200Y-131782800D01*
X127314000Y-123561000D02*
X125988700Y-123561000D01*
X98210000Y-79672600D02*
X99574400Y-81037000D01*
X100051000Y-137018000D02*
X101376300Y-137018000D01*
X125094200Y-123539200D02*
X125966900Y-123539200D01*
X92500100Y-82890700D02*
X95718200Y-79672600D01*
X99574400Y-81037000D02*
X99574400Y-82230800D01*
X101376300Y-137018000D02*
X106611500Y-131782800D01*
X125966900Y-123539200D02*
X125988700Y-123561000D01*
X99574400Y-82230800D02*
X98876200Y-82929000D01*
X98876200Y-82929000D02*
X97000000Y-82929000D01*
X92500100Y-90582500D02*
X92500100Y-82890700D01*
X95718200Y-79672600D02*
X98210000Y-79672600D01*
%TO.N,Wire76*%
X99960800Y-84155000D02*
X100875900Y-83239900D01*
X98332300Y-84155000D02*
X99960800Y-84155000D01*
X97007000Y-84155000D02*
X98332300Y-84155000D01*
%TO.N,Wire77*%
X129795800Y-124080900D02*
X129795800Y-126409500D01*
X128793300Y-127412000D02*
X127315000Y-127412000D01*
X128638300Y-122923400D02*
X129795800Y-124080900D01*
X127313000Y-122294000D02*
X128638300Y-122294000D01*
X129795800Y-126409500D02*
X128793300Y-127412000D01*
X128638300Y-122294000D02*
X128638300Y-122923400D01*
%TO.N,Wire15*%
X127315000Y-126101000D02*
X128640300Y-126101000D01*
X128640300Y-126101000D02*
X129063600Y-126101000D01*
%TO.N,Wire78*%
X133027000Y-127415000D02*
X134352300Y-127415000D01*
X134352300Y-127415000D02*
X135239800Y-126527500D01*
%TO.N,Wire79*%
X131703700Y-121944900D02*
X131441500Y-121682700D01*
X131703700Y-123569000D02*
X131703700Y-121944900D01*
X133029000Y-123569000D02*
X131703700Y-123569000D01*
%TO.N,Wire28*%
X128773500Y-96694000D02*
X130034500Y-95433000D01*
X130034500Y-95433000D02*
X133936000Y-95433000D01*
%TO.N,Wire29*%
X126698500Y-96694000D02*
X127977500Y-97973000D01*
X126566000Y-96561500D02*
X126698500Y-96694000D01*
X127977500Y-97973000D02*
X133936000Y-97973000D01*
X126566000Y-95044000D02*
X126566000Y-96561500D01*
%TO.N,Wire27*%
X126591500Y-100513000D02*
X122777500Y-96699000D01*
X133936000Y-100513000D02*
X126591500Y-100513000D01*
X122777500Y-96135500D02*
X122777500Y-96699000D01*
X121686000Y-95044000D02*
X122777500Y-96135500D01*
%TD*%
M02*
