%TF.GenerationSoftware,KiCad,Pcbnew,(6.0.2)*%
%TF.CreationDate,2022-06-17T14:25:20-05:00*%
%TF.ProjectId,Snap_Station,536e6170-5f53-4746-9174-696f6e2e6b69,rev?*%
%TF.SameCoordinates,Original*%
%TF.FileFunction,Legend,Bot*%
%TF.FilePolarity,Positive*%
%FSLAX46Y46*%
G04 Gerber Fmt 4.6, Leading zero omitted, Abs format (unit mm)*
G04 Created by KiCad (PCBNEW (6.0.2)) date 2022-06-17 14:25:20*
%MOMM*%
%LPD*%
G01*
G04 APERTURE LIST*
%ADD10C,0.150000*%
%ADD11C,0.300000*%
%ADD12C,0.100000*%
%ADD13C,0.120000*%
G04 APERTURE END LIST*
D10*
X153478714Y-132909380D02*
X153478714Y-131909380D01*
X153097761Y-131909380D01*
X153002523Y-131957000D01*
X152954904Y-132004619D01*
X152907285Y-132099857D01*
X152907285Y-132242714D01*
X152954904Y-132337952D01*
X153002523Y-132385571D01*
X153097761Y-132433190D01*
X153478714Y-132433190D01*
X152478714Y-132909380D02*
X152478714Y-132242714D01*
X152478714Y-132433190D02*
X152431095Y-132337952D01*
X152383476Y-132290333D01*
X152288238Y-132242714D01*
X152193000Y-132242714D01*
X151859666Y-132909380D02*
X151859666Y-132242714D01*
X151859666Y-131909380D02*
X151907285Y-131957000D01*
X151859666Y-132004619D01*
X151812047Y-131957000D01*
X151859666Y-131909380D01*
X151859666Y-132004619D01*
X151383476Y-132242714D02*
X151383476Y-132909380D01*
X151383476Y-132337952D02*
X151335857Y-132290333D01*
X151240619Y-132242714D01*
X151097761Y-132242714D01*
X151002523Y-132290333D01*
X150954904Y-132385571D01*
X150954904Y-132909380D01*
X150621571Y-132242714D02*
X150240619Y-132242714D01*
X150478714Y-131909380D02*
X150478714Y-132766523D01*
X150431095Y-132861761D01*
X150335857Y-132909380D01*
X150240619Y-132909380D01*
X149526333Y-132861761D02*
X149621571Y-132909380D01*
X149812047Y-132909380D01*
X149907285Y-132861761D01*
X149954904Y-132766523D01*
X149954904Y-132385571D01*
X149907285Y-132290333D01*
X149812047Y-132242714D01*
X149621571Y-132242714D01*
X149526333Y-132290333D01*
X149478714Y-132385571D01*
X149478714Y-132480809D01*
X149954904Y-132576047D01*
X149050142Y-132909380D02*
X149050142Y-132242714D01*
X149050142Y-132433190D02*
X149002523Y-132337952D01*
X148954904Y-132290333D01*
X148859666Y-132242714D01*
X148764428Y-132242714D01*
X154026333Y-134519380D02*
X154026333Y-133519380D01*
X153645380Y-133519380D01*
X153550142Y-133567000D01*
X153502523Y-133614619D01*
X153454904Y-133709857D01*
X153454904Y-133852714D01*
X153502523Y-133947952D01*
X153550142Y-133995571D01*
X153645380Y-134043190D01*
X154026333Y-134043190D01*
X153026333Y-134519380D02*
X153026333Y-133852714D01*
X153026333Y-134043190D02*
X152978714Y-133947952D01*
X152931095Y-133900333D01*
X152835857Y-133852714D01*
X152740619Y-133852714D01*
X152264428Y-134519380D02*
X152359666Y-134471761D01*
X152407285Y-134424142D01*
X152454904Y-134328904D01*
X152454904Y-134043190D01*
X152407285Y-133947952D01*
X152359666Y-133900333D01*
X152264428Y-133852714D01*
X152121571Y-133852714D01*
X152026333Y-133900333D01*
X151978714Y-133947952D01*
X151931095Y-134043190D01*
X151931095Y-134328904D01*
X151978714Y-134424142D01*
X152026333Y-134471761D01*
X152121571Y-134519380D01*
X152264428Y-134519380D01*
X151502523Y-134519380D02*
X151502523Y-133519380D01*
X151502523Y-133900333D02*
X151407285Y-133852714D01*
X151216809Y-133852714D01*
X151121571Y-133900333D01*
X151073952Y-133947952D01*
X151026333Y-134043190D01*
X151026333Y-134328904D01*
X151073952Y-134424142D01*
X151121571Y-134471761D01*
X151216809Y-134519380D01*
X151407285Y-134519380D01*
X151502523Y-134471761D01*
X150454904Y-134519380D02*
X150550142Y-134471761D01*
X150597761Y-134376523D01*
X150597761Y-133519380D01*
X149693000Y-134471761D02*
X149788238Y-134519380D01*
X149978714Y-134519380D01*
X150073952Y-134471761D01*
X150121571Y-134376523D01*
X150121571Y-133995571D01*
X150073952Y-133900333D01*
X149978714Y-133852714D01*
X149788238Y-133852714D01*
X149693000Y-133900333D01*
X149645380Y-133995571D01*
X149645380Y-134090809D01*
X150121571Y-134186047D01*
X149216809Y-134519380D02*
X149216809Y-133852714D01*
X149216809Y-133947952D02*
X149169190Y-133900333D01*
X149073952Y-133852714D01*
X148931095Y-133852714D01*
X148835857Y-133900333D01*
X148788238Y-133995571D01*
X148788238Y-134519380D01*
X148788238Y-133995571D02*
X148740619Y-133900333D01*
X148645380Y-133852714D01*
X148502523Y-133852714D01*
X148407285Y-133900333D01*
X148359666Y-133995571D01*
X148359666Y-134519380D01*
X177734761Y-132721142D02*
X177782380Y-132768761D01*
X177925238Y-132816380D01*
X178020476Y-132816380D01*
X178163333Y-132768761D01*
X178258571Y-132673523D01*
X178306190Y-132578285D01*
X178353809Y-132387809D01*
X178353809Y-132244952D01*
X178306190Y-132054476D01*
X178258571Y-131959238D01*
X178163333Y-131864000D01*
X178020476Y-131816380D01*
X177925238Y-131816380D01*
X177782380Y-131864000D01*
X177734761Y-131911619D01*
X176877619Y-132816380D02*
X176877619Y-132292571D01*
X176925238Y-132197333D01*
X177020476Y-132149714D01*
X177210952Y-132149714D01*
X177306190Y-132197333D01*
X176877619Y-132768761D02*
X176972857Y-132816380D01*
X177210952Y-132816380D01*
X177306190Y-132768761D01*
X177353809Y-132673523D01*
X177353809Y-132578285D01*
X177306190Y-132483047D01*
X177210952Y-132435428D01*
X176972857Y-132435428D01*
X176877619Y-132387809D01*
X176401428Y-132816380D02*
X176401428Y-132149714D01*
X176401428Y-132340190D02*
X176353809Y-132244952D01*
X176306190Y-132197333D01*
X176210952Y-132149714D01*
X176115714Y-132149714D01*
X175353809Y-132816380D02*
X175353809Y-131816380D01*
X175353809Y-132768761D02*
X175449047Y-132816380D01*
X175639523Y-132816380D01*
X175734761Y-132768761D01*
X175782380Y-132721142D01*
X175830000Y-132625904D01*
X175830000Y-132340190D01*
X175782380Y-132244952D01*
X175734761Y-132197333D01*
X175639523Y-132149714D01*
X175449047Y-132149714D01*
X175353809Y-132197333D01*
X178425238Y-133902571D02*
X178091904Y-133902571D01*
X177949047Y-134426380D02*
X178425238Y-134426380D01*
X178425238Y-133426380D01*
X177949047Y-133426380D01*
X177520476Y-134426380D02*
X177520476Y-133759714D01*
X177520476Y-133950190D02*
X177472857Y-133854952D01*
X177425238Y-133807333D01*
X177330000Y-133759714D01*
X177234761Y-133759714D01*
X176901428Y-134426380D02*
X176901428Y-133759714D01*
X176901428Y-133950190D02*
X176853809Y-133854952D01*
X176806190Y-133807333D01*
X176710952Y-133759714D01*
X176615714Y-133759714D01*
X176139523Y-134426380D02*
X176234761Y-134378761D01*
X176282380Y-134331142D01*
X176330000Y-134235904D01*
X176330000Y-133950190D01*
X176282380Y-133854952D01*
X176234761Y-133807333D01*
X176139523Y-133759714D01*
X175996666Y-133759714D01*
X175901428Y-133807333D01*
X175853809Y-133854952D01*
X175806190Y-133950190D01*
X175806190Y-134235904D01*
X175853809Y-134331142D01*
X175901428Y-134378761D01*
X175996666Y-134426380D01*
X176139523Y-134426380D01*
X175377619Y-134426380D02*
X175377619Y-133759714D01*
X175377619Y-133950190D02*
X175330000Y-133854952D01*
X175282380Y-133807333D01*
X175187142Y-133759714D01*
X175091904Y-133759714D01*
X207390333Y-141550380D02*
X207390333Y-140550380D01*
X207152238Y-140550380D01*
X207009380Y-140598000D01*
X206914142Y-140693238D01*
X206866523Y-140788476D01*
X206818904Y-140978952D01*
X206818904Y-141121809D01*
X206866523Y-141312285D01*
X206914142Y-141407523D01*
X207009380Y-141502761D01*
X207152238Y-141550380D01*
X207390333Y-141550380D01*
X206437952Y-140645619D02*
X206390333Y-140598000D01*
X206295095Y-140550380D01*
X206057000Y-140550380D01*
X205961761Y-140598000D01*
X205914142Y-140645619D01*
X205866523Y-140740857D01*
X205866523Y-140836095D01*
X205914142Y-140978952D01*
X206485571Y-141550380D01*
X205866523Y-141550380D01*
X201818904Y-141455142D02*
X201866523Y-141502761D01*
X202009380Y-141550380D01*
X202104619Y-141550380D01*
X202247476Y-141502761D01*
X202342714Y-141407523D01*
X202390333Y-141312285D01*
X202437952Y-141121809D01*
X202437952Y-140978952D01*
X202390333Y-140788476D01*
X202342714Y-140693238D01*
X202247476Y-140598000D01*
X202104619Y-140550380D01*
X202009380Y-140550380D01*
X201866523Y-140598000D01*
X201818904Y-140645619D01*
X200818904Y-141550380D02*
X201152238Y-141074190D01*
X201390333Y-141550380D02*
X201390333Y-140550380D01*
X201009380Y-140550380D01*
X200914142Y-140598000D01*
X200866523Y-140645619D01*
X200818904Y-140740857D01*
X200818904Y-140883714D01*
X200866523Y-140978952D01*
X200914142Y-141026571D01*
X201009380Y-141074190D01*
X201390333Y-141074190D01*
X200390333Y-141026571D02*
X200057000Y-141026571D01*
X199914142Y-141550380D02*
X200390333Y-141550380D01*
X200390333Y-140550380D01*
X199914142Y-140550380D01*
X199485571Y-141550380D02*
X199485571Y-140550380D01*
X199247476Y-140550380D01*
X199104619Y-140598000D01*
X199009380Y-140693238D01*
X198961761Y-140788476D01*
X198914142Y-140978952D01*
X198914142Y-141121809D01*
X198961761Y-141312285D01*
X199009380Y-141407523D01*
X199104619Y-141502761D01*
X199247476Y-141550380D01*
X199485571Y-141550380D01*
X198485571Y-141550380D02*
X198485571Y-140550380D01*
X198152238Y-140550380D02*
X197580809Y-140550380D01*
X197866523Y-141550380D02*
X197866523Y-140550380D01*
X203009380Y-143160380D02*
X203009380Y-142160380D01*
X202771285Y-142160380D01*
X202628428Y-142208000D01*
X202533190Y-142303238D01*
X202485571Y-142398476D01*
X202437952Y-142588952D01*
X202437952Y-142731809D01*
X202485571Y-142922285D01*
X202533190Y-143017523D01*
X202628428Y-143112761D01*
X202771285Y-143160380D01*
X203009380Y-143160380D01*
X202009380Y-143160380D02*
X202009380Y-142160380D01*
X201580809Y-143112761D02*
X201437952Y-143160380D01*
X201199857Y-143160380D01*
X201104619Y-143112761D01*
X201057000Y-143065142D01*
X201009380Y-142969904D01*
X201009380Y-142874666D01*
X201057000Y-142779428D01*
X201104619Y-142731809D01*
X201199857Y-142684190D01*
X201390333Y-142636571D01*
X201485571Y-142588952D01*
X201533190Y-142541333D01*
X201580809Y-142446095D01*
X201580809Y-142350857D01*
X201533190Y-142255619D01*
X201485571Y-142208000D01*
X201390333Y-142160380D01*
X201152238Y-142160380D01*
X201009380Y-142208000D01*
X200580809Y-143160380D02*
X200580809Y-142160380D01*
X200199857Y-142160380D01*
X200104619Y-142208000D01*
X200057000Y-142255619D01*
X200009380Y-142350857D01*
X200009380Y-142493714D01*
X200057000Y-142588952D01*
X200104619Y-142636571D01*
X200199857Y-142684190D01*
X200580809Y-142684190D01*
X199104619Y-143160380D02*
X199580809Y-143160380D01*
X199580809Y-142160380D01*
X198818904Y-142874666D02*
X198342714Y-142874666D01*
X198914142Y-143160380D02*
X198580809Y-142160380D01*
X198247476Y-143160380D01*
X197723666Y-142684190D02*
X197723666Y-143160380D01*
X198057000Y-142160380D02*
X197723666Y-142684190D01*
X197390333Y-142160380D01*
%TO.C,D6*%
X183182095Y-125742380D02*
X183182095Y-124742380D01*
X182944000Y-124742380D01*
X182801142Y-124790000D01*
X182705904Y-124885238D01*
X182658285Y-124980476D01*
X182610666Y-125170952D01*
X182610666Y-125313809D01*
X182658285Y-125504285D01*
X182705904Y-125599523D01*
X182801142Y-125694761D01*
X182944000Y-125742380D01*
X183182095Y-125742380D01*
X181753523Y-124742380D02*
X181944000Y-124742380D01*
X182039238Y-124790000D01*
X182086857Y-124837619D01*
X182182095Y-124980476D01*
X182229714Y-125170952D01*
X182229714Y-125551904D01*
X182182095Y-125647142D01*
X182134476Y-125694761D01*
X182039238Y-125742380D01*
X181848761Y-125742380D01*
X181753523Y-125694761D01*
X181705904Y-125647142D01*
X181658285Y-125551904D01*
X181658285Y-125313809D01*
X181705904Y-125218571D01*
X181753523Y-125170952D01*
X181848761Y-125123333D01*
X182039238Y-125123333D01*
X182134476Y-125170952D01*
X182182095Y-125218571D01*
X182229714Y-125313809D01*
%TO.C,D23*%
X158521285Y-125693380D02*
X158521285Y-124693380D01*
X158283190Y-124693380D01*
X158140333Y-124741000D01*
X158045095Y-124836238D01*
X157997476Y-124931476D01*
X157949857Y-125121952D01*
X157949857Y-125264809D01*
X157997476Y-125455285D01*
X158045095Y-125550523D01*
X158140333Y-125645761D01*
X158283190Y-125693380D01*
X158521285Y-125693380D01*
X157568904Y-124788619D02*
X157521285Y-124741000D01*
X157426047Y-124693380D01*
X157187952Y-124693380D01*
X157092714Y-124741000D01*
X157045095Y-124788619D01*
X156997476Y-124883857D01*
X156997476Y-124979095D01*
X157045095Y-125121952D01*
X157616523Y-125693380D01*
X156997476Y-125693380D01*
X156664142Y-124693380D02*
X156045095Y-124693380D01*
X156378428Y-125074333D01*
X156235571Y-125074333D01*
X156140333Y-125121952D01*
X156092714Y-125169571D01*
X156045095Y-125264809D01*
X156045095Y-125502904D01*
X156092714Y-125598142D01*
X156140333Y-125645761D01*
X156235571Y-125693380D01*
X156521285Y-125693380D01*
X156616523Y-125645761D01*
X156664142Y-125598142D01*
D11*
%TO.C,D2*%
X213112000Y-116632000D02*
X213112000Y-116632000D01*
X213112000Y-116732000D02*
X213112000Y-116732000D01*
D12*
X212062000Y-111887000D02*
X192162000Y-111887000D01*
X192162000Y-139577000D02*
X212062000Y-139577000D01*
X192162000Y-111887000D02*
X192162000Y-139577000D01*
X212062000Y-139577000D02*
X212062000Y-111887000D01*
D11*
X213112000Y-116632000D02*
G75*
G03*
X213112000Y-116732000I0J-50000D01*
G01*
X213112000Y-116732000D02*
G75*
G03*
X213112000Y-116632000I0J50000D01*
G01*
D13*
%TO.C,D6*%
X175183000Y-124146000D02*
X178273000Y-124146000D01*
X175183170Y-124146000D02*
G75*
G03*
X176728462Y-129696000I1544830J-2560000D01*
G01*
X176727538Y-129696000D02*
G75*
G03*
X178272830Y-124146000I462J2990000D01*
G01*
X179228000Y-126706000D02*
G75*
G03*
X179228000Y-126706000I-2500000J0D01*
G01*
%TO.C,D23*%
X149586000Y-124148000D02*
X152676000Y-124148000D01*
X149586170Y-124148000D02*
G75*
G03*
X151131462Y-129698000I1544830J-2560000D01*
G01*
X151130538Y-129698000D02*
G75*
G03*
X152675830Y-124148000I462J2990000D01*
G01*
X153631000Y-126708000D02*
G75*
G03*
X153631000Y-126708000I-2500000J0D01*
G01*
%TD*%
M02*
